<?xml version="1.0" standalone="no"?>
<!DOCTYPE svg PUBLIC "-//W3C//DTD SVG 1.1//EN" "http://www.w3.org/Graphics/SVG/1.1/DTD/svg11.dtd" >
<svg xmlns="http://www.w3.org/2000/svg" xmlns:xlink="http://www.w3.org/1999/xlink" version="1.1">
<metadata></metadata>
<defs>
<font id="machiavelli_regularregular" horiz-adv-x="1523" >
<font-face units-per-em="2048" ascent="1638" descent="-410" />
<missing-glyph horiz-adv-x="307" />
<glyph horiz-adv-x="0" />
<glyph horiz-adv-x="682" />
<glyph unicode=" "  horiz-adv-x="307" />
<glyph unicode="&#x09;" horiz-adv-x="307" />
<glyph unicode="&#xa0;" horiz-adv-x="307" />
<glyph unicode="!" horiz-adv-x="409" d="M61 113q0 61 41 102t103 41q61 0 102 -41t41 -102q0 -62 -41 -103t-102 -41t-102.5 41.5t-41.5 102.5zM94 1290h215l-67 -907h-82z" />
<glyph unicode="&#x22;" horiz-adv-x="675" d="M102 1208q0 62 29 103t74 41t73.5 -41t28.5 -103q0 -13 -4 -37l-78 -311h-43l-73 303q-7 25 -7 45zM369 1208q0 62 28.5 103t73.5 41t73.5 -41t28.5 -103q0 -13 -4 -37l-77 -311h-43l-74 303q-6 21 -6 45z" />
<glyph unicode="#" horiz-adv-x="1208" d="M61 367v92h279l74 340h-264v92h284l80 369h92l-80 -369h256l80 369h92l-80 -369h273v-92h-293l-74 -340h279v-92h-297l-80 -367h-92l80 367h-256l-80 -367h-92l80 367h-261zM432 459h256l74 340h-256z" />
<glyph unicode="$" horiz-adv-x="1198" d="M41 459h109q29 -302 286 -363v518q-81 30 -136.5 56.5t-113 67t-88.5 95t-35 121.5q-7 150 103 261t270 147v160h82v-148l29 2q49 0 74 -2v148h81v-154q174 -25 320 -96l20 -328h-114q-18 256 -226 313v-483q63 -22 109.5 -43t97.5 -53t84 -68t56 -87t26 -111 q7 -159 -97.5 -269t-275.5 -147v-158h-81v144q-67 -4 -103 -2v-142h-82v150q-204 25 -375 153zM295 1004q13 -79 141 -134v371q-73 -35 -113.5 -99.5t-27.5 -137.5zM518 84q40 -4 60 -4q29 0 43 2v463q-13 5 -48 18.5t-55 20.5v-500zM518 838l103 -35v469q-20 2 -60 2 q-15 0 -43 -4v-432zM702 104q77 33 118.5 99t25.5 151q-16 88 -144 154v-404z" />
<glyph unicode="%" horiz-adv-x="1380" d="M61 1044q0 120 90.5 205.5t217.5 85.5t217 -85.5t90 -205.5t-90 -205t-217 -85t-217.5 85t-90.5 205zM154 1049q0 -85 63.5 -146t151.5 -61q89 0 152 61t63 146q0 82 -63 142t-152 60q-88 0 -151.5 -60t-63.5 -142zM174 0l930 1335h108l-936 -1335h-102zM705 291 q0 120 90 205.5t217 85.5t217 -85.5t90 -205.5t-90 -205.5t-217 -85.5t-217 85.5t-90 205.5zM797 295q0 -85 63.5 -146t151.5 -61q89 0 152 61t63 146q0 82 -63 142.5t-152 60.5q-87 0 -151 -60.5t-64 -142.5z" />
<glyph unicode="&#x26;" d="M123 352q0 150 88 259t244 196q-164 224 -164 373q0 148 94.5 231.5t243.5 83.5q159 0 257.5 -91t98.5 -214q0 -55 -22.5 -101.5t-70 -88.5t-92 -71.5t-118.5 -70.5q44 -60 107.5 -133.5t168.5 -189.5t162 -181q133 186 111 426l-129 43v68h344v-74l-111 -39 q0 -295 -147 -499l149 -166q23 -31 125 -39v-74h-288l-105 117q-100 -71 -211 -111t-217 -37q-69 1 -137.5 14t-138.5 42t-122.5 71.5t-86 108.5t-33.5 147zM338 444q-1 -78 31 -144.5t83 -107.5t110 -63.5t114 -22.5q208 0 317 95q-57 63 -235 252.5t-244 273.5 q-75 -57 -125 -130.5t-51 -152.5zM487 1208q0 -107 140 -274q85 60 133.5 120.5t48.5 135.5q0 98 -42.5 167t-111.5 75q-72 0 -120 -63t-48 -161z" />
<glyph unicode="'" horiz-adv-x="327" d="M61 1208q0 62 29 103t74 41t73.5 -41t28.5 -103q0 -13 -4 -37l-78 -311h-43l-73 303q-7 25 -7 45z" />
<glyph unicode="(" horiz-adv-x="733" d="M61 455q0 178 46 333.5t127.5 272.5t179.5 203.5t215 148.5l43 -82q-82 -48 -153.5 -106t-137.5 -138t-112.5 -171.5t-74.5 -209t-28 -247.5q0 -154 41 -293t112.5 -246.5t158.5 -189.5t190 -142l-47 -80q-112 65 -208 154.5t-177 206.5t-128 268.5t-47 317.5z" />
<glyph unicode=")" horiz-adv-x="733" d="M61 1331l43 82q92 -49 173.5 -115t154.5 -155.5t126 -192t83.5 -230.5t30.5 -265q0 -173 -46.5 -325.5t-128 -268t-176.5 -201.5t-208 -152l-47 80q82 48 153 106t136.5 138t111 171.5t73 208.5t27.5 247q0 154 -41.5 293t-114 247t-160 190t-190.5 142z" />
<glyph unicode="*" horiz-adv-x="593" d="M61 1110v82h211l107 184l72 -41l-82 -143h163v-82h-210l-107 -184l-72 41l82 143h-164z" />
<glyph unicode="+" horiz-adv-x="935" d="M61 522v103h357v356h102v-356h354v-103h-354v-354h-102v354h-357z" />
<glyph unicode="," horiz-adv-x="452" d="M61 -274q51 21 84.5 54.5t46.5 70t16.5 65.5t0.5 57q-46 12 -75.5 50.5t-29.5 89.5q0 61 41 102t103 41t102.5 -41t40.5 -104q-1 -57 -7 -103t-26.5 -102.5t-55 -100.5t-96 -87t-145.5 -72v80z" />
<glyph unicode="-" horiz-adv-x="628" d="M61 522v103h506v-103h-506z" />
<glyph unicode="." horiz-adv-x="409" d="M61 113q0 61 41 102t103 41q61 0 102 -41t41 -102q0 -62 -41 -103t-102 -41t-102.5 41.5t-41.5 102.5z" />
<glyph unicode="/" horiz-adv-x="761" d="M61 -467l541 1802h98l-546 -1802h-93z" />
<glyph unicode="0" horiz-adv-x="1085" d="M61 686q0 120 34 238.5t93.5 214.5t149.5 155.5t194 59.5q79 0 155 -39t136 -106t106 -151.5t70.5 -180t24.5 -187.5q0 -99 -17 -197.5t-55.5 -194t-93.5 -168t-138 -117t-183 -44.5q-92 0 -171.5 44.5t-134.5 117.5t-94 167t-57.5 193t-18.5 195zM287 680 q7 -134 21 -234t41.5 -189t76 -136t117.5 -47q75 0 128 47t81.5 133.5t39 196t5.5 245.5q-3 79 -11.5 150.5t-28 149.5t-47 134t-73 93t-102.5 37q-67 0 -118.5 -53.5t-80 -139.5t-41.5 -186t-8 -201z" />
<glyph unicode="1" horiz-adv-x="747" d="M61 0v61l205 50v1052l-203 -88v105l349 172h80v-1241l194 -50v-61h-625z" />
<glyph unicode="2" horiz-adv-x="1005" d="M61 0v168q46 41 115 101t112.5 97.5t100.5 91t92.5 93.5t74.5 93t60.5 100t35.5 104.5t14 116.5q0 74 -36.5 129t-91 80t-119 27t-120.5 -19.5t-95.5 -70.5t-43.5 -116h-74q2 107 59 190.5t143.5 125t184.5 41.5q93 0 168.5 -26t123 -67t80 -95.5t45.5 -109t13 -110.5 t-18.5 -112t-46.5 -104t-76 -102.5t-91 -95t-109.5 -93.5t-113.5 -87.5t-120 -88t-113 -83.5h528q22 0 35 8t34.5 43t57.5 113h74l-41 -342h-842z" />
<glyph unicode="3" horiz-adv-x="958" d="M74 100q-26 61 1.5 98.5t90.5 32.5q52 -3 89.5 -37.5t51.5 -99.5q110 -56 194 -45t134.5 79.5t50.5 172.5q0 143 -103.5 230.5t-254.5 72.5l-29 51q162 71 245 155.5t83 205.5q0 73 -27.5 124.5t-70 73.5t-95 26t-102 -11.5t-91.5 -46t-63 -70.5l-47 21q96 219 328 219 q93 0 169 -27.5t124 -73t73.5 -102t26.5 -117.5q1 -120 -71.5 -198.5t-233.5 -141.5q148 0 249 -88.5t101 -228.5q0 -85 -32.5 -155.5t-84.5 -115t-119 -75t-133.5 -42.5t-130.5 -10q-85 2 -191.5 34.5t-131.5 88.5z" />
<glyph unicode="4" horiz-adv-x="1013" d="M61 440v54l490 788q56 7 91.5 22.5t80.5 49.5h55v-832h174v-82h-174v-329l146 -45v-66h-516v66l145 45v329h-492zM180 522h373v606z" />
<glyph unicode="5" horiz-adv-x="1073" d="M61.5 194q8.5 36 42 54.5t76.5 15.5q50 -3 88.5 -45.5t53.5 -109.5q140 -79 249.5 -57t176.5 112t67 207q0 156 -95 250.5t-228 91.5q-63 -1 -124 -38t-98 -87h-153l147 743h678l-20 -209h-607l-90 -415q61 92 151 137t193 45q111 0 211.5 -50t166 -146t65.5 -214 q0 -113 -47 -209t-125 -159.5t-177.5 -99t-205.5 -36.5q-110 0 -219 34t-150 95q-35 54 -26.5 90z" />
<glyph unicode="6" horiz-adv-x="1026" d="M61 522q0 204 41 366.5t110.5 262.5t157.5 152.5t187 52.5q114 0 198 -41t158 -123l-69 -39q-40 48 -106.5 75t-147.5 27q-86 0 -151 -65.5t-100.5 -178t-41.5 -259.5q104 88 225 88q94 0 177 -33.5t141 -90.5t91.5 -134.5t33.5 -163.5q0 -91 -28.5 -170.5t-84 -142.5 t-147 -99.5t-209.5 -36.5q-86 0 -159.5 34t-123 90t-85 128.5t-51.5 148.5t-16 152zM281 397q9 -167 71.5 -255.5t169.5 -88.5q74 4 126 61.5t73.5 136t21.5 167.5q0 125 -76 222.5t-171 96.5q-39 -1 -66 -5.5t-57.5 -22.5t-48.5 -49t-30 -87t-13 -135v2v-43z" />
<glyph unicode="7" horiz-adv-x="1026" d="M61 1001h74q32 144 109 144h559l-572 -1145h125l609 1219l-21 114h-842z" />
<glyph unicode="8" horiz-adv-x="1073" d="M61 322q0 79 27.5 144t75.5 108.5t106 71t125 40.5q-118 78 -181.5 148.5t-63.5 154.5q0 104 62.5 189t158.5 129.5t202 44.5q107 0 195 -34.5t143.5 -107.5t55.5 -174q0 -108 -69 -176.5t-200 -120.5q57 -39 95 -67t83.5 -69t72 -76.5t45 -81t18.5 -91.5q0 -75 -32 -144 t-90.5 -122t-148.5 -85t-198 -32q-231 0 -356.5 96t-125.5 255zM240 385q0 -82 37.5 -158t110 -126t161.5 -50q116 5 189 69t73 165q0 22 -6.5 44.5t-14.5 41t-27.5 41.5t-32.5 37.5t-42.5 38t-44 35t-51.5 36t-51 33t-54 34.5q-20 13 -30 19q-92 -25 -154 -98.5t-63 -161.5 zM336 1079q3 -32 23 -65.5t43.5 -59t69 -60.5t75.5 -55.5t88 -58.5q66 51 101.5 124.5t37.5 150.5q2 101 -56.5 163t-168.5 62q-41 -1 -78 -11t-71.5 -31.5t-52 -62t-11.5 -96.5z" />
<glyph unicode="9" horiz-adv-x="1026" d="M61 907q0 91 28.5 170.5t84 142.5t147 99.5t209.5 36.5q182 0 308.5 -155.5t126.5 -397.5q0 -189 -41.5 -342.5t-110 -249.5t-158 -153.5t-183.5 -65.5t-188 27.5t-171 113.5l69 39q56 -52 120.5 -72t125.5 -8.5t118.5 52.5t101 103.5t71.5 152.5t31 194 q-52 -54 -117 -81.5t-129 -27.5q-94 0 -177 33.5t-141 90.5t-91.5 134.5t-33.5 163.5zM272 907q0 -126 72 -223t166 -96q254 4 256 319l2 -4l-2 25q-9 164 -81 254t-181 90q-74 -4 -128.5 -61t-79 -136.5t-24.5 -167.5z" />
<glyph unicode=":" horiz-adv-x="409" d="M61 113q0 61 41 102t103 41q61 0 102 -41t41 -102q0 -62 -41 -103t-102 -41t-102.5 41.5t-41.5 102.5zM61 686q0 61 41 102t103 41q61 0 102 -40.5t41 -102.5t-41 -102.5t-102 -40.5q-62 0 -103 41t-41 102z" />
<glyph unicode=";" horiz-adv-x="411" d="M18 -260q51 21 84.5 54.5t46.5 70.5t16.5 66t0.5 57q-46 12 -75.5 50.5t-29.5 88.5q0 61 41 102t103 41q60 0 98.5 -40.5t44.5 -104.5q7 -66 -4.5 -128t-45 -126t-105 -119t-175.5 -92v80zM63 686q0 61 41 102t103 41q61 0 102 -40.5t41 -102.5t-41 -102.5t-102 -40.5 q-62 0 -103 41t-41 102z" />
<glyph unicode="&#x3c;" horiz-adv-x="960" d="M61 408l803 -336l35 86l-715 303l709 303l-35 86l-797 -334v-108z" />
<glyph unicode="=" horiz-adv-x="935" d="M61 322v102h813v-102h-813zM61 670v102h813v-102h-813z" />
<glyph unicode="&#x3e;" horiz-adv-x="960" d="M61 158l35 -86l803 336v108l-797 334l-34 -86l708 -303z" />
<glyph unicode="?" horiz-adv-x="888" d="M60.5 1096q1.5 37 32 81.5t87.5 84.5q114 82 279 79q149 -3 258.5 -109.5t109.5 -238.5q0 -111 -64.5 -196t-193.5 -160q-118 -69 -141 -86q-59 -45 -53 -98q5 -40 45 -101h-84q-46 53 -63 110t-4.5 118t71 123.5t160.5 117.5q258 141 143 344q-31 56 -105 81t-150 4 t-107 -87q29 -29 33.5 -65.5t-11 -65.5t-46 -49t-67.5 -20q-38 0 -69 17.5t-46.5 48t-14 67.5zM217 113q0 61 40.5 102t102.5 41t103 -41t41 -102t-41 -102.5t-103 -41.5q-61 0 -102 41t-41 103z" />
<glyph unicode="@" horiz-adv-x="1775" d="M61 535q0 175 64.5 333.5t176.5 275t272 185t341 68.5q166 0 315.5 -61t254.5 -162t167 -236.5t62 -280.5q0 -115 -30 -212t-79 -162.5t-112.5 -112t-129.5 -67.5t-132 -21q-112 0 -176 55.5t-54 153.5q-61 -104 -119 -154.5t-143 -50.5q-161 0 -243 141q-73 128 -54 311 q20 187 126 317q120 147 302 151q62 2 126.5 -27t101.5 -86l22 98l215 8l-22 -108l-103 -563q-10 -60 16.5 -91.5t80.5 -31.5q122 0 218.5 129.5t96.5 329.5q0 127 -53.5 244.5t-145.5 204.5t-223.5 139.5t-279.5 52.5q-210 0 -386 -102t-278 -277.5t-102 -384.5 q0 -219 102.5 -395t277.5 -273.5t386 -97.5q164 0 319 65l59 -76q-179 -81 -383 -81q-135 0 -262.5 38.5t-234 113.5t-187 177.5t-125.5 237t-45 285.5zM651 463q2 -81 37 -142.5t96 -78.5t120.5 30.5t101.5 124.5l77 383q-57 72 -123.5 98t-121.5 -1q-60 -29 -106 -98 t-64.5 -152t-16.5 -164z" />
<glyph unicode="A" horiz-adv-x="1267" d="M-20 0v82l120 49l471 1221h129l471 -1221l117 -49v-82h-500v82l146 49l-141 340h-457l-123 -340l143 -49v-82h-376zM373 573h383l-183 498z" />
<glyph unicode="B" horiz-adv-x="1257" d="M61 0v82l146 49v1090l-146 49v82h637q209 0 333 -98.5t124 -256.5q0 -266 -297 -327q168 -13 263.5 -102t95.5 -226q0 -158 -103.5 -250t-322.5 -92h-730zM432 143q0 -17 12 -29t29 -12h252q113 0 184.5 70t71.5 174q0 56 -19 104t-58.5 87.5t-108.5 62.5t-160 23h-162 q-17 0 -29 -12t-12 -29v-439zM432 766q0 -17 12 -29t29 -12h148q60 0 111.5 14.5t94.5 45.5t68 86t25 130q0 141 -108 200q-86 47 -252 47q-42 0 -89 -3q-17 -2 -28 -13t-11 -28v-438z" />
<glyph unicode="C" horiz-adv-x="1419" d="M61 649q0 153 43 277.5t116 207t172 137.5t207 79q104 23 216 22h10q134 -2 278.5 -34.5t233.5 -84.5l21 -348h-119q-14 173 -132 261.5t-298 88.5h-9q-93 -1 -179 -39q-90 -40 -161 -116q-70 -75 -112 -196q-41 -118 -41 -262v-7q1 -101 32.5 -189.5t84.5 -153.5 t122.5 -111.5t147.5 -68.5q75 -22 153 -22h7q163 0 259.5 76t111.5 235h118l-20 -348q-10 -2 -87 -20.5t-109 -24.5t-96.5 -18t-118.5 -17t-107 -6h-10q-102 -1 -199 19q-102 20 -200.5 72t-171.5 128t-118 195.5t-45 267.5z" />
<glyph unicode="D" horiz-adv-x="1542" d="M61 1260v92h656h9q114 0 214 -25q104 -26 192.5 -80.5t152.5 -133.5q63 -79 99 -191q35 -109 35 -241v-7q-3 -674 -676 -674h-680v88l162 49v1073zM451 141q0 -18 10.5 -29.5t27.5 -11.5q27 -1 53 -1q56 -1 106 3q72 4 143 19t125 41.5t101.5 69t78 100.5t48.5 139 t19 182v10q-1 143 -29 245q-30 106 -84 173t-144 105q-88 38 -194 51q-86 11 -198 11q-26 0 -53 -1q-10 0 -10 -41v-1065z" />
<glyph unicode="E" horiz-adv-x="1259" d="M61 0v84l146 49v1084l-146 49v86h1137l21 -318h-113l-51 187q-9 28 -37 28h-545q-17 0 -29 -12t-12 -29v-428q0 -17 12 -29t29 -12h416l49 131h92v-356h-94l-47 123h-416q-17 0 -29 -12t-12 -29v-453q0 -17 12 -29t29 -12h545q27 0 37 29l51 186h113l-21 -317h-1137z" />
<glyph unicode="F" horiz-adv-x="1239" d="M41 0v84l145 49v1084l-145 49v86h1137l20 -318h-113l-51 187q-9 28 -37 28h-544q-17 0 -29 -12t-12 -29v-428q0 -17 12 -29t29 -12h415l50 131h92v-356h-95l-47 123h-415q-17 0 -29 -12t-12 -29v-465l188 -49v-82h-559z" />
<glyph unicode="G" horiz-adv-x="1552" d="M61 690q0 142 37.5 257.5t102 194t154.5 132t190.5 79t214.5 27.5h22q136 0 285 -34q161 -36 272 -91l21 -348h-119q0 75 -27 136t-70 99.5t-100.5 65t-114 37.5t-114.5 12h-11q-99 0 -186 -35q-92 -38 -161.5 -108.5t-109.5 -179.5t-40 -242q0 -294 128.5 -448 t383.5 -154q64 0 150 33.5t131 83.5v301l-146 49v82h482v-82l-111 -49v-410q-59 -53 -206.5 -91t-311.5 -38q-120 0 -228 25.5t-203.5 81.5t-165 138.5t-109.5 204.5t-40 271z" />
<glyph unicode="H" horiz-adv-x="1470" d="M61 0v82l136 49v1090l-136 49v82h506v-82l-145 -49v-447q0 -17 12 -29t29 -12h543q17 0 29 12t12 29v447l-146 49v82h508v-82l-137 -49v-1090l137 -49v-82h-528v82l166 49v449q0 17 -12 29t-29 12h-543q-17 0 -29 -12t-12 -29v-449l145 -49v-82h-506z" />
<glyph unicode="I" horiz-adv-x="659" d="M61 0v82l146 49v1090l-146 49v82h517v-82l-146 -49v-1090l146 -49v-82h-517z" />
<glyph unicode="J" horiz-adv-x="854" d="M58 212q37 34 100 34q64 0 100 -54q18 -26 18 -53q0 -28 -20 -57q90 0 140 102q46 96 46 248v19v770l-145 49v82h516v-82l-145 -49v-770q0 -126 -37.5 -219.5t-103.5 -147t-147 -79t-177 -25.5q-76 0 -131 48q-52 45 -52 99q0 49 38 85z" />
<glyph unicode="K" horiz-adv-x="1378" d="M61 0h476v82l-125 49v422l123 129l366 -512q17 -22 17 -37q0 -14 -15 -23q-19 -11 -112 -28v-82h567v82q-31 7 -53.5 12.5t-39.5 12.5t-26.5 10t-19.5 13t-12 11.5t-11 14.5t-10 14l-481 674l405 358q28 25 61.5 35t135.5 29v86h-494v-86q77 -12 113 -34q17 -11 18 -24 q0 -14 -20 -32l-512 -471v516l145 49v82h-496v-82l125 -49v-1090l-125 -49v-82z" />
<glyph unicode="L" horiz-adv-x="1107" d="M61 0v68l125 73v1080l-125 49v82h496v-82l-145 -49v-1110h452q28 0 35 24l84 234h104l-32 -369h-994z" />
<glyph unicode="M" horiz-adv-x="1703" d="M61 0h377v82l-145 49v844l502 -975h39l438 997v-866l-90 -49v-82h460v82l-145 49v1090l145 49v82h-337l-435 -987l-503 987h-306v-82l129 -49v-1090l-129 -49v-82z" />
<glyph unicode="N" horiz-adv-x="1429" d="M61 0h414v82l-166 49v952l768 -1083h146v1221l145 49v82h-399v-84l141 -51v-883l-713 1018h-336v-82l146 -49v-1090l-146 -49v-82z" />
<glyph unicode="O" d="M61 649q0 162 51.5 299t142 230.5t215.5 146t269 53.5h5q200 0 364 -87q166 -89 260 -247q94 -157 94 -350q0 -231 -90 -397q-89 -164 -244.5 -246t-361.5 -82q-112 0 -215.5 27t-193 83t-155.5 135.5t-103.5 191t-37.5 243.5zM315 655q3 -260 133 -413 q127 -150 337 -150h8q183 2 300 160q113 152 113 410v18q-4 265 -124.5 418.5t-313.5 156.5h-7q-203 0 -325 -161q-121 -160 -121 -426v-13z" />
<glyph unicode="P" horiz-adv-x="1245" d="M61 0v82l146 49v1079l-146 50v92h658q211 0 338 -116.5t127 -279.5q0 -77 -26 -145t-78.5 -124t-142.5 -89t-208 -33h-317v-434l206 -49v-82h-557zM412 713q0 -15 9.5 -26.5t24.5 -12.5q62 -8 105 -10q31 -2 69 -1h32q58 1 98 10t83 29.5t68.5 52.5t42.5 83t17 118 q0 296 -429 296q-40 0 -83 -3q-17 -1 -27 -12.5t-10 -28.5v-495z" />
<glyph unicode="Q" horiz-adv-x="1484" d="M61 637q0 154 54.5 292t146.5 235.5t216.5 155t260.5 58.5h5q155 0 292 -56q140 -56 237.5 -151t154.5 -223q55 -127 55 -265q0 -223 -91 -384q-89 -159 -250 -240.5t-376 -81.5h-45l-41 -86q50 17 114 22q19 2 40 2q48 0 104 -9q81 -11 156 -41q55 -22 112 -69t95 -90 t78 -78t67 -38q10 -1 20 -1q43 0 80 21q47 27 66 71l37 -48q-28 -75 -105 -127q-76 -51 -193 -51h-5q-64 1 -125 31t-110 74.5t-93.5 90.5t-93 85.5t-90.5 52.5q-54 19 -120 19q-30 0 -63 -4q-104 -13 -202 -68q116 150 116 268q-225 58 -364.5 224t-139.5 409zM295 643 q3 -244 142 -395q136 -148 348 -148h8q209 3 333 156q121 147 121 396v16q-5 254 -139.5 419t-339.5 168h-6q-124 0 -230 -78q-110 -80 -174 -223q-63 -138 -63 -301v-10z" />
<glyph unicode="R" horiz-adv-x="1349" d="M61 0v82l146 49v1081l-146 50v90h658q219 0 348 -102t129 -273q0 -121 -59 -216t-183 -140l242 -490l133 -49v-82h-514v82l143 49l-223 455h-303v-455l146 -49v-82h-517zM432 729q0 -18 11.5 -29.5t29.5 -11.5q28 -1 54 -1q81 -1 145 9q86 12 140.5 36.5t88 62.5t47 82 t13.5 100q1 140 -121 214q-94 57 -264 57q-50 0 -107 -5q-17 -1 -27 -12.5t-10 -26.5v-475z" />
<glyph unicode="S" horiz-adv-x="1136" d="M41 459h109q9 -92 39.5 -160.5t71 -109t97 -65.5t108 -34t112.5 -10q4 0 9 -1q114 0 196 77q68 63 68 151q0 23 -5 47q-10 53 -57.5 95.5t-116 72.5t-149 58.5t-159.5 61t-145 72.5t-109 101.5t-47 138.5v15q0 64 23 123q26 66 74 116t110.5 88t134 58t142.5 22h26 q238 0 449 -104l20 -328h-114q-7 97 -42 166t-89 104q-54 34 -112 48q-51 12 -107 12h-17q-112 -5 -194 -84q-73 -70 -73 -163q0 -11 1 -23q5 -47 49.5 -83.5t112 -62.5t148.5 -52t162 -58.5t148.5 -74.5t111.5 -109t48 -152q1 -10 1 -20q0 -90 -40 -167q-44 -85 -122 -139 q-76 -55 -182 -83q-92 -25 -190 -25q-14 0 -28 1q-112 4 -232 45t-221 117z" />
<glyph unicode="T" horiz-adv-x="1132" d="M20 1042l41 310h1010l41 -310h-92q-19 64 -38.5 103t-45.5 63.5t-60.5 33t-82.5 12.5q-22 2 -48 1q-29 0 -63 -2v-4v-1118l166 -49v-82h-557v82l166 49v1118q-29 0 -79 1q-26 2 -50 2q-15 0 -29 -1q-35 -2 -61.5 -10.5t-48 -31.5t-39.5 -62.5t-37 -104.5h-93z" />
<glyph unicode="U" horiz-adv-x="1386" d="M61 1270v82h496v-82l-145 -49v-734q0 -86 27 -156t71.5 -113t100.5 -66t116 -23q55 0 106.5 13.5t98 43t81 71t54.5 101t20 129.5v734l-145 49v82h383v-82l-125 -49v-740q0 -136 -75.5 -254.5t-195 -186t-247.5 -67.5t-242 67t-184 184.5t-70 254.5v742z" />
<glyph unicode="V" horiz-adv-x="1243" d="M-20 1270v82h516v-82l-166 -49l344 -949l352 949l-164 49v82h402v-82l-125 -49l-451 -1221h-141l-451 1221z" />
<glyph unicode="W" horiz-adv-x="2088" d="M-41 1270v82h516v-82l-166 -49l371 -1031l305 807l-70 224l-96 49v82h496v-82l-166 -49l371 -1031l354 1031l-143 49v82h399v-82l-125 -49l-430 -1221h-229l-306 844l-305 -844h-229l-430 1221z" />
<glyph unicode="X" horiz-adv-x="1374" d="M0 0v86l150 45l428 508l-396 580l-133 51v82h559v-82l-149 -49l272 -404l359 402l-134 47v86h418v-86l-147 -45l-434 -492l428 -596l153 -51v-82h-579v82l149 49l-303 420l-350 -418l133 -47v-86h-424z" />
<glyph unicode="Y" horiz-adv-x="1349" d="M41 1270v82h561v-82l-166 -49l275 -482l319 482l-149 49v82h428v-82l-154 -49l-407 -607v-483l165 -49v-82h-557v82l166 49v483l-348 607z" />
<glyph unicode="Z" horiz-adv-x="1220" d="M61 0h1067l31 338h-92l-94 -236h-621l787 1112v138h-1041l-20 -348h90l86 245h633l-826 -1173v-76z" />
<glyph unicode="[" horiz-adv-x="604" d="M61 -420v1854h482v-88h-389v-1678h389v-88h-482z" />
<glyph unicode="\" horiz-adv-x="761" d="M61 1335h99l540 -1802h-92z" />
<glyph unicode="]" horiz-adv-x="604" d="M61 -332h390v1678h-390v88h482v-1854h-482v88z" />
<glyph unicode="^" horiz-adv-x="901" d="M61 631h101l289 680l286 -674h103l-334 797h-109z" />
<glyph unicode="_" horiz-adv-x="976" d="M61 -2v102h854v-102h-854z" />
<glyph unicode="`" horiz-adv-x="1228" d="M205 1296l127 97l227 -375l-47 -37z" />
<glyph unicode="a" horiz-adv-x="944" d="M47 231q0 96 72 169t191.5 111t267.5 40q0 83 -31 138.5t-81 75.5q-43 17 -91 17h-17q-58 -4 -117 -36t-104 -84l-45 55q63 91 161 148t212 57q146 0 231.5 -88.5t85.5 -264.5v-405q0 -37 30 -42q4 -1 8 -1q28 0 63 33l30 -54q-44 -64 -97.5 -96.5t-106.5 -32.5 q-62 0 -96.5 37.5t-34.5 104.5q-126 -144 -261 -144q-111 0 -190.5 74.5t-79.5 187.5zM242 242q2 -71 59 -105q36 -22 82 -22q27 -1 55 7q80 20 140 89v260q-159 -15 -249 -77q-87 -60 -87 -146v-6z" />
<glyph unicode="b" horiz-adv-x="1146" d="M20 1329v74l359 31v-654q55 65 138 104.5t177 39.5q120 0 212 -68q92 -70 136 -174q44 -102 43 -218v-5q-1 -127 -57.5 -239.5t-153 -180.5t-208.5 -68q-114 0 -191 35.5t-135 106.5l-88 -113h-78v1288zM379 203q29 -48 89 -78.5t126 -30.5q114 0 195 93t81 257 q0 63 -17 122.5t-49 109t-85.5 80t-120.5 30.5q-142 0 -219 -131v-452z" />
<glyph unicode="c" horiz-adv-x="942" d="M61 430v7q1 117 35 209q36 96 97.5 155t140.5 89.5t170 31.5h9q121 0 212 -53q95 -55 141 -164q14 -33 13 -64q-1 -37 -21 -71q-38 -62 -108 -62q-52 0 -89 35q-38 35 -38 88q0 51 47 108q-18 38 -62.5 62t-101.5 24q-94 0 -168 -92.5t-74 -243.5q0 -149 87.5 -252.5 t234.5 -103.5q144 0 272 119l43 -45q-95 -120 -207.5 -180t-224.5 -60q-100 0 -186.5 45.5t-141.5 128.5q-80 119 -80 289z" />
<glyph unicode="d" horiz-adv-x="1122" d="M61 440v11q0 203 110 335q113 136 316 136q173 0 279 -142v516l-154 41v68l359 33v-1276q0 -37 30 -42q4 -1 7 -1q27 0 63 33l31 -54q-47 -68 -94 -98.5t-111 -30.5q-61 0 -96 39t-35 105q-120 -142 -276 -142h-7q-190 3 -304.5 133t-117.5 336zM266 471v-7 q0 -80 20 -150q22 -74 73 -130t124 -73q31 -7 62 -7q53 0 103 22q78 35 118 89v451q-40 66 -118 112q-59 35 -127 34q-21 0 -42 -3q-65 -10 -114.5 -61.5t-73.5 -122.5t-25 -154z" />
<glyph unicode="e" horiz-adv-x="968" d="M66 512q10 82 41.5 154t83.5 130.5t131.5 92t177.5 33.5q90 0 162 -23t127.5 -70.5t86 -127.5t31.5 -189h-635q0 -183 71 -288t212 -105q82 0 163.5 37t137.5 98l45 -47q-74 -116 -195.5 -180t-236.5 -64q-93 0 -178 41.5t-139 114.5q-54 75 -77 180q-14 65 -14 132 q0 40 5 81zM276 604h383q0 104 -50 169t-134 65q-79 0 -139 -67t-60 -167z" />
<glyph unicode="f" horiz-adv-x="665" d="M20 799h144v-686l-135 -52v-61h534v61l-194 52v686h235v92h-235v43q0 144 17 232q21 100 59 138.5t102 43.5q-16 -38 -16 -71q0 -39 22 -71q41 -59 111 -61q68 0 105 53q20 29 20 64q0 29 -13 61q-43 102 -217 102q-89 0 -161.5 -31.5t-126.5 -94.5t-82 -167 q-25 -94 -25 -215v-26h-144v-92z" />
<glyph unicode="g" horiz-adv-x="968" d="M37 -324v8q0 58 41 104q43 49 121 69q-39 11 -71.5 41t-46.5 74q-9 28 -9 57q0 16 2 33q8 46 54 96.5t128 89.5q-83 37 -136.5 114.5t-53.5 192.5q0 165 107 266t290 101q65 0 160 -31l299 12v-117l-164 19q110 -114 110 -244q0 -72 -24 -131t-63 -97t-90.5 -66.5 t-107.5 -38t-113 -12.5h-18q-47 0 -90 11q-106 -50 -116 -109q-1 -5 -1 -10q0 -36 39 -54q18 -9 42 -11q25 -2 79 -2q46 0 112 1q56 1 100 1q70 0 108 -2q107 -7 161 -59q52 -51 52 -130v-6q-2 -63 -34.5 -124.5t-93.5 -114.5t-163 -86t-227 -33q-181 0 -280.5 49.5 t-102.5 138.5zM213 -272q0 -69 68 -114q58 -39 165 -39q19 0 39 1q138 8 216 62.5t85 117.5v8q0 31 -21 52q-24 24 -77 28q-54 4 -210.5 4h-188.5q-36 -17 -57 -50q-19 -30 -19 -64v-6zM272 573q5 -125 55.5 -199t139.5 -75h2q84 0 135 81q49 78 49 194v14q-4 122 -57 189 q-50 65 -130 65h-5q-85 -2 -139 -74q-50 -66 -50 -178v-17z" />
<glyph unicode="h" horiz-adv-x="1122" d="M20 1333v68l359 33v-654q74 69 146.5 105.5t160.5 36.5q112 0 199.5 -85.5t87.5 -211.5v-512l98 -47v-66h-395v66l92 47v448q0 79 -30.5 131t-77.5 70q-38 15 -82 14h-18q-53 -4 -102 -31t-79 -69v-563l92 -47v-66h-393v66l96 47v1179z" />
<glyph unicode="i" horiz-adv-x="575" d="M51 827v64l338 31v-809l135 -52v-61h-469v61l129 52v667zM133 1270q0 62 40.5 102.5t102.5 40.5t103 -41t41 -102q0 -62 -41 -103t-103 -41q-61 0 -102 41t-41 103z" />
<glyph unicode="j" horiz-adv-x="509" d="M-184 -367q1 -60 44 -91t105 -31h7q62 0 128 34q71 36 130.5 98.5t98 157t38.5 199.5v922l-338 -31v-64l133 -45v-807q0 -18 3 -58.5t5 -72.5q1 -12 1 -25q0 -22 -3 -49q-3 -41 -14 -71t-37 -57t-66 -39q12 25 12 49q0 32 -21 64q-36 51 -87 51h-6q-54 -2 -93.5 -38 t-39.5 -96zM100 1270q0 61 41 102t103 41t102.5 -40.5t40.5 -102.5t-41 -103t-102 -41q-62 0 -103 41t-41 103z" />
<glyph unicode="k" horiz-adv-x="1079" d="M20 1333v68l359 33v-940l328 254q25 20 15 41t-54 36v66h368v-66q-91 -11 -170 -73l-221 -179l295 -438q40 -58 129 -74v-61h-293l-299 451l-98 -84v-254l92 -52v-61h-420v61l123 52v1179z" />
<glyph unicode="l" horiz-adv-x="544" d="M20 1333v68l359 33v-1323l125 -45v-66h-453v66l123 45v1181z" />
<glyph unicode="m" horiz-adv-x="1714" d="M41 834v61l332 27v-142q56 64 140.5 103t176.5 39q84 0 161.5 -40.5t106.5 -101.5q62 64 143 103t169 39q128 0 209.5 -78t81.5 -219v-514l122 -45v-66h-440v66l113 45v483q0 69 -38 119q-40 50 -96 67q-23 7 -49 7q-35 0 -77 -14q-70 -24 -129 -91v-571l123 -45v-66 h-441v66l113 45v493q0 58 -27 100.5t-71 60.5q-43 18 -92 18q0 -1 -2 -1q-50 0 -103.5 -27.5t-93.5 -76.5v-567l112 -45v-66h-440v66l123 45v686z" />
<glyph unicode="n" horiz-adv-x="1134" d="M41 0v66l127 45v671l-127 45v64l332 31v-142q55 62 137 102t160 40q127 0 212 -89t85 -241v-481l127 -45v-66h-445v66l113 45v493q0 65 -42 110.5t-101 59.5q-22 5 -45 4q-40 0 -83 -14q-69 -23 -118 -84v-569l112 -45v-66h-444z" />
<glyph unicode="o" horiz-adv-x="1103" d="M61 440q0 207 142 344.5t348 137.5q134 0 245.5 -58.5t178.5 -168.5t67 -251q0 -97 -31.5 -178t-82.5 -135t-117 -91q-65 -38 -133 -54q-64 -15 -125 -15h-8q-68 1 -135 18.5t-130.5 55t-112 91t-77.5 132t-29 172.5zM285 418q10 -174 87 -258q73 -80 186 -80h13 q119 5 187 101q60 85 60 232q0 19 -1 40q-10 181 -92 278q-78 92 -191 92h-12q-118 -5 -184 -109q-55 -86 -55 -235q0 -29 2 -61z" />
<glyph unicode="p" horiz-adv-x="1161" d="M31 -451l123 62v1169l-123 49v62l327 31v-142q59 72 148 110q86 36 180 36h10q173 -3 288.5 -132.5t115.5 -357.5q0 -105 -40 -196t-103.5 -149.5t-140 -92t-152.5 -33.5q-85 0 -166.5 26.5t-139.5 67.5v-448l144 -62v-61h-471v61zM360 244q45 -91 108 -136 q61 -42 128 -42h6q112 3 195 110q80 104 80 262v11q-1 77 -25 143.5t-62 112t-90 71.5q-51 25 -106 25q-1 0 -2 -1q-56 0 -117 -31t-115 -93v-432z" />
<glyph unicode="q" horiz-adv-x="1120" d="M31 440q0 112 40.5 204.5t105 150.5t147.5 89q81 32 161 32h3q82 -1 159 -35t129 -99l113 140h78v-1321l133 -52v-61h-471v59l133 52v514q-63 -72 -143.5 -106t-159.5 -36h-5q-78 0 -154 33q-77 34 -136.5 94.5t-96 150t-36.5 191.5zM241 458q3 -81 28 -151.5 t76.5 -124.5t119.5 -71q36 -9 69 -9q129 0 228 127v439q-50 73 -129 116q-51 28 -111 28q-34 0 -71 -9q-71 -16 -121 -70t-71 -124q-18 -61 -18 -131v-20z" />
<glyph unicode="r" horiz-adv-x="757" d="M31 0v68l123 45v682l-123 36v60l327 31v-172q118 172 242 172q68 0 104 -41q34 -38 34 -86v-7q-2 -52 -36 -83q-27 -26 -67 -37q-15 -4 -31 -4q-26 0 -50 10q-40 18 -56 69q-90 0 -140 -90v-540l185 -45v-68h-512z" />
<glyph unicode="s" horiz-adv-x="786" d="M68 586q-7 33 -7 63q1 63 31 115q46 78 130.5 118t187.5 40q164 0 262 -48l18 -215h-74q-19 106 -74.5 143.5t-144.5 37.5q-63 0 -105 -49q-31 -37 -31 -79q0 -14 3 -30q7 -32 53.5 -60.5t109 -53.5t125 -55.5t111 -80t58.5 -113.5q4 -24 4 -48q0 -49 -17 -93 q-25 -66 -74.5 -111.5t-114 -71.5t-130.5 -26q-189 0 -297 64l-20 219h71q40 -197 217 -201h6q70 0 113 46q34 37 34 94q0 18 -3 38q-7 37 -40 67t-77.5 49t-97.5 42.5t-99 47t-81.5 63t-46.5 88.5z" />
<glyph unicode="t" horiz-adv-x="696" d="M20 799v92q35 3 63 10t51 22.5t38 27t32.5 38.5t25.5 40.5t26 48.5t25 48h88v-235h276v-92h-276v-549q-1 -69 38 -112t102.5 -43t143.5 52l23 -55q-57 -60 -145 -92q-77 -28 -149 -28h-20q-81 4 -139.5 54t-58.5 138v635h-144z" />
<glyph unicode="u" horiz-adv-x="1105" d="M20 825v66l330 31v-635q0 -72 42 -116q42 -43 101 -51q12 -2 25 -2q48 0 102 22q68 28 119 91v551l-131 45v66l336 29v-760q0 -37 30 -42q4 -1 7 -1q27 0 63 33l31 -54q-47 -68 -94 -98.5t-111 -30.5q-62 0 -96.5 37.5t-34.5 104.5q-34 -33 -45 -43t-44 -35.5t-57.5 -35 t-64.5 -19t-86 -9.5q-297 0 -297 330v483z" />
<glyph unicode="v" horiz-adv-x="978" d="M0 827v64h455v-64l-138 -47l230 -522l227 524l-137 45v64h342v-64l-90 -45l-367 -782l-69 -31l-361 813z" />
<glyph unicode="w" horiz-adv-x="1433" d="M0 827l82 -45l348 -813l66 31l223 598l252 -629l65 31l316 782l82 45v64h-314v-64l125 -45l-207 -503l-250 614h-59l-225 -602l-213 489l127 47v64h-418v-64z" />
<glyph unicode="x" horiz-adv-x="1040" d="M0 825v66h494v-64l-119 -47l172 -219l190 219l-102 47v64h369v-64l-125 -47l-267 -301l289 -366l139 -47v-66h-516v66l119 47l-166 215l-188 -215l121 -47v-66h-390v66l136 47l258 297l-285 370z" />
<glyph unicode="y" horiz-adv-x="1015" d="M0 -379q3 -63 52.5 -98t117.5 -35q106 0 180.5 53.5t114.5 147.5l463 1093l88 45v64h-338v-64l137 -45l-217 -530l-248 530l115 45v64h-465v-64l121 -45l364 -782l-118 -287q-23 -54 -62.5 -91t-83.5 -48q23 21 25.5 53t-11.5 60t-43.5 48.5t-66.5 20.5q-59 0 -93 -39 q-32 -36 -32 -87v-9z" />
<glyph unicode="z" horiz-adv-x="788" d="M20 0h695l20 301h-80l-61 -199h-322l465 703v86h-692l-20 -266h75l66 163h319l-465 -702v-86z" />
<glyph unicode="{" horiz-adv-x="782" d="M61 467v72q104 0 184.5 42.5t92.5 110.5q10 56 -14.5 118t-68.5 142.5t-62 141.5q-13 48 -10 94.5t27 86.5t58.5 72.5t85.5 53.5t107.5 29t124 -1t135.5 -36l-21 -56q-122 37 -197.5 2.5t-105 -106.5t-4.5 -141q12 -32 37.5 -72.5t48 -72t44.5 -76.5t27 -84.5t-5 -96.5 q-13 -52 -38 -87t-63.5 -53.5t-68.5 -26.5t-79 -17q-16 -3 -24 -4q51 -6 85.5 -14t76 -26.5t69.5 -55.5t42 -91q13 -40 7.5 -81.5t-17 -72.5t-32.5 -65.5t-40.5 -61.5t-39.5 -60t-30 -60q-26 -70 -1 -141.5t96 -107t192 2.5l20 -55q-79 -31 -155.5 -38.5t-136.5 8t-110 46.5 t-77 76t-37.5 97t9.5 110q18 61 62 141t68.5 142t14.5 118q-12 68 -93 111t-184 43z" />
<glyph unicode="|" horiz-adv-x="215" d="M61 -365v1803h93v-1803h-93z" />
<glyph unicode="}" horiz-adv-x="782" d="M61 1393q68 27 135.5 36t124 1t107.5 -29t86 -53.5t59 -72.5t27 -86.5t-10 -94.5q-18 -61 -62.5 -141.5t-69 -142.5t-14.5 -118q12 -68 92.5 -110.5t184.5 -42.5v-72q-103 0 -184 -43t-93 -111q-8 -44 7 -94.5t38.5 -92t54.5 -102.5t46 -112q26 -84 -4 -161t-101.5 -122 t-175.5 -55.5t-227 39.5l20 55q60 -21 108 -19.5t84 17.5t60 44.5t36 62.5t11.5 71t-12.5 70q-10 27 -30 60t-39 60t-40 61.5t-33 65.5t-17 72.5t8 81.5q11 44 33 76.5t46.5 51.5t60.5 32t64 18t68 9q-8 1 -24 4q-107 19 -152 46q-72 43 -96 138q-10 57 -5.5 96.5t27 84.5 t44.5 76.5t47.5 72t37.5 72.5q25 69 -4.5 141t-105 106.5t-197.5 -2.5z" />
<glyph unicode="~" horiz-adv-x="901" d="M61 571l54 -28q1 67 35 108t86 43q39 0 77 -19t70 -46.5t64.5 -55t73 -46.5t83.5 -19q101 0 168 78.5t68 224.5l-52 35q-11 -81 -46.5 -119.5t-84.5 -36.5q-40 0 -76 18t-65.5 44t-61 52t-75 44t-94.5 18q-88 0 -156 -77t-68 -218z" />
<glyph unicode="&#xa1;" horiz-adv-x="409" d="M61 1147q0 61 41 102t103 41q61 0 102 -41t41 -102t-41 -102t-102 -41q-62 0 -103 41t-41 102zM94 -31l66 908h82l67 -908h-215z" />
<glyph unicode="&#xa2;" horiz-adv-x="962" d="M61 430q-1 112 32.5 203.5t90.5 150t126.5 93t148.5 43.5v432h82v-430q111 -6 196.5 -61t128.5 -156q31 -74 -7.5 -135.5t-108.5 -61.5q-52 0 -89 35t-37.5 86.5t46.5 109.5q-14 31 -48.5 54t-80.5 30v-688q14 -2 45 -2q144 0 272 119l43 -45q-158 -201 -360 -234v-415 h-82v409q-98 3 -181.5 48t-136.5 126q-80 119 -80 289zM264 489q0 -111 51.5 -201.5t143.5 -129.5v661q-81 -23 -138 -111t-57 -219z" />
<glyph unicode="&#xa3;" horiz-adv-x="1167" d="M61 23l21 61q40 -37 84 -37q98 0 150.5 155t52.5 453h-123v93h123q-2 151 17.5 269.5t56 196t90 128t114 71.5t133.5 21q103 0 157 -46t54 -108q0 -61 -36 -95t-87 -36q-68 -2 -107.5 52t-8.5 147q-75 -5 -112 -50.5t-53.5 -172t-13.5 -377.5h215v-93h-215 q0 -293 -65 -462q61 36 117.5 36.5t91.5 -18.5t80.5 -46.5t74.5 -35.5q59 -14 104.5 39t72.5 145l57 -39q-1 -97 -44.5 -171.5t-110.5 -106.5t-136 -16q-48 12 -93 37t-71.5 48t-58.5 45t-55 26.5t-60 -7.5q-90 -158 -264 -158q-103 0 -152 52z" />
<glyph unicode="&#xa4;" horiz-adv-x="1126" d="M61 727q0 174 105 301l-84 84l74 74l86 -88q132 92 311 92q174 0 315 -103l93 91l73 -72l-90 -88q121 -137 121 -307q0 -199 -115 -326l76 -76l-74 -69l-80 79q-125 -83 -315 -83q-185 0 -311 94l-82 -82l-74 71l82 80q-111 129 -111 328zM231 721q0 -165 94 -267 t238 -102q84 0 157 39.5t121 119.5t48 185q0 147 -100.5 260t-233.5 113q-139 0 -231.5 -99.5t-92.5 -248.5z" />
<glyph unicode="&#xa5;" horiz-adv-x="1472" d="M41 1270v82h561v-82l-166 -49l275 -482l319 482l-149 49v82h428v-82l-154 -49l-350 -521h196v-82h-251l-2 -4v-98h253v-82h-253v-303l165 -49v-82h-557v82l166 49v303h-233v82h233v98l-2 4h-231v82h184l-299 521z" />
<glyph unicode="&#xa6;" horiz-adv-x="1392" />
<glyph unicode="&#xa7;" horiz-adv-x="1329" d="M217 373q-19 119 50.5 210t181.5 126q-140 97 -181 225q-36 111 13 208.5t160 153.5t251 56q144 0 324 -88l18 -215h-73q-10 55 -40.5 99t-72 69.5t-85 39t-83.5 13.5q-65 0 -119 -29.5t-78 -83t2 -127.5q23 -61 89.5 -117.5t145.5 -100.5t156 -89.5t134 -102.5t67 -120 q19 -119 -50 -210t-181 -126q138 -96 180 -225q36 -111 -13 -208.5t-160 -153.5t-251 -56q-143 0 -323 88l-19 215h74q19 -106 105 -163.5t175 -57.5q65 0 119 29.5t78 82.5t-2 127q-23 61 -89.5 117.5t-145.5 101t-156 89.5t-134 102.5t-67 120.5zM428 463q5 -25 23 -48 t53.5 -47t66 -42t84.5 -47t86 -48q64 8 101 55.5t24 123.5q-5 25 -23 48t-53 46.5t-66 41.5t-85 47t-86 48q-64 -8 -101 -55t-24 -123z" />
<glyph unicode="&#xa8;" horiz-adv-x="880" d="M164 1251q0 44 28.5 72.5t71.5 28.5t73 -28.5t30 -72.5q0 -42 -30 -71t-73 -29t-71.5 28.5t-28.5 71.5zM514 1251q0 44 28.5 72.5t71.5 28.5t73 -28.5t30 -72.5q0 -42 -30 -71t-73 -29t-71.5 28.5t-28.5 71.5z" />
<glyph unicode="&#xa9;" horiz-adv-x="1818" d="M61 627q0 173 67 330t180.5 270.5t270.5 180.5t330 67t330 -67t270.5 -180.5t180.5 -270.5t67 -330t-67 -330t-180.5 -270.5t-270.5 -180.5t-330 -67t-330 67t-270.5 180.5t-180.5 270.5t-67 330zM152 627q0 -154 60 -294.5t161.5 -242t241.5 -161.5t294 -60t294.5 60 t242 161.5t161.5 242t60 294.5t-60 294.5t-161.5 242t-242 162t-294.5 60.5q-206 0 -380 -102t-275.5 -276.5t-101.5 -380.5zM430 618q0 105 29.5 190.5t79 141.5t117.5 94t141.5 54.5t154.5 15.5q93 -2 192 -25t161 -59l14 -235h-84q-16 217 -293 217q-67 1 -126 -23.5 t-104.5 -72.5t-71 -127.5t-24.5 -180.5q1 -114 52.5 -196.5t130.5 -120.5t174 -37q115 0 179.5 44t74.5 151h80l-11 -240q-21 -4 -78 -16.5t-93 -20t-89.5 -14t-97.5 -6.5q-74 -1 -143.5 13t-137 48.5t-117 87t-80 134t-30.5 183.5z" />
<glyph unicode="&#xab;" horiz-adv-x="937" d="M61 387l426 -317v190l-303 201l305 201v188l-428 -313v-150zM449 387l425 -317v190l-303 201l306 201v188l-428 -313v-150z" />
<glyph unicode="&#xac;" horiz-adv-x="813" d="M61 643v102h691v-303h-107v201h-584z" />
<glyph unicode="&#xad;" horiz-adv-x="628" d="M61 522v103h506v-103h-506z" />
<glyph unicode="&#xae;" horiz-adv-x="1818" d="M61 627q0 173 67 330t180.5 270.5t270.5 180.5t330 67t330 -67t270.5 -180.5t180.5 -270.5t67 -330t-67 -330t-180.5 -270.5t-270.5 -180.5t-330 -67t-330 67t-270.5 180.5t-180.5 270.5t-67 330zM152 627q0 -154 60 -294.5t161.5 -242t241.5 -161.5t294 -60t294.5 60 t242 161.5t161.5 242t60 294.5t-60 294.5t-161.5 242t-242 162t-294.5 60.5q-206 0 -380 -102t-275.5 -276.5t-101.5 -380.5zM520 184v54l92 30v748l-92 31v57h422q139 0 229.5 -72t90.5 -182q0 -92 -43 -158t-127 -96l155 -328l86 -30v-54h-356v54l92 30l-143 305h-142 v-305l93 -30v-54h-357zM784 655q87 -4 145.5 8t88.5 40.5t41.5 63t11.5 83.5q0 88 -70.5 140t-216.5 36v-371z" />
<glyph unicode="&#xaf;" horiz-adv-x="1044" d="M205 1249v103h649v-103h-649z" />
<glyph unicode="&#xb0;" horiz-adv-x="528" d="M61 1231q0 85 59 144t144 59t144 -59t59 -144t-59 -144t-144 -59t-144 59t-59 144zM143 1231q0 -50 35 -85.5t86 -35.5q49 0 84 35.5t35 85.5q0 48 -35 83.5t-84 35.5q-50 0 -85.5 -35.5t-35.5 -83.5z" />
<glyph unicode="&#xb1;" horiz-adv-x="935" d="M61 0v102h813v-102h-813zM61 604v103h357v315h102v-315h354v-103h-354v-313h-102v313h-357z" />
<glyph unicode="&#xb4;" horiz-adv-x="874" d="M451 1018l227 375l127 -97l-307 -315z" />
<glyph unicode="&#xb6;" horiz-adv-x="870" d="M61 1094q0 147 100.5 245.5t248.5 98.5h399v-1659h-92v1556h-215v-1556h-92v969q-148 0 -248.5 99.5t-100.5 246.5z" />
<glyph unicode="&#xb7;" horiz-adv-x="409" d="M61 520q0 62 41.5 103t102.5 41t102 -41t41 -103t-41 -102.5t-102 -40.5q-62 0 -103 41t-41 102z" />
<glyph unicode="&#xb8;" horiz-adv-x="1228" d="M389 -471l21 53q136 -38 213 1t77 116q0 46 -35 78.5t-89 28t-99 -57.5l-74 27l121 245l84 -20l-88 -168q44 50 115 54.5t126.5 -41.5t55.5 -126q0 -67 -36.5 -119t-95.5 -78.5t-138 -25.5t-158 33z" />
<glyph unicode="&#xbb;" horiz-adv-x="937" d="M61 662l306 -201l-304 -201v-190l426 317v150l-428 313v-188zM449 662l305 -201l-303 -201v-190l426 317v150l-428 313v-188z" />
<glyph unicode="&#xbc;" horiz-adv-x="1546" d="M66 1163v125l260 146h80v-668l126 -49v-62h-464v62l143 49v459zM242 -4l1001 1438h109l-1008 -1438h-102zM778 193v53l346 502l197 71v-545h133v-81h-133v-189h-195v189h-348zM897 274h229v340z" />
<glyph unicode="&#xbd;" horiz-adv-x="1433" d="M66 1163v125l260 146h80v-668l126 -49v-62h-464v62l143 49v459zM145 -4l1002 1438h108l-1007 -1438h-103zM807 0v127q367 209 367 428q0 65 -40.5 102.5t-89.5 38t-92 -34t-47 -96.5h-74q3 105 76.5 169.5t188.5 64.5q130 0 203 -69t73 -175q0 -231 -411 -418h262 q59 0 106 144h74l-41 -281h-555z" />
<glyph unicode="&#xbe;" horiz-adv-x="1628" d="M121 731q-29 72 29 104q49 28 113 9q66 -20 80 -74q8 -34 -9 -76q201 -23 201 156q0 73 -71 116t-212 29l-29 45q279 42 279 197q0 58 -32.5 88t-75.5 27.5t-87 -29.5t-65 -72l-64 21q37 89 112 136.5t165 45.5q104 -2 169.5 -48t69.5 -132q3 -65 -46.5 -116t-155.5 -81 q97 0 172 -66t75 -149q0 -105 -80.5 -167.5t-242.5 -65.5q-37 -1 -78 3t-87 14t-82 32t-48 53zM383 -4l1001 1438h109l-1008 -1438h-102zM901 193v53l346 502l197 71v-545h133v-81h-133v-189h-195v189h-348zM1020 274h229v340z" />
<glyph unicode="&#xbf;" horiz-adv-x="880" d="M61 -92q0 111 64.5 196t193.5 160q118 69 140 85q60 46 55 98q-5 41 -45 102h84q46 -53 63 -110t4.5 -118t-71 -123.5t-160.5 -117.5q-258 -141 -143 -344q31 -56 105 -81t150 -4t107 87q-37 44 -34.5 88.5t39 78.5t85.5 34q38 0 69.5 -17.5t46.5 -48t14 -67.5 t-31.5 -81.5t-87.5 -84.5q-116 -82 -279 -80q-149 3 -259 109.5t-110 238.5zM385 788q0 62 41 103t102 41q62 0 103 -41t41 -103q0 -61 -41 -102t-103 -41t-102.5 40.5t-40.5 102.5z" />
<glyph unicode="&#xc0;" horiz-adv-x="1267" d="M-20 0v82l120 49l471 1221h129l471 -1221l117 -49v-82h-500v82l146 49l-141 340h-457l-123 -340l143 -49v-82h-376zM373 573h383l-183 498zM453 1745l127 96l227 -375l-47 -36z" />
<glyph unicode="&#xc1;" horiz-adv-x="1267" d="M-20 0v82l120 49l471 1221h129l471 -1221l117 -49v-82h-500v82l146 49l-141 340h-457l-123 -340l143 -49v-82h-376zM373 573h383l-183 498zM616 1413l228 375l127 -96l-307 -316z" />
<glyph unicode="&#xc2;" horiz-adv-x="1267" d="M-20 0v82l120 49l471 1221h129l471 -1221l117 -49v-82h-500v82l146 49l-141 340h-457l-123 -340l143 -49v-82h-376zM373 573h383l-183 498zM410 1538l229 315h102l230 -315l-47 -41l-234 205l-233 -205z" />
<glyph unicode="&#xc3;" horiz-adv-x="1267" d="M-20 0v82l120 49l471 1221h129l471 -1221l117 -49v-82h-500v82l146 49l-141 340h-457l-123 -340l143 -49v-82h-376zM362 1511l54 -28q1 67 35.5 109t85.5 42q34 0 78 -22.5t80.5 -50t83.5 -50t85 -22.5q97 0 155.5 74.5t59.5 208.5l-51 34q-11 -91 -44 -123t-87 -32 q-34 0 -72.5 21t-68.5 46.5t-76 46.5t-94 21q-87 0 -155.5 -74t-68.5 -201zM373 573h383l-183 498z" />
<glyph unicode="&#xc4;" horiz-adv-x="1267" d="M-20 0v82l120 49l471 1221h129l471 -1221l117 -49v-82h-500v82l146 49l-141 340h-457l-123 -340l143 -49v-82h-376zM373 573h383l-183 498zM428 1618q0 44 28.5 72t71.5 28t73 -28t30 -72q0 -42 -30 -71t-73 -29t-71.5 28.5t-28.5 71.5zM778 1618q0 44 29 72t72 28 t72.5 -28t29.5 -72q0 -43 -29.5 -71.5t-72.5 -28.5t-72 28.5t-29 71.5z" />
<glyph unicode="&#xc5;" horiz-adv-x="1267" d="M-20 0v82l120 49l471 1221h129l471 -1221l117 -49v-82h-500v82l146 49l-141 340h-457l-123 -340l143 -49v-82h-376zM373 573h383l-183 498zM494 1671q0 85 58.5 144t143.5 59t144 -59t59 -144t-59 -144t-144 -59t-143.5 59t-58.5 144zM575 1671q0 -50 35 -85.5t86 -35.5 q49 0 84 35.5t35 85.5q0 48 -35 83.5t-84 35.5q-50 0 -85.5 -35.5t-35.5 -83.5z" />
<glyph unicode="&#xc6;" horiz-adv-x="2527" d="M-20 0v82l120 49l471 1221h129l471 -1221l117 -49v-82h-500v82l146 49l-141 340h-457l-123 -340l143 -49v-82h-376zM373 573h383l-183 498zM1329 0v84l146 49v1084l-146 49v86h1137l20 -318h-112l-52 187q-9 28 -36 28h-545q-17 0 -29 -12t-12 -29v-428q0 -17 12 -29 t29 -12h416l49 131h92v-356h-94l-47 123h-416q-17 0 -29 -12t-12 -29v-453q0 -17 12 -29t29 -12h545q26 0 36 29l52 186h112l-20 -317h-1137z" />
<glyph unicode="&#xc7;" horiz-adv-x="1419" d="M61 649q0 153 43 277.5t116 207t172 137.5t207 78.5t226 22.5q134 -2 278.5 -34.5t233.5 -84.5l21 -348h-119q-14 173 -132 261.5t-298 88.5q-98 2 -188 -38.5t-161 -116t-112.5 -196.5t-40.5 -269q1 -101 32.5 -189.5t84.5 -153.5t122.5 -111.5t148 -69t159.5 -21.5 q163 0 259.5 76t111.5 235h118l-20 -348q-10 -2 -87 -20.5t-109 -24.5t-96.5 -18t-118.5 -17t-107 -6q-107 -1 -209 19.5t-200.5 72t-171.5 127.5t-118 195.5t-45 267.5zM532 -479l21 53q136 -38 213.5 1t77.5 116q0 46 -35 78.5t-89 28t-99 -57.5l-74 27l121 245l84 -20 l-88 -168q44 50 115 54.5t126.5 -41.5t55.5 -126q0 -67 -37 -119t-96 -78.5t-138 -25.5t-158 33z" />
<glyph unicode="&#xc8;" horiz-adv-x="1259" d="M61 0v84l146 49v1084l-146 49v86h1137l21 -318h-113l-51 187q-9 28 -37 28h-545q-17 0 -29 -12t-12 -29v-428q0 -17 12 -29t29 -12h416l49 131h92v-356h-94l-47 123h-416q-17 0 -29 -12t-12 -29v-453q0 -17 12 -29t29 -12h545q27 0 37 29l51 186h113l-21 -317h-1137z M276 1757l127 96l228 -374l-47 -37z" />
<glyph unicode="&#xc9;" horiz-adv-x="1259" d="M61 0v84l146 49v1084l-146 49v86h1137l21 -318h-113l-51 187q-9 28 -37 28h-545q-17 0 -29 -12t-12 -29v-428q0 -17 12 -29t29 -12h416l49 131h92v-356h-94l-47 123h-416q-17 0 -29 -12t-12 -29v-453q0 -17 12 -29t29 -12h545q27 0 37 29l51 186h113l-21 -317h-1137z M612 1493l228 375l127 -96l-308 -316z" />
<glyph unicode="&#xca;" horiz-adv-x="1259" d="M61 0v84l146 49v1084l-146 49v86h1137l21 -318h-113l-51 187q-9 28 -37 28h-545q-17 0 -29 -12t-12 -29v-428q0 -17 12 -29t29 -12h416l49 131h92v-356h-94l-47 123h-416q-17 0 -29 -12t-12 -29v-453q0 -17 12 -29t29 -12h545q27 0 37 29l51 186h113l-21 -317h-1137z M369 1530l229 315h102l230 -315l-47 -41l-234 205l-233 -205z" />
<glyph unicode="&#xcb;" horiz-adv-x="1259" d="M61 0v84l146 49v1084l-146 49v86h1137l21 -318h-113l-51 187q-9 28 -37 28h-545q-17 0 -29 -12t-12 -29v-428q0 -17 12 -29t29 -12h416l49 131h92v-356h-94l-47 123h-416q-17 0 -29 -12t-12 -29v-453q0 -17 12 -29t29 -12h545q27 0 37 29l51 186h113l-21 -317h-1137z M377 1610q0 44 28.5 72t71.5 28t73 -28t30 -72q0 -43 -30 -72t-73 -29t-71.5 29t-28.5 72zM727 1610q0 44 28.5 72t71.5 28t73 -28t30 -72q0 -43 -30 -72t-73 -29t-71.5 29t-28.5 72z" />
<glyph unicode="&#xcc;" horiz-adv-x="659" d="M43 1778l127 96l227 -375l-47 -37zM61 0v82l146 49v1090l-146 49v82h517v-82l-146 -49v-1090l146 -49v-82h-517z" />
<glyph unicode="&#xcd;" horiz-adv-x="659" d="M61 0v82l146 49v1090l-146 49v82h517v-82l-146 -49v-1090l146 -49v-82h-517zM305 1483l227 375l127 -97l-307 -315z" />
<glyph unicode="&#xce;" horiz-adv-x="659" d="M61 0v82l146 49v1090l-146 49v82h517v-82l-146 -49v-1090l146 -49v-82h-517zM61 1524l230 315h102l230 -315l-48 -41l-233 205l-233 -205z" />
<glyph unicode="&#xcf;" horiz-adv-x="659" d="M61 0v82l146 49v1090l-146 49v82h517v-82l-146 -49v-1090l146 -49v-82h-517zM74 1606q0 44 28.5 72t71.5 28t72.5 -28t29.5 -72q0 -43 -29.5 -72t-72.5 -29t-71.5 29t-28.5 72zM424 1606q0 44 28.5 72t71.5 28t73 -28t30 -72q0 -43 -30 -72t-73 -29t-71.5 29t-28.5 72z " />
<glyph unicode="&#xd0;" horiz-adv-x="1542" d="M61 1260v92h656q118 1 222.5 -25t193 -80.5t152.5 -133.5t99.5 -191.5t34.5 -247.5q-3 -674 -676 -674h-680v88l162 49v1073zM174 645v103h506v-103h-506zM451 141q0 -18 10.5 -29.5t27.5 -11.5q88 -2 159.5 2.5t142.5 19t125 41t101.5 69t78 100.5t48.5 139t19 182 q1 148 -28.5 254.5t-84 173.5t-144 105t-195 51t-250.5 10q-10 0 -10 -41v-1065z" />
<glyph unicode="&#xd1;" horiz-adv-x="1429" d="M61 0h414v82l-166 49v952l768 -1083h146v1221l145 49v82h-399v-84l141 -51v-883l-713 1018h-336v-82l146 -49v-1090l-146 -49v-82zM354 1505l54 -28q1 67 35 109t85 42q34 0 78 -22.5t81 -50t84 -50t85 -22.5q97 0 155.5 74t59.5 208l-51 35q-11 -91 -44 -123t-87 -32 q-34 0 -72.5 21t-68.5 46.5t-76 46.5t-94 21q-87 0 -155.5 -74t-68.5 -201z" />
<glyph unicode="&#xd2;" d="M61 649q0 162 51.5 299t142 230.5t215.5 146t269 53.5q203 1 368.5 -87t260.5 -246.5t94 -354.5q-1 -229 -90 -393t-244.5 -246t-361.5 -82q-112 0 -215.5 27t-193 83t-155.5 135.5t-103.5 191t-37.5 243.5zM315 655q3 -260 132.5 -413t345.5 -150q183 3 300 160.5 t113 427.5q-4 265 -124.5 418.5t-313.5 156.5q-209 3 -332.5 -161t-120.5 -439zM553 1755l127 96l227 -374l-47 -37z" />
<glyph unicode="&#xd3;" d="M61 649q0 162 51.5 299t142 230.5t215.5 146t269 53.5q203 1 368.5 -87t260.5 -246.5t94 -354.5q-1 -229 -90 -393t-244.5 -246t-361.5 -82q-112 0 -215.5 27t-193 83t-155.5 135.5t-103.5 191t-37.5 243.5zM315 655q3 -260 132.5 -413t345.5 -150q183 3 300 160.5 t113 427.5q-4 265 -124.5 418.5t-313.5 156.5q-209 3 -332.5 -161t-120.5 -439zM664 1456l227 375l127 -96l-307 -316z" />
<glyph unicode="&#xd4;" d="M61 649q0 162 51.5 299t142 230.5t215.5 146t269 53.5q203 1 368.5 -87t260.5 -246.5t94 -354.5q-1 -229 -90 -393t-244.5 -246t-361.5 -82q-112 0 -215.5 27t-193 83t-155.5 135.5t-103.5 191t-37.5 243.5zM315 655q3 -260 132.5 -413t345.5 -150q183 3 300 160.5 t113 427.5q-4 265 -124.5 418.5t-313.5 156.5q-209 3 -332.5 -161t-120.5 -439zM506 1526l229 315h103l229 -315l-47 -41l-234 205l-233 -205z" />
<glyph unicode="&#xd5;" d="M61 649q0 162 51.5 299t142 230.5t215.5 146t269 53.5q203 1 368.5 -87t260.5 -246.5t94 -354.5q-1 -229 -90 -393t-244.5 -246t-361.5 -82q-112 0 -215.5 27t-193 83t-155.5 135.5t-103.5 191t-37.5 243.5zM315 655q3 -260 132.5 -413t345.5 -150q183 3 300 160.5 t113 427.5q-4 265 -124.5 418.5t-313.5 156.5q-209 3 -332.5 -161t-120.5 -439zM426 1511l53 -28q1 67 35.5 109t85.5 42q34 0 78 -22.5t81 -50t84 -50t85 -22.5q97 0 155.5 74.5t59.5 208.5l-51 34q-11 -91 -44 -123t-87 -32q-28 0 -57.5 14t-56.5 33.5t-55.5 39.5 t-65.5 34t-77 14q-87 0 -155 -74t-68 -201z" />
<glyph unicode="&#xd6;" d="M61 649q0 162 51.5 299t142 230.5t215.5 146t269 53.5q203 1 368.5 -87t260.5 -246.5t94 -354.5q-1 -229 -90 -393t-244.5 -246t-361.5 -82q-112 0 -215.5 27t-193 83t-155.5 135.5t-103.5 191t-37.5 243.5zM315 655q3 -260 132.5 -413t345.5 -150q183 3 300 160.5 t113 427.5q-4 265 -124.5 418.5t-313.5 156.5q-209 3 -332.5 -161t-120.5 -439zM510 1606q0 44 28.5 72t71.5 28t73 -28t30 -72q0 -43 -30 -72t-73 -29t-71.5 29t-28.5 72zM860 1606q0 44 29 72t72 28t72.5 -28t29.5 -72q0 -43 -29.5 -72t-72.5 -29t-72 29t-29 72z" />
<glyph unicode="&#xd7;" horiz-adv-x="772" d="M61 702l74 74l576 -577l-74 -70z" />
<glyph unicode="&#xd8;" d="M61 649q0 162 51.5 299t142 230.5t215.5 146t269 53.5q203 1 368.5 -87t260.5 -246.5t94 -354.5q-1 -229 -90 -393t-244.5 -246t-361.5 -82q-112 0 -215.5 27t-193 83t-155.5 135.5t-103.5 191t-37.5 243.5zM315 655q3 -260 132.5 -413t345.5 -150q183 3 300 160.5 t113 427.5q-4 265 -124.5 418.5t-313.5 156.5q-209 3 -332.5 -161t-120.5 -439zM475 -276l541 1802h98l-547 -1802h-92z" />
<glyph unicode="&#xd9;" horiz-adv-x="1386" d="M61 1270v82h496v-82l-145 -49v-734q0 -86 27 -156t71.5 -113t100.5 -66t116 -23q55 0 106.5 13.5t98 43t81 71t54.5 101t20 129.5v734l-145 49v82h383v-82l-125 -49v-740q0 -136 -75.5 -254.5t-195 -186t-247.5 -67.5t-242 67t-184 184.5t-70 254.5v742zM309 1763l127 97 l228 -375l-48 -37z" />
<glyph unicode="&#xda;" horiz-adv-x="1386" d="M61 1270v82h496v-82l-145 -49v-734q0 -86 27 -156t71.5 -113t100.5 -66t116 -23q55 0 106.5 13.5t98 43t81 71t54.5 101t20 129.5v734l-145 49v82h383v-82l-125 -49v-740q0 -136 -75.5 -254.5t-195 -186t-247.5 -67.5t-242 67t-184 184.5t-70 254.5v742zM901 1477 l227 374l127 -96l-307 -315z" />
<glyph unicode="&#xdb;" horiz-adv-x="1386" d="M61 1270v82h496v-82l-145 -49v-734q0 -86 27 -156t71.5 -113t100.5 -66t116 -23q55 0 106.5 13.5t98 43t81 71t54.5 101t20 129.5v734l-145 49v82h383v-82l-125 -49v-740q0 -136 -75.5 -254.5t-195 -186t-247.5 -67.5t-242 67t-184 184.5t-70 254.5v742zM469 1526 l229 315h103l229 -315l-47 -41l-233 205l-234 -205z" />
<glyph unicode="&#xdc;" horiz-adv-x="1386" d="M61 1270v82h496v-82l-145 -49v-734q0 -86 27 -156t71.5 -113t100.5 -66t116 -23q55 0 106.5 13.5t98 43t81 71t54.5 101t20 129.5v734l-145 49v82h383v-82l-125 -49v-740q0 -136 -75.5 -254.5t-195 -186t-247.5 -67.5t-242 67t-184 184.5t-70 254.5v742zM485 1612 q0 44 29 72t72 28t72.5 -28t29.5 -72q0 -43 -29.5 -72t-72.5 -29t-72 29t-29 72zM836 1612q0 44 28.5 72t71.5 28t72.5 -28t29.5 -72q0 -43 -29.5 -72t-72.5 -29t-71.5 29t-28.5 72z" />
<glyph unicode="&#xdd;" horiz-adv-x="1349" d="M41 1270v82h561v-82l-166 -49l275 -482l319 482l-149 49v82h428v-82l-154 -49l-407 -607v-483l165 -49v-82h-557v82l166 49v483l-348 607zM905 1501l228 375l127 -96l-308 -316z" />
<glyph unicode="&#xde;" horiz-adv-x="1228" />
<glyph unicode="&#xdf;" horiz-adv-x="1257" d="M41 799v92h141v55q0 229 117 358.5t326 129.5q107 0 191 -30t133 -80.5t74 -108.5t26 -121q2 -115 -57 -198.5t-208 -141.5q108 0 201 -45.5t152 -133.5t59 -200q0 -78 -27.5 -147.5t-74.5 -120t-112 -78.5t-135.5 -27.5t-150 38t-151.5 112.5l37 45q74 -59 139.5 -77.5 t109 -2.5t75.5 52t46.5 81.5t14.5 91.5q0 157 -121.5 258t-288.5 86v51q279 122 279 361q0 119 -66.5 187t-185.5 61q-60 -4 -100 -33t-60.5 -83t-28 -114.5t-8.5 -146.5v-856l195 -52v-61h-535v61l135 52v686h-141z" />
<glyph unicode="&#xe0;" horiz-adv-x="944" d="M47 231q0 96 72 169t191.5 111t267.5 40q0 83 -31 138.5t-81 75.5t-108 16.5t-117 -35.5t-104 -84l-45 55q63 91 161 148t212 57q146 0 231.5 -88.5t85.5 -264.5v-405q0 -37 30.5 -42t70.5 32l30 -54q-44 -64 -97.5 -96.5t-106.5 -32.5q-62 0 -96.5 37.5t-34.5 104.5 q-126 -144 -261 -144q-111 0 -190.5 74.5t-79.5 187.5zM164 1296l127 97l227 -375l-47 -37zM242 242q2 -71 59 -105t136.5 -14.5t140.5 88.5v260q-159 -15 -249 -76.5t-87 -152.5z" />
<glyph unicode="&#xe1;" horiz-adv-x="944" d="M47 231q0 96 72 169t191.5 111t267.5 40q0 83 -31 138.5t-81 75.5t-108 16.5t-117 -35.5t-104 -84l-45 55q63 91 161 148t212 57q146 0 231.5 -88.5t85.5 -264.5v-405q0 -37 30.5 -42t70.5 32l30 -54q-44 -64 -97.5 -96.5t-106.5 -32.5q-62 0 -96.5 37.5t-34.5 104.5 q-126 -144 -261 -144q-111 0 -190.5 74.5t-79.5 187.5zM242 242q2 -71 59 -105t136.5 -14.5t140.5 88.5v260q-159 -15 -249 -76.5t-87 -152.5zM410 1018l227 375l127 -97l-307 -315z" />
<glyph unicode="&#xe2;" horiz-adv-x="944" d="M47 231q0 96 72 169t191.5 111t267.5 40q0 83 -31 138.5t-81 75.5t-108 16.5t-117 -35.5t-104 -84l-45 55q63 91 161 148t212 57q146 0 231.5 -88.5t85.5 -264.5v-405q0 -37 30.5 -42t70.5 32l30 -54q-44 -64 -97.5 -96.5t-106.5 -32.5q-62 0 -96.5 37.5t-34.5 104.5 q-126 -144 -261 -144q-111 0 -190.5 74.5t-79.5 187.5zM164 1040l229 316h103l229 -316l-47 -41l-234 205l-233 -205zM242 242q2 -71 59 -105t136.5 -14.5t140.5 88.5v260q-159 -15 -249 -76.5t-87 -152.5z" />
<glyph unicode="&#xe3;" horiz-adv-x="944" d="M47 231q0 96 72 169t191.5 111t267.5 40q0 83 -31 138.5t-81 75.5t-108 16.5t-117 -35.5t-104 -84l-45 55q63 91 161 148t212 57q146 0 231.5 -88.5t85.5 -264.5v-405q0 -37 30.5 -42t70.5 32l30 -54q-44 -64 -97.5 -96.5t-106.5 -32.5q-62 0 -96.5 37.5t-34.5 104.5 q-126 -144 -261 -144q-111 0 -190.5 74.5t-79.5 187.5zM55 1104l54 -29q1 67 35 109.5t85 42.5q34 0 78 -23t81 -50t84 -50t85 -23q97 0 155.5 74.5t59.5 208.5l-51 35q-11 -91 -44.5 -123.5t-86.5 -32.5q-34 0 -72.5 21t-68.5 46.5t-76 46.5t-94 21q-87 0 -155.5 -73.5 t-68.5 -200.5zM242 242q2 -71 59 -105t136.5 -14.5t140.5 88.5v260q-159 -15 -249 -76.5t-87 -152.5z" />
<glyph unicode="&#xe4;" horiz-adv-x="944" d="M47 231q0 96 72 169t191.5 111t267.5 40q0 83 -31 138.5t-81 75.5t-108 16.5t-117 -35.5t-104 -84l-45 55q63 91 161 148t212 57q146 0 231.5 -88.5t85.5 -264.5v-405q0 -37 30.5 -42t70.5 32l30 -54q-44 -64 -97.5 -96.5t-106.5 -32.5q-62 0 -96.5 37.5t-34.5 104.5 q-126 -144 -261 -144q-111 0 -190.5 74.5t-79.5 187.5zM184 1251q0 44 29 72.5t72 28.5t72.5 -28.5t29.5 -72.5q0 -43 -29.5 -71.5t-72.5 -28.5t-72 28.5t-29 71.5zM242 242q2 -71 59 -105t136.5 -14.5t140.5 88.5v260q-159 -15 -249 -76.5t-87 -152.5zM535 1251 q0 44 28.5 72.5t71.5 28.5t72.5 -28.5t29.5 -72.5q0 -43 -29.5 -71.5t-72.5 -28.5t-71.5 28.5t-28.5 71.5z" />
<glyph unicode="&#xe5;" horiz-adv-x="944" d="M47 231q0 96 72 169t191.5 111t267.5 40q0 83 -31 138.5t-81 75.5t-108 16.5t-117 -35.5t-104 -84l-45 55q63 91 161 148t212 57q146 0 231.5 -88.5t85.5 -264.5v-405q0 -37 30.5 -42t70.5 32l30 -54q-44 -64 -97.5 -96.5t-106.5 -32.5q-62 0 -96.5 37.5t-34.5 104.5 q-126 -144 -261 -144q-111 0 -190.5 74.5t-79.5 187.5zM242 242q2 -71 59 -105t136.5 -14.5t140.5 88.5v260q-159 -15 -249 -76.5t-87 -152.5zM242 1231q0 85 58.5 144t143.5 59t144 -59t59 -144t-59 -144t-144 -59t-143.5 59t-58.5 144zM324 1231q0 -50 34.5 -85.5 t85.5 -35.5q49 0 84 35.5t35 85.5q0 48 -35 83.5t-84 35.5q-50 0 -85 -35.5t-35 -83.5z" />
<glyph unicode="&#xe6;" horiz-adv-x="1912" d="M47 231q0 96 72 169t191.5 111t267.5 40q0 83 -31 138.5t-81 75.5t-108 16.5t-117 -35.5t-104 -84l-45 55q63 91 161 148t212 57q146 0 231.5 -88.5t85.5 -264.5v-405q0 -37 30.5 -42t70.5 32l30 -54q-44 -64 -97.5 -96.5t-106.5 -32.5q-62 0 -96.5 37.5t-34.5 104.5 q-126 -144 -261 -144q-111 0 -190.5 74.5t-79.5 187.5zM242 242q2 -71 59 -105t136.5 -14.5t140.5 88.5v260q-159 -15 -249 -76.5t-87 -152.5zM1010 512q10 82 41.5 154t83.5 130.5t131.5 92t177.5 33.5q90 0 162 -23t127.5 -70.5t86 -127.5t31.5 -189h-634 q0 -183 70.5 -288t211.5 -105q82 0 163.5 37t137.5 98l45 -47q-74 -116 -195.5 -180t-236.5 -64q-93 0 -178 41.5t-139 114.5q-54 75 -77 180t-9 213zM1221 604h383q0 104 -50.5 169t-134.5 65q-79 0 -138.5 -67t-59.5 -167z" />
<glyph unicode="&#xe7;" horiz-adv-x="942" d="M61 430q-1 121 34.5 216.5t97.5 154.5t141 89.5t170 31.5q126 2 221 -53t141 -164q31 -74 -7.5 -135.5t-108.5 -61.5q-52 0 -89 35t-37.5 86.5t46.5 109.5q-18 38 -62.5 62t-101.5 24q-94 0 -168 -92.5t-74 -243.5q0 -149 87.5 -252.5t234.5 -103.5q144 0 272 119l43 -45 q-95 -120 -207.5 -180t-224.5 -60q-100 0 -186.5 45.5t-141.5 128.5q-80 119 -80 289zM328 -471l20 53q136 -38 213.5 1t77.5 116q0 46 -35 78.5t-89 28t-99 -57.5l-74 27l121 245l84 -20l-88 -168q44 50 115 54.5t126.5 -41.5t55.5 -126q0 -67 -36.5 -119t-95.5 -78.5 t-138 -25.5t-158 33z" />
<glyph unicode="&#xe8;" horiz-adv-x="968" d="M66 512q10 82 41.5 154t83.5 130.5t131.5 92t177.5 33.5q90 0 162 -23t127.5 -70.5t86 -127.5t31.5 -189h-635q0 -183 71 -288t212 -105q82 0 163.5 37t137.5 98l45 -47q-74 -116 -195.5 -180t-236.5 -64q-93 0 -178 41.5t-139 114.5q-54 75 -77 180t-9 213zM225 1296 l127 97l228 -375l-48 -37zM276 604h383q0 104 -50 169t-134 65q-79 0 -139 -67t-60 -167z" />
<glyph unicode="&#xe9;" horiz-adv-x="968" d="M66 512q10 82 41.5 154t83.5 130.5t131.5 92t177.5 33.5q90 0 162 -23t127.5 -70.5t86 -127.5t31.5 -189h-635q0 -183 71 -288t212 -105q82 0 163.5 37t137.5 98l45 -47q-74 -116 -195.5 -180t-236.5 -64q-93 0 -178 41.5t-139 114.5q-54 75 -77 180t-9 213zM276 604h383 q0 104 -50 169t-134 65q-79 0 -139 -67t-60 -167zM451 1018l227 375l127 -97l-307 -315z" />
<glyph unicode="&#xea;" horiz-adv-x="968" d="M66 512q10 82 41.5 154t83.5 130.5t131.5 92t177.5 33.5q90 0 162 -23t127.5 -70.5t86 -127.5t31.5 -189h-635q0 -183 71 -288t212 -105q82 0 163.5 37t137.5 98l45 -47q-74 -116 -195.5 -180t-236.5 -64q-93 0 -178 41.5t-139 114.5q-54 75 -77 180t-9 213zM205 1040 l229 316h103l229 -316l-47 -41l-234 205l-233 -205zM276 604h383q0 104 -50 169t-134 65q-79 0 -139 -67t-60 -167z" />
<glyph unicode="&#xeb;" horiz-adv-x="968" d="M66 512q10 82 41.5 154t83.5 130.5t131.5 92t177.5 33.5q90 0 162 -23t127.5 -70.5t86 -127.5t31.5 -189h-635q0 -183 71 -288t212 -105q82 0 163.5 37t137.5 98l45 -47q-74 -116 -195.5 -180t-236.5 -64q-93 0 -178 41.5t-139 114.5q-54 75 -77 180t-9 213zM184 1251 q0 44 29 72.5t72 28.5t72.5 -28.5t29.5 -72.5q0 -43 -29.5 -71.5t-72.5 -28.5t-72 28.5t-29 71.5zM276 604h383q0 104 -50 169t-134 65q-79 0 -139 -67t-60 -167zM535 1251q0 44 28.5 72.5t71.5 28.5t72.5 -28.5t29.5 -72.5q0 -43 -29.5 -71.5t-72.5 -28.5t-71.5 28.5 t-28.5 71.5z" />
<glyph unicode="&#xec;" horiz-adv-x="552" d="M0 1296l127 97l227 -375l-47 -37zM41 807v61l317 54v-809l113 -52v-61h-426v61l109 52v651z" />
<glyph unicode="&#xed;" horiz-adv-x="552" d="M41 807v61l317 54v-809l113 -52v-61h-426v61l109 52v651zM287 1018l227 375l127 -97l-307 -315z" />
<glyph unicode="&#xee;" horiz-adv-x="552" d="M-20 1040l229 316h102l230 -316l-47 -41l-234 205l-233 -205zM41 807v61l317 54v-809l113 -52v-61h-426v61l109 52v651z" />
<glyph unicode="&#xef;" horiz-adv-x="552" d="M0 1251q0 44 28.5 72.5t71.5 28.5t73 -28.5t30 -72.5q0 -42 -30 -71t-73 -29t-71.5 28.5t-28.5 71.5zM41 807v61l317 54v-809l113 -52v-61h-426v61l109 52v651zM350 1251q0 44 29 72.5t72 28.5t72.5 -28.5t29.5 -72.5q0 -43 -29.5 -71.5t-72.5 -28.5t-72 28.5t-29 71.5z " />
<glyph unicode="&#xf0;" horiz-adv-x="1228" />
<glyph unicode="&#xf1;" horiz-adv-x="1134" d="M41 0v66l127 45v671l-127 45v64l332 31v-142q55 62 137 102t160 40q127 0 212 -89t85 -241v-481l127 -45v-66h-445v66l113 45v493q0 65 -42 110.5t-101 59t-128 -9.5t-118 -84v-569l112 -45v-66h-444zM219 1063l53 -29q1 67 35.5 109.5t85.5 42.5q34 0 78 -23t81 -50 t84 -50t85 -23q97 0 155.5 74.5t59.5 208.5l-51 35q-11 -91 -44.5 -123.5t-86.5 -32.5q-28 0 -57.5 14t-56.5 34t-55.5 39.5t-65.5 33.5t-77 14q-87 0 -155 -73.5t-68 -200.5z" />
<glyph unicode="&#xf2;" horiz-adv-x="1103" d="M61 440q0 207 142 344.5t348 137.5q134 0 245.5 -58.5t178.5 -168.5t67 -251q0 -97 -31.5 -178t-82.5 -135t-117 -91.5t-133.5 -53.5t-132.5 -15q-68 1 -135 18.5t-130.5 55t-112 91t-77.5 132t-29 172.5zM184 1296l127 97l228 -375l-47 -37zM285 418q10 -174 87 -258.5 t199 -79.5q119 5 187 101t59 272q-10 181 -92 278t-203 92q-118 -5 -184 -108.5t-53 -296.5z" />
<glyph unicode="&#xf3;" horiz-adv-x="1103" d="M61 440q0 207 142 344.5t348 137.5q134 0 245.5 -58.5t178.5 -168.5t67 -251q0 -97 -31.5 -178t-82.5 -135t-117 -91.5t-133.5 -53.5t-132.5 -15q-68 1 -135 18.5t-130.5 55t-112 91t-77.5 132t-29 172.5zM285 418q10 -174 87 -258.5t199 -79.5q119 5 187 101t59 272 q-10 181 -92 278t-203 92q-118 -5 -184 -108.5t-53 -296.5zM553 1018l227 375l127 -97l-307 -315z" />
<glyph unicode="&#xf4;" horiz-adv-x="1103" d="M61 440q0 207 142 344.5t348 137.5q134 0 245.5 -58.5t178.5 -168.5t67 -251q0 -97 -31.5 -178t-82.5 -135t-117 -91.5t-133.5 -53.5t-132.5 -15q-68 1 -135 18.5t-130.5 55t-112 91t-77.5 132t-29 172.5zM246 1040l229 316h103l229 -316l-47 -41l-234 205l-233 -205z M285 418q10 -174 87 -258.5t199 -79.5q119 5 187 101t59 272q-10 181 -92 278t-203 92q-118 -5 -184 -108.5t-53 -296.5z" />
<glyph unicode="&#xf5;" horiz-adv-x="1103" d="M61 440q0 207 142 344.5t348 137.5q134 0 245.5 -58.5t178.5 -168.5t67 -251q0 -97 -31.5 -178t-82.5 -135t-117 -91.5t-133.5 -53.5t-132.5 -15q-68 1 -135 18.5t-130.5 55t-112 91t-77.5 132t-29 172.5zM158 1063l53 -29q1 67 35.5 109.5t85.5 42.5q34 0 78 -23 t80.5 -50t83.5 -50t85 -23q97 0 155.5 74.5t59.5 208.5l-51 35q-11 -91 -44.5 -123.5t-86.5 -32.5q-34 0 -72.5 21t-68.5 46.5t-76 46.5t-94 21q-87 0 -155 -73.5t-68 -200.5zM285 418q10 -174 87 -258.5t199 -79.5q119 5 187 101t59 272q-10 181 -92 278t-203 92 q-118 -5 -184 -108.5t-53 -296.5z" />
<glyph unicode="&#xf6;" horiz-adv-x="1103" d="M61 440q0 207 142 344.5t348 137.5q134 0 245.5 -58.5t178.5 -168.5t67 -251q0 -97 -31.5 -178t-82.5 -135t-117 -91.5t-133.5 -53.5t-132.5 -15q-68 1 -135 18.5t-130.5 55t-112 91t-77.5 132t-29 172.5zM266 1251q0 44 29 72.5t72 28.5t72.5 -28.5t29.5 -72.5 q0 -43 -29.5 -71.5t-72.5 -28.5t-72 28.5t-29 71.5zM285 418q10 -174 87 -258.5t199 -79.5q119 5 187 101t59 272q-10 181 -92 278t-203 92q-118 -5 -184 -108.5t-53 -296.5zM616 1251q0 44 29 72.5t72 28.5t72.5 -28.5t29.5 -72.5q0 -43 -29.5 -71.5t-72.5 -28.5t-72 28.5 t-29 71.5z" />
<glyph unicode="&#xf7;" horiz-adv-x="1140" d="M61 385v102h1018v-102h-1018zM428 113q0 61 41 102t102 41q62 0 103 -41t41 -102t-41.5 -102.5t-102.5 -41.5t-102 41t-41 103zM428 778q0 62 41 103t102 41t102.5 -41t41.5 -103q0 -61 -41 -102t-103 -41q-61 0 -102 40.5t-41 102.5z" />
<glyph unicode="&#xf8;" horiz-adv-x="1103" d="M61 440q0 207 142 344.5t348 137.5q134 0 245.5 -58.5t178.5 -168.5t67 -251q0 -97 -31.5 -178t-82.5 -135t-117 -91.5t-133.5 -53.5t-132.5 -15q-68 1 -135 18.5t-130.5 55t-112 91t-77.5 132t-29 172.5zM246 -467l540 1802h99l-547 -1802h-92zM285 418 q10 -174 87 -258.5t199 -79.5q119 5 187 101t59 272q-10 181 -92 278t-203 92q-118 -5 -184 -108.5t-53 -296.5z" />
<glyph unicode="&#xf9;" horiz-adv-x="1105" d="M20 825v66l330 31v-635q0 -72 42 -116t101 -51.5t127.5 21t118.5 90.5v551l-131 45v66l336 29v-760q0 -37 30 -42t70 32l31 -54q-47 -68 -94 -98.5t-111 -30.5q-62 0 -96.5 37.5t-34.5 104.5q-34 -33 -45 -43t-44 -35.5t-57.5 -35t-64.5 -19t-86 -9.5q-297 0 -297 330 v483zM102 1296l127 97l228 -375l-47 -37z" />
<glyph unicode="&#xfa;" horiz-adv-x="1105" d="M20 825v66l330 31v-635q0 -72 42 -116t101 -51.5t127.5 21t118.5 90.5v551l-131 45v66l336 29v-760q0 -37 30 -42t70 32l31 -54q-47 -68 -94 -98.5t-111 -30.5q-62 0 -96.5 37.5t-34.5 104.5q-34 -33 -45 -43t-44 -35.5t-57.5 -35t-64.5 -19t-86 -9.5q-297 0 -297 330 v483zM471 1018l227 375l127 -97l-307 -315z" />
<glyph unicode="&#xfb;" horiz-adv-x="1105" d="M20 825v66l330 31v-635q0 -72 42 -116t101 -51.5t127.5 21t118.5 90.5v551l-131 45v66l336 29v-760q0 -37 30 -42t70 32l31 -54q-47 -68 -94 -98.5t-111 -30.5q-62 0 -96.5 37.5t-34.5 104.5q-34 -33 -45 -43t-44 -35.5t-57.5 -35t-64.5 -19t-86 -9.5q-297 0 -297 330 v483zM287 1040l229 316h102l230 -316l-47 -41l-234 205l-233 -205z" />
<glyph unicode="&#xfc;" horiz-adv-x="1105" d="M20 825v66l330 31v-635q0 -72 42 -116t101 -51.5t127.5 21t118.5 90.5v551l-131 45v66l336 29v-760q0 -37 30 -42t70 32l31 -54q-47 -68 -94 -98.5t-111 -30.5q-62 0 -96.5 37.5t-34.5 104.5q-34 -33 -45 -43t-44 -35.5t-57.5 -35t-64.5 -19t-86 -9.5q-297 0 -297 330 v483zM287 1251q0 44 28.5 72.5t71.5 28.5t72.5 -28.5t29.5 -72.5q0 -43 -29.5 -71.5t-72.5 -28.5t-71.5 28.5t-28.5 71.5zM637 1251q0 44 28.5 72.5t71.5 28.5t73 -28.5t30 -72.5q0 -42 -30 -71t-73 -29t-71.5 28.5t-28.5 71.5z" />
<glyph unicode="&#xfd;" horiz-adv-x="1015" d="M0 -379q3 -63 52.5 -98t117.5 -35q106 0 180.5 53.5t114.5 147.5l463 1093l88 45v64h-338v-64l137 -45l-217 -530l-248 530l115 45v64h-465v-64l121 -45l364 -782l-118 -287q-23 -54 -62.5 -91t-83.5 -48q23 21 25.5 53t-11.5 60t-43.5 48.5t-66.5 20.5q-59 0 -93.5 -39 t-31.5 -96zM539 1018l227 375l127 -97l-307 -315z" />
<glyph unicode="&#xfe;" horiz-adv-x="1228" />
<glyph unicode="&#xff;" horiz-adv-x="1015" d="M0 -379q3 -63 52.5 -98t117.5 -35q106 0 180.5 53.5t114.5 147.5l463 1093l88 45v64h-338v-64l137 -45l-217 -530l-248 530l115 45v64h-465v-64l121 -45l364 -782l-118 -287q-23 -54 -62.5 -91t-83.5 -48q23 21 25.5 53t-11.5 60t-43.5 48.5t-66.5 20.5q-59 0 -93.5 -39 t-31.5 -96zM229 1251q0 44 29 72.5t72 28.5t72.5 -28.5t29.5 -72.5q0 -43 -29.5 -71.5t-72.5 -28.5t-72 28.5t-29 71.5zM580 1251q0 44 28.5 72.5t71.5 28.5t72.5 -28.5t29.5 -72.5q0 -43 -29.5 -71.5t-72.5 -28.5t-71.5 28.5t-28.5 71.5z" />
<glyph unicode="&#x152;" horiz-adv-x="2783" d="M61 649q0 162 51.5 299t142 230.5t215.5 146t269 53.5q203 1 368.5 -87t260.5 -246.5t94 -354.5q-1 -229 -90 -393t-244.5 -246t-361.5 -82q-112 0 -215.5 27t-193 83t-155.5 135.5t-103.5 191t-37.5 243.5zM315 655q3 -260 132.5 -413t345.5 -150q183 3 300 160.5 t113 427.5q-4 265 -124.5 418.5t-313.5 156.5q-209 3 -332.5 -161t-120.5 -439zM1585 0v84l146 49v1084l-146 49v86h1137l20 -318h-112l-52 187q-9 28 -36 28h-545q-17 0 -29 -12t-12 -29v-428q0 -17 12 -29t29 -12h416l49 131h92v-356h-94l-47 123h-416q-17 0 -29 -12 t-12 -29v-453q0 -17 12 -29t29 -12h545q26 0 36 29l52 186h112l-20 -317h-1137z" />
<glyph unicode="&#x153;" horiz-adv-x="2072" d="M61 440q0 207 142 344.5t348 137.5q134 0 245.5 -58.5t178.5 -168.5t67 -251q0 -97 -31.5 -178t-82.5 -135t-117 -91.5t-133.5 -53.5t-132.5 -15q-68 1 -135 18.5t-130.5 55t-112 91t-77.5 132t-29 172.5zM285 418q10 -174 87 -258.5t199 -79.5q119 5 187 101t59 272 q-10 181 -92 278t-203 92q-118 -5 -184 -108.5t-53 -296.5zM1169 512q10 82 42 154t84 130.5t131.5 92t177.5 33.5q90 0 162 -23t127.5 -70.5t86 -127.5t31.5 -189h-635q0 -183 71 -288t212 -105q82 0 163.5 37t137.5 98l45 -47q-74 -116 -195.5 -180t-236.5 -64 q-93 0 -178.5 41.5t-139.5 114.5q-54 75 -77 180t-9 213zM1380 604h383q0 104 -50 169t-134 65q-79 0 -139 -67t-60 -167z" />
<glyph unicode="&#x178;" horiz-adv-x="1349" d="M41 1270v82h561v-82l-166 -49l275 -482l319 482l-149 49v82h428v-82l-154 -49l-407 -607v-483l165 -49v-82h-557v82l166 49v483l-348 607zM475 1602q0 44 28.5 72t71.5 28t73 -28t30 -72q0 -43 -30 -72t-73 -29t-71.5 29t-28.5 72zM825 1602q0 44 29 72t72 28t72.5 -28 t29.5 -72q0 -43 -29.5 -72t-72.5 -29t-72 29t-29 72z" />
<glyph unicode="&#x2c6;" horiz-adv-x="1228" d="M369 1040l229 316h102l230 -316l-47 -41l-234 205l-233 -205z" />
<glyph unicode="&#x2dc;" horiz-adv-x="1228" d="M260 1063l53 -29q1 67 35.5 109.5t85.5 42.5q34 0 78 -23t81 -50t84 -50t85 -23q97 0 155.5 74.5t59.5 208.5l-51 35q-11 -91 -44.5 -123.5t-86.5 -32.5q-28 0 -57.5 14t-56.5 34t-55.5 39.5t-65.5 33.5t-77 14q-87 0 -155 -73.5t-68 -200.5z" />
<glyph unicode="&#x2000;" horiz-adv-x="938" />
<glyph unicode="&#x2001;" horiz-adv-x="1876" />
<glyph unicode="&#x2002;" horiz-adv-x="938" />
<glyph unicode="&#x2003;" horiz-adv-x="1876" />
<glyph unicode="&#x2004;" horiz-adv-x="625" />
<glyph unicode="&#x2005;" horiz-adv-x="469" />
<glyph unicode="&#x2006;" horiz-adv-x="312" />
<glyph unicode="&#x2007;" horiz-adv-x="312" />
<glyph unicode="&#x2008;" horiz-adv-x="234" />
<glyph unicode="&#x2009;" horiz-adv-x="375" />
<glyph unicode="&#x200a;" horiz-adv-x="104" />
<glyph unicode="&#x2010;" horiz-adv-x="628" d="M61 522v103h506v-103h-506z" />
<glyph unicode="&#x2011;" horiz-adv-x="628" d="M61 522v103h506v-103h-506z" />
<glyph unicode="&#x2012;" horiz-adv-x="628" d="M61 522v103h506v-103h-506z" />
<glyph unicode="&#x2013;" horiz-adv-x="854" d="M61 522v103h732v-103h-732z" />
<glyph unicode="&#x2014;" horiz-adv-x="1325" d="M61 522v82h1203v-82h-1203z" />
<glyph unicode="&#x2018;" horiz-adv-x="411" d="M61 887q-7 66 4.5 128t45 126t105 119t175.5 92v-80q-51 -21 -84.5 -54.5t-46 -70.5t-16 -66t-0.5 -57q46 -12 75 -50t29 -89q0 -62 -41 -103t-102 -41q-60 0 -99 41t-45 105z" />
<glyph unicode="&#x2019;" horiz-adv-x="411" d="M59 741v80q51 21 84.5 54.5t46.5 70.5t16.5 66t0.5 57q-46 12 -75.5 50.5t-29.5 88.5q0 62 41 103t103 41q60 0 98.5 -40.5t44.5 -105.5q7 -66 -4.5 -128t-45 -126t-105 -119t-175.5 -92z" />
<glyph unicode="&#x201a;" horiz-adv-x="452" d="M61 -274q51 21 84.5 54.5t46.5 70t16.5 65.5t0.5 57q-46 12 -75.5 50.5t-29.5 89.5q0 61 41 102t103 41t102.5 -41t40.5 -104q-1 -57 -7 -103t-26.5 -102.5t-55 -100.5t-96 -87t-145.5 -72v80z" />
<glyph unicode="&#x201c;" horiz-adv-x="780" d="M61 887q-7 67 4 129.5t44.5 126t105.5 118t176 91.5v-80q-51 -21 -84.5 -54.5t-46 -70.5t-16 -66t-0.5 -57q46 -12 75 -50t29 -89q0 -62 -41 -103t-102 -41q-60 0 -98 40.5t-46 105.5zM430 887q-7 67 4 129.5t44.5 126t105.5 118t176 91.5v-80q-51 -21 -84.5 -54.5 t-46.5 -70.5t-16.5 -66t-0.5 -57q46 -12 75.5 -50.5t29.5 -88.5q0 -61 -41.5 -102.5t-102.5 -41.5q-60 0 -97.5 40.5t-45.5 105.5z" />
<glyph unicode="&#x201d;" horiz-adv-x="780" d="M61 741v80q51 21 84.5 54.5t46.5 70.5t16.5 66t0.5 57q-46 12 -75.5 50.5t-29.5 88.5q0 62 41 103t103 41t102.5 -41.5t40.5 -104.5q-1 -57 -7 -103t-26.5 -102.5t-55 -100.5t-96 -87t-145.5 -72zM430 741v80q51 21 84.5 54.5t46.5 70.5t16.5 66t0.5 57 q-46 12 -75.5 50.5t-29.5 88.5q0 62 41 103t102 41q62 0 103 -41.5t41 -104.5q-1 -57 -7 -103t-26.5 -102.5t-55 -100.5t-96 -87t-145.5 -72z" />
<glyph unicode="&#x201e;" horiz-adv-x="452" d="M61 -274q51 21 84.5 54.5t46.5 70t16.5 65.5t0.5 57q-46 12 -75.5 50.5t-29.5 89.5q0 61 41 102t103 41t102.5 -41t40.5 -104q-1 -57 -7 -103t-26.5 -102.5t-55 -100.5t-96 -87t-145.5 -72v80zM61 -274q51 21 84.5 54.5t46.5 70t16.5 65.5t0.5 57q-46 12 -75.5 50.5 t-29.5 89.5q0 61 41 102t103 41t102.5 -41t40.5 -104q-1 -57 -7 -103t-26.5 -102.5t-55 -100.5t-96 -87t-145.5 -72v80z" />
<glyph unicode="&#x2022;" horiz-adv-x="612" d="M61 678q0 104 71 174t175 70t174 -70t70 -174t-70 -174t-174 -70t-175 70t-71 174z" />
<glyph unicode="&#x2026;" horiz-adv-x="413" d="M66 113q0 61 41 102t102 41t102 -41t41 -102q0 -62 -41 -103t-102 -41t-102 41t-41 103zM66 113q0 61 41 102t102 41t102 -41t41 -102q0 -62 -41 -103t-102 -41t-102 41t-41 103zM66 113q0 61 41 102t102 41t102 -41t41 -102q0 -62 -41 -103t-102 -41t-102 41t-41 103z " />
<glyph unicode="&#x202f;" horiz-adv-x="375" />
<glyph unicode="&#x2039;" horiz-adv-x="550" d="M61 387l426 -317v190l-303 201l305 201v188l-428 -313v-150z" />
<glyph unicode="&#x203a;" horiz-adv-x="550" d="M61 662l306 -201l-304 -201v-190l426 317v150l-428 313v-188z" />
<glyph unicode="&#x205f;" horiz-adv-x="469" />
<glyph unicode="&#x20ac;" horiz-adv-x="1355" d="M61 471v92h148q-4 54 -4 80q0 24 4 74h-148v92h164q26 101 81 189.5t136 159.5t194.5 112t244.5 41q140 0 263 -62.5t138 -150.5q9 -52 -25 -90.5t-86 -38.5q-50 0 -84 37t-47 92q-15 63 -53.5 97t-95.5 34q-91 0 -172.5 -35t-140 -94.5t-98 -134t-54.5 -156.5h469v-92 h-479v-15q-3 -67 10 -139h469v-92h-444q36 -142 142.5 -236t270.5 -100q58 -2 126 9t143 44t118 84l43 -45q-181 -255 -493 -252q-111 1 -209.5 42.5t-170 111t-121.5 156.5t-75 186h-164z" />
<glyph unicode="&#x2122;" horiz-adv-x="2836" d="M20 1042l41 310h1010l41 -310h-92q-19 64 -38.5 103t-45.5 63.5t-60.5 33t-82.5 12t-111 -0.5v-4v-1118l166 -49v-82h-557v82l166 49v1118q-29 0 -79 1q-44 3 -79 1t-61.5 -10.5t-48 -31.5t-39.5 -62.5t-37 -104.5h-93zM1194 0h377v82l-146 49v844l502 -975h39l438 997 v-866l-90 -49v-82h461v82l-145 49v1090l145 49v82h-338l-434 -987l-504 987h-305v-82l129 -49v-1090l-129 -49v-82z" />
<glyph unicode="&#x25fc;" horiz-adv-x="890" d="M0 0v891h891v-891h-891z" />
</font>
</defs>
</svg>
