<?xml version="1.0" standalone="no"?>
<!DOCTYPE svg PUBLIC "-//W3C//DTD SVG 1.1//EN" "http://www.w3.org/Graphics/SVG/1.1/DTD/svg11.dtd" >
<svg xmlns="http://www.w3.org/2000/svg">
<metadata></metadata>
<defs>
<font id="machiavellimedium" horiz-adv-x="1308" >
<font-face units-per-em="2048" ascent="1638" descent="-410" />
<missing-glyph horiz-adv-x="409" />
<glyph horiz-adv-x="0" />
<glyph horiz-adv-x="682" />
<glyph unicode=" "  horiz-adv-x="409" />
<glyph unicode="&#x09;" horiz-adv-x="409" />
<glyph unicode="&#xa0;" horiz-adv-x="409" />
<glyph unicode="!" horiz-adv-x="409" d="M57 113q0 61 41 102t103 41q61 0 102 -41t41 -102q0 -62 -41 -103t-102 -41t-102.5 41.5t-41.5 102.5zM80 1290h256l-78 -907h-102z" />
<glyph unicode="&#x22;" horiz-adv-x="739" d="M47 1374q0 62 41 103t102 41q62 0 103 -41t41 -103q0 -13 -4 -37l-97 -374h-92l-88 366q-6 21 -6 45zM412 1374q0 62 41 103t102 41t102 -41t41 -103q0 -13 -4 -37l-96 -374h-92l-88 366q-6 21 -6 45z" />
<glyph unicode="#" horiz-adv-x="1126" d="M20 367v92h279l74 340h-264v92h284l80 369h92l-80 -369h256l80 369h92l-79 -369h272v-92h-293l-74 -340h279v-92h-297l-80 -367h-92l80 367h-256l-80 -367h-92l80 367h-261zM391 459h256l74 340h-256z" />
<glyph unicode="$" horiz-adv-x="1116" d="M20 463h109q50 -224 211 -311l135 454l-80 45q-66 37 -111.5 67t-94.5 72.5t-78.5 85.5t-48.5 101t-19 125q0 110 73 193.5t186 124.5t245 42q90 3 182 -12l45 152h98l-51 -168q125 -28 221 -76l21 -328h-115q-54 208 -168 268l-127 -421l25 -15q62 -36 97.5 -58 t87 -56.5t80.5 -61t63.5 -64t51.5 -73t28.5 -80.5t9.5 -94q-3 -91 -44.5 -167.5t-110 -125.5t-159 -79.5t-192 -31.5t-207.5 19l-57 -191h-93l64 213q-137 45 -256 133zM336 1130q3 -54 53.5 -94t181.5 -112l121 403q-41 8 -98 8q-113 2 -187 -55t-71 -150zM422 119 q48 -14 108 -17q79 -3 138.5 14.5t96.5 58t40 101.5q5 129 -250 283z" />
<glyph unicode="%" horiz-adv-x="1298" d="M20 1044q0 120 90.5 205.5t217.5 85.5t217 -85.5t90 -205.5t-90 -205t-217 -85t-217.5 85t-90.5 205zM113 1049q0 -85 63.5 -146t151.5 -61q89 0 152 61t63 146q0 82 -63 142t-152 60q-88 0 -151.5 -60t-63.5 -142zM133 0l930 1335h108l-935 -1335h-103zM664 291 q0 120 90 205.5t217 85.5t217 -85.5t90 -205.5t-90 -205.5t-217 -85.5t-217 85.5t-90 205.5zM756 295q0 -85 63.5 -146t151.5 -61q89 0 152 61t63 146q0 82 -63 142.5t-152 60.5q-87 0 -151 -60.5t-64 -142.5z" />
<glyph unicode="&#x26;" horiz-adv-x="1441" d="M20 373q0 62 22.5 118.5t54 97t86.5 83.5t98.5 70t111.5 65q-164 224 -164 373q0 98 55 176t141 119t183 41q159 0 268 -101.5t109 -224.5q0 -37 -11 -70t-37.5 -64t-50 -53.5t-69.5 -52t-72.5 -45.5t-82.5 -47q133 -181 417 -504q133 186 111 426l-129 43v68h344v-74 l-111 -39q0 -295 -147 -499l149 -166q23 -31 125 -39v-74h-329l-105 117q-195 -139 -428 -133q-69 1 -140 14.5t-143.5 43.5t-128.5 73.5t-91.5 110t-35.5 147.5zM297 465q-1 -63 24 -119t65.5 -95t91.5 -67.5t102 -42.5t96 -14q114 0 235 74q-345 384 -458 526 q-153 -116 -156 -262zM487 1208q0 -97 119 -274q164 116 164 256q0 102 -34 169t-101 73q-70 0 -109 -61.5t-39 -162.5z" />
<glyph unicode="'" horiz-adv-x="319" d="M20 942v80q39 4 70.5 37t34.5 69q-46 12 -74 49.5t-28 88.5q0 62 40.5 102.5t102.5 40.5t102.5 -41t40.5 -104q-1 -121 -88 -214t-201 -108z" />
<glyph unicode="(" horiz-adv-x="657" d="M31 455q0 178 46 333.5t127 272.5t179 203.5t215 148.5l43 -82q-82 -48 -153.5 -106t-137.5 -138t-112.5 -171.5t-74.5 -209t-28 -247.5q0 -154 41 -293t112.5 -246.5t158.5 -189.5t190 -142l-47 -80q-88 52 -167 118t-152 155t-125 189t-83.5 225.5t-31.5 259.5z" />
<glyph unicode=")" horiz-adv-x="677" d="M37 1331l43 82q115 -61 214.5 -151.5t180 -209t126.5 -272.5t46 -325q0 -173 -46.5 -325.5t-128 -268t-176.5 -201.5t-208 -152l-47 80q104 60 190 139t158.5 185t113 246t40.5 301q0 154 -41.5 293t-114 247t-160 190t-190.5 142z" />
<glyph unicode="*" horiz-adv-x="512" d="M18 1110v82h211l107 184l72 -41l-82 -143h163v-82h-210l-107 -184l-72 41l82 143h-164z" />
<glyph unicode="+" horiz-adv-x="854" d="M20 522v103h357v356h102v-356h355v-103h-355v-354h-102v354h-357z" />
<glyph unicode="," horiz-adv-x="409" d="M41 -131q39 4 70 37t34 69q-46 12 -74 49.5t-28 88.5q0 61 40.5 102t102.5 41t103 -41t41 -104q-1 -121 -88 -214t-201 -108v80z" />
<glyph unicode="-" horiz-adv-x="567" d="M31 522v103h506v-103h-506z" />
<glyph unicode="." horiz-adv-x="409" d="M57 113q0 61 41 102t103 41q61 0 102 -41t41 -102q0 -62 -41 -103t-102 -41t-102.5 41.5t-41.5 102.5z" />
<glyph unicode="/" horiz-adv-x="659" d="M10 -467l541 1802h98l-547 -1802h-92z" />
<glyph unicode="0" horiz-adv-x="1044" d="M41 686q0 120 34 238.5t93.5 214.5t149.5 155.5t194 59.5q79 0 155 -39t136 -106t106 -151.5t70.5 -180t24.5 -187.5q0 -99 -17 -197.5t-55.5 -194t-94 -168t-138.5 -117t-183 -44.5q-92 0 -171.5 44.5t-134 117.5t-93.5 167t-57.5 193t-18.5 195zM297 680 q3 -66 5.5 -107.5t7.5 -100t10.5 -95.5t14.5 -83.5t20.5 -75t27.5 -59t36 -47t46 -27.5t57 -11q60 0 103.5 31t68 87t38.5 134t15 171t-2 199q-2 54 -4.5 92.5t-7.5 94.5t-13 96t-19.5 86.5t-28.5 78.5t-39 60t-52.5 42t-66.5 14q-66 0 -113.5 -53t-70 -141t-30.5 -184.5 t-3 -201.5z" />
<glyph unicode="1" horiz-adv-x="716" d="M41 0v61l205 50v1032l-203 -88v125l358 172h80v-1241l195 -50v-61h-635z" />
<glyph unicode="2" horiz-adv-x="964" d="M41 0v168q36 33 91.5 81.5t90 78.5t82 74t77.5 75t67.5 73t60.5 76t47.5 76.5t37.5 82.5t21.5 86t8.5 94q0 60 -26 108t-67.5 74.5t-92 40t-102 5t-94.5 -30t-71.5 -65.5t-32.5 -102h-73q2 107 59 190.5t143.5 125t184.5 41.5q93 0 168.5 -26t123 -67t80 -95.5t45.5 -109 t13 -110.5q0 -50 -12 -98.5t-39 -96t-55.5 -89t-76 -89t-84.5 -82t-98 -82.5t-99 -76.5t-104.5 -78t-99.5 -74.5h508q22 0 35 8t34.5 43t57.5 113h74l-41 -342h-842z" />
<glyph unicode="3" horiz-adv-x="917" d="M53 100q-26 61 1.5 98.5t90.5 32.5q52 -3 90 -37.5t52 -99.5q100 -45 179.5 -35.5t129 74.5t49.5 168q0 144 -94.5 231t-243.5 72l-28 51q155 68 227 152t72 209q0 73 -25 124.5t-64.5 73.5t-88 26t-95 -11.5t-86.5 -46t-61 -70.5l-47 21q96 219 327 219q93 0 169 -27.5 t124 -73t73.5 -102t26.5 -117.5q1 -120 -71.5 -198.5t-233.5 -141.5q148 0 249.5 -88.5t101.5 -228.5q0 -85 -32.5 -155.5t-84.5 -115t-119 -75t-133.5 -42.5t-130.5 -10q-85 2 -192 34.5t-132 88.5z" />
<glyph unicode="4" horiz-adv-x="993" d="M41 461v53l489 768q119 16 193 72h55v-811h174v-82h-174v-350l146 -45v-66h-537v66l145 45v350h-491zM160 543h372v585z" />
<glyph unicode="5" horiz-adv-x="1032" d="M41.5 194q8.5 36 42 54.5t76.5 15.5q52 -3 89.5 -36.5t51.5 -98.5q84 -52 171.5 -55t153 35t107 108t41.5 154q0 154 -94 239t-229 82q-126 -3 -201 -104h-154l148 743h678l-21 -209h-606l-90 -415q61 92 151 137t193 45q82 0 161.5 -30t141.5 -82.5t100.5 -130.5 t38.5 -167q0 -113 -47 -209t-125 -159.5t-177.5 -99t-205.5 -36.5q-110 0 -218.5 34t-149.5 95q-35 54 -26.5 90z" />
<glyph unicode="6" horiz-adv-x="985" d="M41 522q0 204 41 366.5t110.5 262.5t157.5 152.5t187 52.5q114 0 198 -41t158 -123l-70 -39q-40 48 -106.5 75t-147.5 27q-86 0 -151 -65.5t-100.5 -178t-41.5 -259.5q104 88 226 88q125 0 227 -57t158.5 -153.5t56.5 -211.5q0 -91 -28.5 -170.5t-84 -142.5t-147 -99.5 t-209.5 -36.5q-86 0 -159.5 34t-123 90t-84.5 128.5t-51 148.5t-16 152zM260 397q9 -167 72 -255.5t170 -88.5q74 4 126 61.5t73.5 136t21.5 167.5q0 124 -76.5 222.5t-171.5 96.5q-39 -1 -66 -5.5t-57.5 -22.5t-48.5 -49t-30 -87t-13 -135v2v-43z" />
<glyph unicode="7" horiz-adv-x="1005" d="M41 961l61 372h842l21 -114l-609 -1219h-145l551 1104h-539q-35 0 -62.5 -30t-45.5 -113h-74z" />
<glyph unicode="8" horiz-adv-x="1032" d="M41 322q0 77 26 140.5t72 106.5t101.5 71t121.5 42q-112 81 -172.5 152t-60.5 155q0 104 62.5 189t159 129.5t202.5 44.5q107 0 194.5 -34.5t143 -107.5t55.5 -174q0 -106 -65.5 -173.5t-190.5 -119.5q69 -48 114 -85.5t92.5 -87.5t71 -104t23.5 -112q0 -75 -32 -144 t-90.5 -122t-148.5 -85t-198 -32q-231 0 -356 96t-125 255zM260 385q0 -63 16 -121t47.5 -106.5t84.5 -77.5t120 -29q112 4 167 66.5t55 167.5q0 48 -23.5 93.5t-71.5 89.5t-91 76t-113 79l-27 18q-80 -27 -121 -96.5t-43 -159.5zM356 1079q4 -39 26 -76t66 -77t79 -66.5 t100 -71.5q61 51 93 121.5t34 145.5q2 104 -47.5 164.5t-157.5 60.5q-41 -1 -75 -11t-64.5 -31.5t-45 -62t-8.5 -96.5z" />
<glyph unicode="9" horiz-adv-x="985" d="M41 907q0 91 28.5 170.5t84 142.5t147 99.5t209.5 36.5q182 0 308 -155.5t126 -397.5q0 -189 -41.5 -342.5t-110 -249.5t-158 -153.5t-183.5 -65.5t-188 27.5t-171 113.5l70 39q56 -51 117.5 -71t119.5 -10t112 49t95 99.5t68 147t33 186.5q-98 -88 -224 -88 q-125 0 -227 57t-158.5 153.5t-56.5 211.5zM262 907q0 -127 66.5 -223.5t160.5 -95.5q40 1 68.5 5.5t62 22.5t54.5 48.5t35.5 87t15.5 135.5l2 -2q0 31 -2 43q-9 167 -72 255.5t-170 88.5q-74 -4 -126 -61.5t-73.5 -136t-21.5 -167.5z" />
<glyph unicode=":" horiz-adv-x="307" d="M2 113q0 61 41 102t102 41q62 0 103 -41t41 -102t-41.5 -102.5t-102.5 -41.5t-102 41t-41 103zM2 686q0 62 41 102.5t102 40.5q62 0 103 -41t41 -102t-41 -102t-103 -41q-61 0 -102 40.5t-41 102.5z" />
<glyph unicode=";" horiz-adv-x="307" d="M0 -131q39 4 70 37t34 69q-46 12 -74 49.5t-28 88.5q0 61 41 102t102 41q62 0 103 -41t41 -104q-1 -121 -88 -214t-201 -108v80zM2 686q0 62 41 102.5t102 40.5q62 0 103 -41t41 -102t-41 -102t-103 -41q-61 0 -102 40.5t-41 102.5z" />
<glyph unicode="&#x3c;" horiz-adv-x="878" d="M20 408v108l797 334l35 -86l-709 -303l715 -303l-35 -86z" />
<glyph unicode="=" horiz-adv-x="854" d="M20 322v102h814v-102h-814zM20 670v102h814v-102h-814z" />
<glyph unicode="&#x3e;" horiz-adv-x="878" d="M20 158l715 303l-708 303l34 86l797 -334v-108l-803 -336z" />
<glyph unicode="?" horiz-adv-x="819" d="M68.5 1039.5q-14.5 49.5 11.5 111.5t96 111q114 82 279 79q149 -3 258.5 -109.5t109.5 -238.5q0 -111 -64.5 -196t-193.5 -160q-118 -69 -141 -86q-59 -45 -53 -98q5 -40 45 -101h-84q-37 44 -61.5 89t-33.5 98.5t5.5 103.5t62.5 102.5t129 96.5q310 170 223 323 q-31 55 -99.5 70.5t-138.5 -15.5t-102 -98q29 -29 30.5 -65.5t-17.5 -65.5t-52.5 -49t-70.5 -20q-47 0 -85.5 34t-53 83.5zM213 113q0 61 40.5 102t102.5 41t103 -41t41 -102t-41 -102.5t-103 -41.5q-61 0 -102 41t-41 103z" />
<glyph unicode="@" horiz-adv-x="1693" d="M20 535q0 175 64.5 333.5t176.5 275t272 185t341 68.5q166 0 315.5 -61t254.5 -162t167 -236.5t62 -280.5q0 -115 -30 -212t-79 -162.5t-112.5 -112t-129.5 -67.5t-132 -21q-114 0 -187 56.5t-63 152.5q-61 -104 -118.5 -154.5t-143.5 -50.5q-71 0 -135.5 34t-111.5 97 t-66 153t2 203q81 425 442 433q62 2 126 -27t101 -86l23 98l235 8l-22 -108l-103 -563q-10 -60 16.5 -91.5t80.5 -31.5q122 0 218.5 129.5t96.5 329.5q0 127 -53.5 244.5t-145.5 204.5t-223.5 139.5t-279.5 52.5q-210 0 -386 -102t-278 -277.5t-102 -384.5 q0 -219 102.5 -395t277.5 -273.5t386 -97.5q164 0 319 65l59 -76q-179 -81 -383 -81q-135 0 -262.5 38.5t-234 113.5t-187 177.5t-125.5 237t-45 285.5zM594 555q-22 -127 19.5 -210.5t109.5 -102.5q61 -17 120 30t101 125l78 383q-57 72 -124 98t-122 -1 q-137 -66 -182 -322z" />
<glyph unicode="A" d="M-20 0v82l120 49l469 1221h172l471 -1221l117 -49v-82h-557v82l150 49l-129 330h-420l-127 -330l143 -49v-82h-409zM420 594h323l-155 440z" />
<glyph unicode="B" horiz-adv-x="1318" d="M61 0v82l146 49v1090l-146 49v82h678q209 0 338 -94t129 -261q0 -116 -73.5 -198t-186.5 -109q140 -8 231 -106t91 -244q0 -154 -117.5 -247t-339.5 -93h-750zM473 170q0 -17 11 -28t28 -13q77 -6 139 -6q80 0 137 10q100 18 141.5 68t41.5 143q0 128 -83 206.5 t-212 78.5h-162q-17 0 -29 -12t-12 -29v-418zM473 803q0 -17 12 -29t29 -12h148q113 0 180 66.5t67 172.5q0 246 -366 246h-29q-18 0 -29.5 -11.5t-11.5 -29.5v-403z" />
<glyph unicode="C" horiz-adv-x="1419" d="M61 649q0 151 40.5 274t111 206.5t169.5 140t212 83t242 27.5h16q128 0 260 -30q140 -32 246 -97l20 -327h-139q-15 148 -126 232.5t-284 84.5h-10q-91 -1 -171 -37q-84 -38 -147 -112t-98 -192q-34 -115 -34 -259v-8q3 -252 140 -394q134 -139 336 -139h9 q109 0 185.5 29t126 101.5t59.5 189.5h139l-21 -369q-305 -86 -520 -86h-10q-120 1 -225 22t-204 70.5t-169 125.5t-112 194.5t-42 269.5z" />
<glyph unicode="D" horiz-adv-x="1521" d="M61 1260v92h656q108 0 211.5 -23.5t201 -77t170.5 -130.5t117 -193q43 -113 43 -248v-6q0 -110 -22 -203t-60 -161.5t-92 -122t-115.5 -88.5t-134 -57.5t-144 -32t-149.5 -9.5h-680v88l162 49v1073zM492 166q0 -34 38 -41q88 -16 163 -16q444 0 450 544v12q1 85 -13 159 q-14 78 -41.5 136.5t-65 106.5t-82.5 78.5t-95.5 53t-104 30t-107.5 9.5q-11 0 -22 1q-43 0 -84 -8q-36 -6 -36 -41v-1024z" />
<glyph unicode="E" horiz-adv-x="1300" d="M61 0v84l146 49v1084l-146 49v86h1158l20 -338h-113l-79 194h-533q-17 0 -29 -12t-12 -29v-366q0 -17 12 -29t29 -12h375l49 131h92v-397h-94l-47 122h-375q-17 0 -29 -12t-12 -29v-391q0 -17 12 -29t29 -12h533l79 195h113l-20 -338h-1158z" />
<glyph unicode="F" horiz-adv-x="1300" d="M61 0v84l146 49v1084l-146 49v86h1158l20 -379h-113q-5 99 -25.5 156t-78.5 85q-61 30 -225 36q-42 1 -81 1q-114 0 -204 -12q-17 -2 -28 -13t-11 -28v-405q0 -17 12 -29t29 -12h360q29 0 47 32.5t37 118.5h93v-418h-95q-18 85 -36 114.5t-46 29.5h-360q-17 0 -29 -12 t-12 -29v-445l203 -47v-96h-615z" />
<glyph unicode="G" horiz-adv-x="1523" d="M61 711q0 141 46 256.5t120 191.5t172 128.5t198.5 76t203.5 25.5h25q134 0 284 -29q163 -32 268 -84l21 -369h-139q-12 75 -43.5 134t-73.5 95.5t-95.5 60.5t-105 33.5t-106.5 10.5h-5q-88 0 -171 -34q-84 -35 -152 -99.5t-109 -167.5t-41 -227q0 -111 26 -208.5 t67 -165.5t94.5 -119t107 -79t105.5 -37q37 -7 77 -7q53 0 111 11q102 20 150 58v342l-146 49v82h512v-82l-100 -49v-410q-78 -58 -262 -93.5t-293 -35.5q-111 0 -212.5 21.5t-201 75.5t-171.5 136t-116.5 212.5t-44.5 296.5z" />
<glyph unicode="H" horiz-adv-x="1511" d="M61 0v82l136 49v1090l-136 49v82h547v-82l-145 -49v-433q0 -17 12 -28.5t29 -11.5h502q17 0 29 11.5t12 28.5v433l-146 49v82h549v-82l-137 -49v-1090l137 -49v-82h-569v82l166 49v432q0 17 -12 29t-29 12h-502q-17 0 -29 -12t-12 -29v-432l145 -49v-82h-547z" />
<glyph unicode="I" horiz-adv-x="679" d="M61 0v82l146 49v1090l-146 49v82h557v-82l-145 -49v-1090l145 -49v-82h-557z" />
<glyph unicode="J" horiz-adv-x="886" d="M-20 137v8q0 55 37 97q40 44 114 45h4q38 0 69 -19q32 -20 48 -49.5t16 -64.5t-20 -62q78 8 122 94t44 244v791l-146 49v82h557v-82l-145 -49v-791q0 -101 -27.5 -181t-73 -130.5t-108.5 -83.5t-131 -45q-59 -10 -123 -10h-22q-90 3 -150 50t-65 107z" />
<glyph unicode="K" horiz-adv-x="1337" d="M61 0v82l125 49v1090l-125 49v82h537v-82l-145 -49v-510l491 471q19 18 21 32t-13 23.5t-38.5 16t-59.5 12.5v86h494v-86q-93 -17 -120 -27t-57 -37l-397 -364l412 -668q16 -25 23.5 -34t43.5 -24t105 -30v-82h-608v82q104 19 124 31q16 9 16 25q0 13 -11 32l-295 475 l-131 -133v-381l125 -49v-82h-517z" />
<glyph unicode="L" horiz-adv-x="1138" d="M61 0v68l125 73v1080l-125 49v82h537v-82l-145 -49v-1080h499l92 228h105l-33 -369h-1055z" />
<glyph unicode="M" horiz-adv-x="1738" d="M61 0v82l129 49v1090l-129 49v82h275l520 -928l418 928h403v-82l-145 -49v-1090l145 -49v-82h-536v82l125 49v805l-418 -936h-74l-440 823v-692l145 -49v-82h-418z" />
<glyph unicode="N" horiz-adv-x="1470" d="M61 0v82l146 49v1090l-146 49v82h291l758 -887v752l-141 51v84h440v-82l-145 -49v-1221h-152l-762 893v-762l166 -49v-82h-455z" />
<glyph unicode="O" horiz-adv-x="1585" d="M61 649q0 196 93.5 363.5t254.5 266t351 99.5h8q119 0 229 -28q114 -28 210 -85t167 -137q71 -78 111 -186q39 -105 39 -225v-6q-1 -348 -199.5 -545t-538.5 -197q-149 0 -279 43.5t-230 126.5t-158 214.5t-58 295.5zM367 655q1 -76 17.5 -153t52.5 -152t86.5 -132 t125.5 -92q73 -34 159 -34h5q92 1 172 55.5t130.5 139.5t78.5 189q24 90 24 178q0 13 -1 26q-4 106 -33.5 206.5t-81.5 183.5t-133.5 133.5t-180.5 51.5h-5q-119 1 -217 -89q-100 -92 -150 -229q-49 -132 -49 -271v-11z" />
<glyph unicode="P" horiz-adv-x="1245" d="M61 0v82l146 49v1079l-146 50v92h658q106 0 195.5 -36t147.5 -94.5t90 -133t32 -152.5q0 -100 -34.5 -176t-110.5 -133q-77 -57 -209 -83q-105 -21 -241 -21q-36 0 -75 1q-17 0 -29 -12t-12 -29v-352l207 -49v-82h-619zM473 692q0 -15 10 -25.5t25 -13.5q61 -10 118 -10 t106.5 19.5t86.5 53t58.5 90t21.5 130.5q0 161 -103 236q-80 58 -207 58q-37 0 -79 -5q-17 -1 -27 -12.5t-10 -28.5v-492z" />
<glyph unicode="Q" horiz-adv-x="1495" d="M61 649q0 147 58.5 281.5t155.5 232t229.5 156t275.5 59.5h6q149 0 284 -50q137 -52 237 -140t159 -213q58 -123 58 -259q-1 -218 -90 -386q-90 -168 -258.5 -264.5t-389.5 -96.5h-34l-41 -86q50 17 114 22q19 2 40 2q48 0 104 -9q80 -11 155 -41q55 -22 115.5 -69 t102.5 -90t85 -78t70 -38q10 -1 19 -1q86 0 126 91l37 -47q-30 -79 -107 -139q-76 -59 -192 -59h-4q-64 1 -127 33t-115 79.5t-99.5 96.5t-98 90.5t-92.5 54.5q-58 19 -118 19q-119 0 -247 -72q57 73 77 130q19 53 19 119v13q-112 23 -203.5 72.5t-162 128.5t-109.5 195.5 t-39 262.5zM365 655q2 -144 57 -269.5t158 -204.5q101 -77 227 -77h6q124 3 219 82.5t142 209.5q45 121 45 266v18q-3 161 -52.5 287t-147.5 201.5t-231 76.5h-6q-121 0 -218 -83q-99 -84 -150 -218q-49 -130 -49 -277v-12z" />
<glyph unicode="R" horiz-adv-x="1349" d="M61 0v82l146 49v1081l-146 50v90h658q218 0 358 -112.5t140 -283.5q0 -144 -67 -247t-196 -150l242 -428l133 -49v-82h-555v82l144 49l-224 393h-180q-17 0 -29 -12t-12 -29v-352l145 -49v-82h-557zM473 692q0 -18 11.5 -29.5t29.5 -11.5h30q104 0 176 18q82 21 124.5 65 t59 96.5t16.5 125.5q0 132 -99 211q-87 69 -259 69q-24 0 -50 -1q-17 -1 -28 -13.5t-11 -27.5v-502z" />
<glyph unicode="S" horiz-adv-x="1181" d="M61 463h109q11 -92 50.5 -165t95.5 -116t120 -65q61 -21 125 -21h6q125 2 204 79q60 58 60 146q0 28 -6 58q-10 54 -53 95t-104.5 67t-134.5 49.5t-146 50t-136 60.5t-108.5 89t-58.5 128q-8 42 -8 80q0 46 12 88q20 76 68.5 129t119.5 89t153 53.5t173 18.5h14 q245 0 447 -100l20 -328h-114q-24 95 -58.5 157t-82 93.5t-96.5 43t-118 11.5h-4q-70 -1 -135 -35q-67 -36 -101 -94q-23 -39 -24 -78q0 -19 6 -38q10 -35 54.5 -65.5t108.5 -55.5t140 -51.5t152 -58.5t140.5 -69t109.5 -91.5t55 -118.5q5 -33 5 -65q-1 -101 -53 -192 q-70 -120 -204 -190t-297 -71h-9q-254 0 -476 165z" />
<glyph unicode="T" horiz-adv-x="1153" d="M0 1012l20 340h1113l20 -340h-113l-79 207h-259v-1088l166 -49v-82h-598v82l166 49v1088h-243l-80 -207h-113z" />
<glyph unicode="U" horiz-adv-x="1386" d="M61 1270v82h537v-82l-145 -49v-734q0 -139 87.5 -242.5t219.5 -103.5t219.5 103.5t87.5 242.5v734l-145 49v82h403v-82l-125 -49v-740q0 -138 -71 -255.5t-190 -185t-257 -67.5q-137 0 -251 67.5t-179.5 183.5t-65.5 255v742z" />
<glyph unicode="V" horiz-adv-x="1290" d="M-20 1270v82h577v-82l-166 -49l348 -824l303 824l-163 49v82h432v-82l-125 -49l-451 -1221h-137l-502 1221z" />
<glyph unicode="W" horiz-adv-x="2088" d="M-20 1270v82h577v-82l-166 -49l348 -824l303 955h148l348 -955l303 824l-164 49v82h432v-82l-124 -49l-451 -1221h-137l-344 963l-318 -963h-137l-502 1221z" />
<glyph unicode="X" horiz-adv-x="1353" d="M-20 0v86l149 45l428 522l-395 566l-133 51v82h606v-82l-150 -49l252 -371l318 369l-133 47v86h452v-86l-147 -45l-414 -484l408 -604l153 -51v-82h-626v82l149 49l-264 408l-332 -406l133 -47v-86h-454z" />
<glyph unicode="Y" d="M0 1270v82h582v-82l-166 -49l289 -439l284 439l-149 49v82h469v-82l-154 -49l-407 -607v-483l165 -49v-82h-598v82l166 49v483l-348 607z" />
<glyph unicode="Z" horiz-adv-x="1245" d="M61 963l21 389h1081v-138l-745 -1062h538l115 235h113l-31 -387h-1067v137l741 1061h-569l-86 -235h-111z" />
<glyph unicode="[" horiz-adv-x="563" d="M41 -420v1854h481v-88h-389v-1678h389v-88h-481z" />
<glyph unicode="\" horiz-adv-x="659" d="M10 1335h99l540 -1802h-92z" />
<glyph unicode="]" horiz-adv-x="563" d="M41 -332h389v1678h-389v88h481v-1854h-481v88z" />
<glyph unicode="^" horiz-adv-x="819" d="M20 631l336 803h109l334 -797h-103l-286 674l-289 -680h-101z" />
<glyph unicode="_" horiz-adv-x="894" d="M20 -2v102h854v-102h-854z" />
<glyph unicode="`" horiz-adv-x="1228" d="M221 1274l64 108l456 -319l-34 -57z" />
<glyph unicode="a" horiz-adv-x="995" d="M51 231q0 96 72.5 169t193 111t271.5 40q0 82 -32 136t-82 72q-40 14 -86 14q-12 -1 -24 -1q-60 -4 -119 -34t-104 -76l-45 55q64 91 162.5 148t216.5 57q72 0 135 -21.5t114 -63t80.5 -111t29.5 -157.5v-405q0 -37 30 -42q4 -1 7 -1q27 0 63 33l31 -54 q-89 -129 -226 -129q-64 0 -107.5 38.5t-43.5 103.5q-126 -144 -266 -144q-111 0 -191 74.5t-80 187.5zM250 262q2 -54 33 -90t77 -46q14 -3 29 -2q35 0 79 16q62 23 120 79v240q-163 0 -252 -58q-86 -56 -86 -134v-5z" />
<glyph unicode="b" horiz-adv-x="1130" d="M20 1333v72l359 29v-635q92 96 212 116q28 5 56 5q91 0 180 -50q242 -142 242 -415q0 -135 -71 -247.5t-181.5 -173.5t-230.5 -61q-69 0 -158 27.5t-137 67.5l-101 -68h-57v1292zM379 221q103 -150 225 -150q17 0 35 3q79 13 120.5 107t43.5 222v9q-1 82 -17 152 q-18 74 -48 126t-72 82q-44 30 -90 32h-7q-43 0 -91 -28q-52 -30 -99 -90v-465z" />
<glyph unicode="c" horiz-adv-x="970" d="M61 430v7q0 93 25 172q26 82 71 138.5t105.5 96.5t128.5 58.5t141 19.5h9q121 0 213 -53q96 -55 141 -164q14 -33 13 -63q0 -38 -21 -72q-39 -62 -109 -62q-52 0 -89 35t-38 88q0 51 47 108q-18 38 -62 62t-101 24q-92 0 -158 -91.5t-66 -244.5q0 -144 87.5 -243 t222.5 -99q153 0 266 105l43 -45q-95 -120 -207.5 -180t-224.5 -60q-129 0 -230.5 66t-154 171t-52.5 226z" />
<glyph unicode="d" horiz-adv-x="1189" d="M102 455q3 161 95.5 270t236.5 164q85 32 167 31q99 0 192 -46v416l-134 41v74l379 33v-1276q0 -37 30 -42q4 -1 8 -1q28 0 63 33l30 -54q-89 -129 -223 -129q-63 0 -108 43t-45 109q-35 -67 -115 -110q-78 -42 -164 -42h-4q-116 2 -211 69q-95 68 -147 178 q-50 106 -50 229v10zM348 467q8 -157 77 -260.5t169 -104.5h5q54 0 108 42q57 44 86 112v401q-43 93 -107 133q-50 32 -102 31q-14 0 -29 -2q-92 -15 -153 -111q-55 -86 -55 -212q0 -14 1 -29z" />
<glyph unicode="e" horiz-adv-x="968" d="M66 512q10 82 41.5 154t83.5 130.5t131.5 92t177.5 33.5q90 0 162 -23t127.5 -70.5t86 -127.5t31.5 -189h-614q0 -157 59 -242q44 -66 112 -96q59 -27 120 -26h18q70 4 136.5 32t117.5 74l45 -47q-91 -118 -206 -181t-226 -63q-93 0 -178 41.5t-139 114.5q-54 75 -77 180 q-14 65 -14 132q0 40 5 81zM297 604h362q0 104 -50 169t-134 65q-77 0 -127.5 -66t-50.5 -168z" />
<glyph unicode="f" horiz-adv-x="681" d="M20 0v61l123 52v696h-123v92h123v17q0 99 22 182q24 90 67 151t102 103t124.5 61t137.5 19q158 0 199 -105q12 -31 12 -59q0 -38 -21 -70q-36 -55 -102 -55q-70 2 -111 61q-22 32 -22 71q0 33 16 71q-74 -5 -111.5 -42.5t-53.5 -131.5q-13 -78 -13 -218v-55h236v-92h-236 v-696l195 -52v-61h-564z" />
<glyph unicode="g" horiz-adv-x="995" d="M25 -303v7q0 60 48 107q51 50 126 70q-78 36 -99 102q-7 21 -7 42q0 47 32 98q47 74 154 125q-83 37 -137 114.5t-54 192.5q0 165 107 266t290 101q65 0 160 -31l299 20v-112l-164 6q111 -115 111 -244q0 -72 -24 -131t-63 -97t-90.5 -66.5t-107.5 -38t-113 -12.5h-18 q-47 0 -90 11q-60 -28 -86 -54.5t-18.5 -45t31 -31t59.5 -18.5q27 -4 100 -4q47 0 114 2h56q123 0 164 -17q117 -36 155 -138q15 -40 15 -82q0 -65 -36 -133q-67 -127 -222 -190q-117 -48 -264 -48q-198 0 -311 57.5t-117 171.5zM200 -219q-4 -19 -4 -38q0 -37 16 -73 q25 -54 77 -80q79 -37 192 -37q4 0 9 1q119 1 204 38q50 22 78 70q22 36 22 71q0 13 -3 25q-10 49 -60 70q-49 20 -137 24q-80 5 -167 5q-10 0 -19 -1h-11q-90 0 -135 9q-49 -28 -62 -84zM326 573q5 -133 41 -203t122 -71h2q80 0 119 79q37 73 37 192v18q-9 254 -160 254h-4 q-81 -1 -121 -70q-37 -62 -37 -171q0 -14 1 -28z" />
<glyph unicode="h" horiz-adv-x="1132" d="M20 1317v67l379 50v-656q120 144 297 144q134 0 210.5 -82t76.5 -215v-512l119 -47v-66h-477v66l112 47v448q0 75 -25 125q-24 50 -64 66q-33 14 -70 13q-8 -1 -16 -1q-46 -4 -89.5 -31t-73.5 -69v-551l113 -47v-66h-475v66l117 47v1163z" />
<glyph unicode="i" horiz-adv-x="573" d="M51 827v64l359 31v-809l112 -52v-61h-467v61l109 52v669zM133 1270q0 62 40.5 102.5t102.5 40.5t103 -41t41 -102q0 -62 -41 -103t-103 -41q-61 0 -102 41t-41 103z" />
<glyph unicode="j" horiz-adv-x="530" d="M-184 -367q0 60 39.5 96t93.5 38h6q51 0 87 -51q21 -32 21 -64q0 -24 -12 -49q40 12 66 39t37 57t14 71q3 27 3 49q0 13 -1 25q-2 32 -5 72.5t-3 58.5v807l-113 45v64l359 31v-922q0 -105 -45 -200t-112.5 -157t-144.5 -98q-72 -34 -134 -34h-7q-62 0 -105 31t-44 91z M121 1270q0 62 40.5 102.5t102.5 40.5t103 -41t41 -102q0 -62 -41 -103t-103 -41q-61 0 -102 41t-41 103z" />
<glyph unicode="k" horiz-adv-x="1052" d="M20 1341v62l379 31v-940l287 254q18 17 18 32q0 26 -57 45v66h369v-66q-99 -12 -170 -73l-207 -179l285 -438q40 -58 129 -74v-61h-324l-264 422l-66 -55v-254l93 -52v-61h-461v61l123 52v1187z" />
<glyph unicode="l" horiz-adv-x="577" d="M20 1341v62l379 31v-1323l138 -45v-66h-506v66l123 45v1189z" />
<glyph unicode="m" horiz-adv-x="1720" d="M41 0v66l123 45v671l-107 45v64l353 31v-140q67 65 133.5 102.5t152.5 37.5q94 0 163 -38.5t106 -103.5q154 142 305 142q140 0 218.5 -76.5t78.5 -220.5v-514l123 -45v-66h-482v66l113 45v483q0 69 -31 116q-32 48 -80 62q-19 6 -39 5q-31 1 -67 -13q-60 -22 -111 -84 v-569l123 -45v-66h-481v66l113 45v493q0 48 -15.5 85t-41.5 57q-27 19 -61 25q-13 2 -26 2q-22 0 -45 -6q-37 -10 -76.5 -37t-72.5 -68v-551l112 -45v-66h-481z" />
<glyph unicode="n" horiz-adv-x="1167" d="M61 0v66l109 45v671l-107 45v64l353 31v-142q56 64 132.5 103t153.5 39q297 0 297 -330v-481l107 -45v-66h-465v66l113 45v493q0 87 -56 131q-39 31 -89 31q-23 0 -47 -6q-80 -19 -146 -101v-548l112 -45v-66h-467z" />
<glyph unicode="o" horiz-adv-x="1083" d="M51 440q0 207 142 344.5t348 137.5q134 0 245.5 -58.5t178.5 -168.5t67 -251q0 -97 -31.5 -178t-82.5 -135t-117 -91q-65 -38 -133 -54q-64 -15 -125 -15h-8q-68 1 -135 18.5t-130.5 55t-112 91t-77.5 132t-29 172.5zM317 418q11 -182 69 -264q56 -79 164 -78h11 q112 4 160 98q40 79 40 223q0 27 -1 56q-11 189 -72 283q-59 91 -167 91h-9q-198 -8 -198 -327q0 -39 3 -82z" />
<glyph unicode="p" horiz-adv-x="1150" d="M20 -451l123 62v1171l-123 45v66l369 29v-142q48 64 127 106q76 40 166 40h4q173 -3 288.5 -132.5t115.5 -357.5q0 -84 -26 -160t-70.5 -132t-100.5 -97t-118 -61.5t-122 -20.5q-81 0 -150.5 32.5t-113.5 76.5v-463l123 -62v-61h-492v61zM391 223q41 -58 89 -95t94 -49 q23 -6 45 -6q23 0 46 7q44 13 78 50t55.5 105t24.5 158v18q0 69 -13 133q-16 72 -45 126t-71 85t-90 35h-10q-43 0 -93 -30q-56 -34 -110 -105v-432z" />
<glyph unicode="q" horiz-adv-x="1150" d="M61 440q0 101 42 192.5t110 154t155 99t177 36.5q95 0 167 -12t148 -50l80 62h57v-1321l133 -52v-61h-512v59l134 52v497q-130 -122 -283 -125h-7q-163 0 -280 130q-121 133 -121 339zM297 428q10 -123 67 -204t132 -97q23 -5 47 -5q43 0 87 16q70 25 122 91v445 q-45 65 -116 102q-52 27 -110 27q-22 0 -45 -4q-89 -15 -143 -119q-43 -85 -43 -199q0 -26 2 -53z" />
<glyph unicode="r" horiz-adv-x="788" d="M31 0v68l123 45v667l-123 47v64l368 31v-181q48 109 146 159q49 25 92 25q44 0 82 -26q44 -29 49 -89q1 -7 1 -15q0 -50 -32 -84q-35 -37 -89 -39h-5q-51 0 -86 33q-25 23 -50 24t-45.5 -17t-35.5 -39t-27 -46v-514l185 -45v-68h-553z" />
<glyph unicode="s" horiz-adv-x="811" d="M55 624q1 56 31 110t78 96t117 67t145 25q139 0 276 -48l21 -270h-92q-18 70 -42 117.5t-53 71t-56.5 32t-61.5 6.5q-44 -2 -82 -33q-36 -32 -48 -76q-3 -13 -4 -25q0 -33 21 -70q19 -30 65.5 -50.5t100 -34.5t107.5 -33.5t99 -60t64 -100.5q17 -54 17 -100q0 -21 -4 -41 q-12 -62 -44 -107t-83.5 -75t-106.5 -45t-110 -17q-15 -1 -31 -1q-76 0 -149 13q-88 15 -134 39l-20 273h88q29 -128 84 -181q53 -51 126 -52q3 0 5 1q66 3 108 51q29 33 29 79q0 21 -6 44q-10 41 -48 67.5t-89.5 42t-105 32t-105 50.5t-78.5 85q-29 59 -29 118z" />
<glyph unicode="t" horiz-adv-x="704" d="M20 799v92q60 4 107.5 24t83.5 55.5t59.5 70t51.5 85.5h88v-235h235v-92h-235v-549q-1 -102 67 -132q25 -11 56 -11q54 0 129 32l22 -55q-38 -41 -92 -69t-111 -40q-40 -8 -81 -8q-18 0 -34 1q-58 5 -102 26t-72 64t-28 102v639h-144z" />
<glyph unicode="u" horiz-adv-x="1110" d="M20 807v63l355 31v-614q1 -96 51 -140q33 -29 77 -29q21 0 47 8q74 22 142 105v529l-114 45v67l360 29v-739q0 -37 30 -42q4 -1 7 -1q27 0 63 33l31 -54q-89 -129 -225 -129q-64 0 -108 38.5t-44 103.5q-74 -72 -109 -95q-71 -47 -157 -47q-297 0 -297 330v463z" />
<glyph unicode="v" horiz-adv-x="1001" d="M0 827v64h475v-64l-119 -47l211 -483l207 485l-117 45v64h344v-64l-112 -45l-346 -782l-92 -29l-359 811z" />
<glyph unicode="w" horiz-adv-x="1445" d="M0 827v64h467v-64l-127 -47l197 -450l239 592h60l274 -605l184 465l-125 45v64h318v-64l-86 -45l-316 -782l-63 -31l-279 604l-239 -573l-68 -29l-346 811z" />
<glyph unicode="x" horiz-adv-x="1003" d="M0 825v66h498v-64l-99 -47l152 -205l170 205l-82 47v64h348v-64l-104 -47l-256 -295l258 -372l119 -47v-66h-496v66l78 47l-131 184l-162 -184l80 -47v-66h-369v66l135 47l246 282l-272 385z" />
<glyph unicode="y" horiz-adv-x="1015" d="M-20 -379v9q0 51 31 87q34 39 93 39q37 0 67 -20.5t44 -48.5t11.5 -60t-25.5 -53q44 10 83 47.5t62 91.5l119 287l-365 782l-100 45v64h465v-64l-94 -45l217 -485l207 485l-117 45v64h358v-64l-108 -45l-463 -1093q-39 -91 -123 -146t-192 -55q-68 0 -117.5 35t-52.5 98z " />
<glyph unicode="z" horiz-adv-x="872" d="M41 645l41 246h702v-86l-434 -703h324l78 174h79l-40 -276h-748v86l453 713h-293l-86 -154h-76z" />
<glyph unicode="{" horiz-adv-x="638" d="M41 467v72q94 0 125.5 38t28.5 115q-3 57 -22 118.5t-52 143.5t-51 140q-13 48 -10 94.5t27 86.5t58.5 72.5t85.5 53.5t107.5 29t124 -1t135.5 -36l-20 -56q-60 21 -108 20t-84 -17.5t-60 -44.5t-36 -62t-11.5 -71t12.5 -70q13 -35 50.5 -110.5t58.5 -143t22 -148.5 q2 -72 -43.5 -122.5t-126.5 -65.5q80 -9 126 -62.5t44 -124.5q-1 -81 -22 -148.5t-58.5 -142.5t-50.5 -110q-26 -70 -6 -141t85.5 -107.5t186.5 2.5l21 -55q-123 -50 -227 -39.5t-175.5 55.5t-101.5 122t-4 161q18 59 51 140.5t52 142.5t22 118q3 78 -29 116t-125 38z" />
<glyph unicode="|" horiz-adv-x="133" d="M20 -365v1803h93v-1803h-93z" />
<glyph unicode="}" horiz-adv-x="638" d="M41 1393q68 27 135.5 36t124 1t107.5 -29t85.5 -53.5t58.5 -72.5t27 -86.5t-10 -94.5q-18 -58 -51 -140t-52 -143.5t-22 -118.5q-3 -77 28.5 -115t125.5 -38v-72q-93 0 -125 -38t-29 -116q3 -57 22 -118t52 -142.5t51 -140.5q26 -84 -4 -161t-101.5 -122t-175.5 -55.5 t-227 39.5l21 55q60 -20 106.5 -19.5t80 17t55 45t31 62.5t7.5 71t-14 70q-13 35 -50.5 110t-58.5 142.5t-22 148.5q-2 71 44 124.5t126 62.5q-81 15 -126.5 65.5t-43.5 122.5q1 81 22 148.5t58.5 143t50.5 110.5q26 70 1 141t-96 106.5t-192 -2.5z" />
<glyph unicode="~" horiz-adv-x="819" d="M20 571q0 141 68 218t156 77q51 0 94.5 -18t75 -44t61 -52t65.5 -44t76 -18q49 -2 85 36.5t47 119.5l51 -35q-1 -146 -68 -224.5t-168 -78.5q-43 0 -83.5 19t-73 46.5t-64.5 55t-70 46.5t-77 19q-52 -2 -86 -43t-35 -108z" />
<glyph unicode="&#xa1;" horiz-adv-x="409" d="M57 1147q0 61 41 102t103 41q61 0 102 -41t41 -102t-41 -102t-102 -41q-62 0 -103 41t-41 102zM80 -31l76 908h102l78 -908h-256z" />
<glyph unicode="&#xa2;" horiz-adv-x="880" d="M19 433.5q-1 81.5 22.5 163t67 148t117 113.5t167.5 60v417h92v-413q130 -5 227.5 -65.5t112.5 -147.5q9 -52 -24.5 -90.5t-85.5 -38.5q-50 0 -84 37t-47 92q-25 98 -99 122v-669q79 -21 166.5 4t165.5 86l43 -45q-167 -210 -375 -240v-434h-92v432q-89 7 -164.5 53 t-128.5 123q-39 57 -59.5 134t-21.5 158.5zM255 489q11 -122 69 -206q29 -45 69 -74v625q-73 -25 -111 -124t-27 -221z" />
<glyph unicode="&#xa3;" horiz-adv-x="1085" d="M20 23l21 61q40 -37 84 -37q93 0 127.5 145t34.5 463h-123v93h123q-2 150 22 269.5t66.5 196.5t102 127.5t124 71.5t137.5 21q90 0 147 -29t77 -76q19 -44 0.5 -87t-62.5 -58q-53 -18 -114.5 23.5t-75.5 140.5q-75 -5 -112 -50.5t-53.5 -172t-13.5 -377.5h216v-93h-216 q0 -293 -65 -462q61 36 118 43t90.5 -4t82 -33t73.5 -29q126 -30 177 143l57 -39q-1 -97 -44.5 -171.5t-110.5 -106.5t-136 -16q-48 12 -93 37t-71.5 48t-58.5 45t-55 26.5t-60 -7.5q-90 -158 -264 -158q-103 0 -152 52z" />
<glyph unicode="&#xa4;" horiz-adv-x="1044" d="M20 727q0 174 105 301l-84 84l74 74l86 -88q132 92 311 92q174 0 315 -103l93 91l73 -72l-90 -88q121 -137 121 -307q0 -199 -115 -326l76 -76l-74 -69l-80 79q-125 -83 -315 -83q-185 0 -311 94l-82 -82l-74 71l82 80q-111 129 -111 328zM190 721q0 -165 94 -267 t238 -102q84 0 157 39.5t121 119.5t48 185q0 147 -100.5 260t-233.5 113q-139 0 -231.5 -99.5t-92.5 -248.5z" />
<glyph unicode="&#xa5;" horiz-adv-x="1390" d="M20 1352v82h582v-82l-166 -49l309 -439l306 439l-150 49v82h469v-82l-153 -49l-390 -551h252v-103h-291v-164h291v-102h-291v-252l166 -49v-82h-598v82l166 49v252h-256v102h256v164h-256v103h223l-335 551z" />
<glyph unicode="&#xa6;" horiz-adv-x="1269" />
<glyph unicode="&#xa7;" horiz-adv-x="1247" d="M20 285q-9 166 77 274.5t233 147.5q-184 125 -197 272q-10 113 52 225.5t174 185.5t237 74q230 6 455 -106v-328h-99q-3 146 -89 247t-199 101q-109 0 -183 -85.5t-55 -182.5q7 -33 54 -76t117.5 -87.5t154 -94.5t166.5 -105t151.5 -110.5t112 -118.5t45.5 -123 q4 -154 -90.5 -265.5t-249.5 -145.5q183 -132 186 -303q1 -196 -134 -314.5t-339 -118.5q-244 0 -459 162v318h109q-6 -179 79.5 -292.5t219.5 -119.5q74 -4 129.5 32t81 93t22.5 121q-2 45 -35 88t-85.5 79t-119.5 75.5t-137 76t-137.5 81.5t-121 91t-88 106.5t-38.5 125.5 zM293 436q2 -43 25.5 -82.5t57 -69.5t87.5 -63.5t101 -57t115 -58t112 -60.5q78 14 125 65.5t40 125.5q-5 55 -39.5 103.5t-97.5 91.5t-121.5 74.5t-148 76.5t-141.5 75q-53 -30 -85.5 -91.5t-29.5 -129.5z" />
<glyph unicode="&#xa8;" horiz-adv-x="880" d="M164 1251q0 44 28.5 72.5t71.5 28.5t73 -28.5t30 -72.5q0 -42 -30 -71t-73 -29t-71.5 28.5t-28.5 71.5zM514 1251q0 44 28.5 72.5t71.5 28.5t73 -28.5t30 -72.5q0 -42 -30 -71t-73 -29t-71.5 28.5t-28.5 71.5z" />
<glyph unicode="&#xa9;" horiz-adv-x="1736" d="M20 627q0 173 67 330t180.5 270.5t270.5 180.5t330 67t330 -67t270.5 -180.5t180.5 -270.5t67 -330t-67 -330t-180.5 -270.5t-270.5 -180.5t-330 -67t-330 67t-270.5 180.5t-180.5 270.5t-67 330zM111 627q0 -154 60 -294.5t161.5 -242t241.5 -161.5t294 -60t294.5 60 t242 161.5t161.5 242t60 294.5t-60 294.5t-161.5 242t-242 162t-294.5 60.5q-206 0 -380 -102t-275.5 -276.5t-101.5 -380.5zM426.5 567.5q-2.5 73.5 10 147.5t48 140.5t86 118t128 81.5t171.5 30q136 0 241 -61.5t120 -151.5q9 -52 -25 -90.5t-86 -38.5q-50 0 -84 37 t-47 92q-15 63 -53.5 97.5t-95.5 34.5q-65 0 -111.5 -61t-61.5 -147t0 -184t62 -166q60 -87 148.5 -115t176.5 -3.5t169 88.5l43 -45q-95 -119 -207 -181t-213.5 -63t-191 45t-148.5 133q-35 52 -56 120.5t-23.5 142z" />
<glyph unicode="&#xab;" horiz-adv-x="897" d="M41 387v150l428 313v-188l-305 -201l303 -201v-190zM428 387v150l428 313v-188l-305 -201l303 -201v-190z" />
<glyph unicode="&#xac;" horiz-adv-x="731" d="M20 643v102h691v-303h-107v201h-584z" />
<glyph unicode="&#xad;" horiz-adv-x="567" d="M31 522v103h506v-103h-506z" />
<glyph unicode="&#xae;" horiz-adv-x="1736" d="M20 627q0 173 67 330t180.5 270.5t270.5 180.5t330 67t330 -67t270.5 -180.5t180.5 -270.5t67 -330t-67 -330t-180.5 -270.5t-270.5 -180.5t-330 -67t-330 67t-270.5 180.5t-180.5 270.5t-67 330zM111 627q0 -154 60 -294.5t161.5 -242t241.5 -161.5t294 -60t294.5 60 t242 161.5t161.5 242t60 294.5t-60 294.5t-161.5 242t-242 162t-294.5 60.5q-206 0 -380 -102t-275.5 -276.5t-101.5 -380.5zM479 184v54l92 30v748l-92 31v57h422q139 0 229.5 -72t90.5 -182q0 -92 -43 -158t-127 -96l155 -328l86 -30v-54h-356v54l92 30l-143 305h-142 v-305l93 -30v-54h-357zM743 655q87 -4 145.5 8t88.5 40.5t41.5 63t11.5 83.5q0 88 -70.5 140t-216.5 36v-371z" />
<glyph unicode="&#xaf;" horiz-adv-x="1044" d="M205 1249v103h649v-103h-649z" />
<glyph unicode="&#xb0;" horiz-adv-x="446" d="M20 1231q0 85 59 144t144 59t144 -59t59 -144t-59 -144t-144 -59t-144 59t-59 144zM102 1231q0 -50 35 -85.5t86 -35.5q49 0 84 35.5t35 85.5q0 48 -35 83.5t-84 35.5q-50 0 -85.5 -35.5t-35.5 -83.5z" />
<glyph unicode="&#xb1;" horiz-adv-x="854" d="M20 0v102h814v-102h-814zM20 604v103h357v315h102v-315h355v-103h-355v-313h-102v313h-357z" />
<glyph unicode="&#xb4;" horiz-adv-x="874" d="M221 1063l457 319l63 -108l-485 -268z" />
<glyph unicode="&#xb6;" horiz-adv-x="788" d="M20 1094q0 147 100.5 245.5t248.5 98.5h399v-1659h-92v1556h-215v-1556h-92v969q-148 0 -248.5 99.5t-100.5 246.5z" />
<glyph unicode="&#xb7;" horiz-adv-x="368" d="M41 520q0 62 41 103t102 41q62 0 103 -41t41 -103q0 -61 -41 -102t-103 -41t-102.5 40.5t-40.5 102.5z" />
<glyph unicode="&#xb8;" horiz-adv-x="1228" d="M285 -643q167 -7 263.5 63.5t96.5 184.5q0 78 -43 135.5t-118 70.5t-177 -47l-8 72l135 184l111 -20l-101 -127q62 30 126.5 33.5t118.5 -17.5t97 -57t67 -87t24 -107q0 -88 -38.5 -155.5t-98.5 -106.5t-141 -62t-157.5 -29.5t-156.5 -1.5v74z" />
<glyph unicode="&#xbb;" horiz-adv-x="897" d="M41 662v188l428 -313v-150l-426 -317v190l303 201zM428 662v188l428 -313v-150l-426 -317v190l303 201z" />
<glyph unicode="&#xbc;" horiz-adv-x="1843" d="M66 1163v125l301 146h79v-668l127 -49v-62h-505v62l143 49v459zM242 -4l1001 1438h109l-1008 -1438h-102zM778 193v53l346 502l248 71v-545h133v-81h-133v-189h-246v189h-348zM897 274h229v340z" />
<glyph unicode="&#xbd;" horiz-adv-x="1433" d="M25 1163v125l301 146h80v-668l126 -49v-62h-505v62l143 49v459zM145 -4l1002 1438h108l-1007 -1438h-103zM807 0v168q112 64 185 120.5t106 104.5t44 83.5t11 78.5q0 65 -37 102.5t-82.5 38t-85 -34t-43.5 -96.5h-74q3 105 76.5 169.5t188.5 64.5q132 0 214.5 -70 t82.5 -174q0 -41 -18 -79.5t-63.5 -85t-133.5 -100t-217 -112.5h262q17 0 29 3t26.5 12.5t27 31t23.5 56.5h74l-41 -281h-555z" />
<glyph unicode="&#xbe;" horiz-adv-x="1638" d="M121 731q-41 78 2 111q36 27 96 4q71 -28 103 -102q7 -19 12 -39q87 -10 133.5 41t46.5 124q0 72 -60 105.5t-202 19.5l-29 45q279 42 279 197q0 58 -32.5 88t-75.5 27.5t-87 -29.5t-65 -72l-64 21q37 87 121 135.5t176 46.5q104 -2 170 -48t70 -132q5 -77 -54 -129.5 t-169 -67.5q107 0 187.5 -51.5t80.5 -142.5q0 -105 -91 -178t-253 -76q-84 -2 -175 22t-120 80zM383 -4l1001 1438h109l-1008 -1438h-102zM901 193v53l346 502l248 71v-545h133v-81h-133v-189h-246v189h-348zM1020 274h229v340z" />
<glyph unicode="&#xbf;" horiz-adv-x="802" d="M72 -102q0 111 64.5 196t193.5 160q118 69 141 86q59 45 53 98q-5 40 -45 101h84q37 -44 61.5 -89t33.5 -98.5t-5.5 -103.5t-62.5 -102.5t-129 -96.5q-310 -170 -223 -323q31 -55 99.5 -70.5t138.5 15.5t102 98q-29 29 -30.5 65.5t17.5 65.5t52.5 49t70.5 20 q47 0 85.5 -34t53 -83.5t-11.5 -111.5t-96 -111q-116 -82 -279 -80q-149 3 -258.5 110t-109.5 239zM395 778q0 62 41.5 103t102.5 41t102 -41t41 -103t-41 -102.5t-102 -40.5q-62 0 -103 41t-41 102z" />
<glyph unicode="&#xc0;" d="M-20 0v82l120 49l469 1221h172l471 -1221l117 -49v-82h-557v82l150 49l-129 330h-420l-127 -330l143 -49v-82h-409zM420 594h323l-155 440zM469 1722l63 109l457 -320l-35 -57z" />
<glyph unicode="&#xc1;" d="M-20 0v82l120 49l469 1221h172l471 -1221l117 -49v-82h-557v82l150 49l-129 330h-420l-127 -330l143 -49v-82h-409zM387 1458l457 320l63 -109l-485 -268zM420 594h323l-155 440z" />
<glyph unicode="&#xc2;" d="M-20 0v82l120 49l469 1221h172l471 -1221l117 -49v-82h-557v82l150 49l-129 330h-420l-127 -330l143 -49v-82h-409zM334 1526l301 405h96l301 -407h-86l-262 243l-262 -241h-88zM420 594h323l-155 440z" />
<glyph unicode="&#xc3;" d="M-20 0v82l120 49l469 1221h172l471 -1221l117 -49v-82h-557v82l150 49l-129 330h-420l-127 -330l143 -49v-82h-409zM362 1511q0 127 68.5 201t155.5 74q48 0 94 -21t76 -46.5t68.5 -46.5t72.5 -21q54 0 87 32t44 123l51 -34q-1 -134 -59.5 -208.5t-155.5 -74.5 q-38 0 -85 22.5t-83.5 50t-80.5 50t-78 22.5q-51 0 -85.5 -42t-35.5 -109zM420 594h323l-155 440z" />
<glyph unicode="&#xc4;" d="M-20 0v82l120 49l469 1221h172l471 -1221l117 -49v-82h-557v82l150 49l-129 330h-420l-127 -330l143 -49v-82h-409zM420 594h323l-155 440zM428 1618q0 44 28.5 72t71.5 28t73 -28t30 -72q0 -42 -30 -71t-73 -29t-71.5 28.5t-28.5 71.5zM778 1618q0 44 29 72t72 28 t72.5 -28t29.5 -72q0 -43 -29.5 -71.5t-72.5 -28.5t-72 28.5t-29 71.5z" />
<glyph unicode="&#xc5;" d="M-20 0v82l120 49l469 1221h172l471 -1221l117 -49v-82h-557v82l150 49l-129 330h-420l-127 -330l143 -49v-82h-409zM420 594h323l-155 440zM494 1671q0 85 58.5 144t143.5 59t144 -59t59 -144t-59 -144t-144 -59t-143.5 59t-58.5 144zM575 1671q0 -50 35 -85.5t86 -35.5 q49 0 84 35.5t35 85.5q0 48 -35 83.5t-84 35.5q-50 0 -85.5 -35.5t-35.5 -83.5z" />
<glyph unicode="&#xc6;" horiz-adv-x="2609" d="M-20 0v82l120 49l469 1221h172l471 -1221l117 -49v-82h-557v82l150 49l-129 330h-420l-127 -330l143 -49v-82h-409zM420 594h323l-155 440zM1370 0v84l146 49v1084l-146 49v86h1157l21 -338h-113l-80 194h-532q-17 0 -29 -12t-12 -29v-366q0 -17 12 -29t29 -12h375 l49 131h92v-397h-94l-47 122h-375q-17 0 -29 -12t-12 -29v-391q0 -17 12 -29t29 -12h532l80 195h113l-21 -338h-1157z" />
<glyph unicode="&#xc7;" horiz-adv-x="1419" d="M61 649q0 151 40.5 274t111 206.5t169.5 140t212 83t242 27.5q135 2 275.5 -29.5t246.5 -97.5l20 -327h-139q-15 148 -126 232.5t-284 84.5q-98 2 -181.5 -36.5t-146.5 -112.5t-98 -192t-34 -267q3 -252 140 -394t345 -139q109 0 185.5 29t126 101.5t59.5 189.5h139 l-21 -369q-312 -88 -530 -86q-120 1 -225 22t-204 70.5t-169 125.5t-112 194.5t-42 269.5zM428 -651q167 -7 263.5 63.5t96.5 184.5q0 78 -42.5 135.5t-117.5 70.5t-177 -47l-9 72l136 184l110 -20l-100 -127q80 39 157.5 32.5t138.5 -41t98.5 -96t37.5 -131.5 q0 -88 -38.5 -155.5t-98.5 -106t-141 -61.5t-157.5 -29.5t-156.5 -1.5v74z" />
<glyph unicode="&#xc8;" horiz-adv-x="1300" d="M61 0v84l146 49v1084l-146 49v86h1158l20 -338h-113l-79 194h-533q-17 0 -29 -12t-12 -29v-366q0 -17 12 -29t29 -12h375l49 131h92v-397h-94l-47 122h-375q-17 0 -29 -12t-12 -29v-391q0 -17 12 -29t29 -12h533l79 195h113l-20 -338h-1158zM293 1735l63 108l457 -319 l-35 -58z" />
<glyph unicode="&#xc9;" horiz-adv-x="1300" d="M61 0v84l146 49v1084l-146 49v86h1158l20 -338h-113l-79 194h-533q-17 0 -29 -12t-12 -29v-366q0 -17 12 -29t29 -12h375l49 131h92v-397h-94l-47 122h-375q-17 0 -29 -12t-12 -29v-391q0 -17 12 -29t29 -12h533l79 195h113l-20 -338h-1158zM383 1538l457 320l63 -109 l-485 -268z" />
<glyph unicode="&#xca;" horiz-adv-x="1300" d="M61 0v84l146 49v1084l-146 49v86h1158l20 -338h-113l-79 194h-533q-17 0 -29 -12t-12 -29v-366q0 -17 12 -29t29 -12h375l49 131h92v-397h-94l-47 122h-375q-17 0 -29 -12t-12 -29v-391q0 -17 12 -29t29 -12h533l79 195h113l-20 -338h-1158zM293 1518l301 405h96 l301 -407h-86l-262 243l-262 -241h-88z" />
<glyph unicode="&#xcb;" horiz-adv-x="1300" d="M61 0v84l146 49v1084l-146 49v86h1158l20 -338h-113l-79 194h-533q-17 0 -29 -12t-12 -29v-366q0 -17 12 -29t29 -12h375l49 131h92v-397h-94l-47 122h-375q-17 0 -29 -12t-12 -29v-391q0 -17 12 -29t29 -12h533l79 195h113l-20 -338h-1158zM377 1610q0 44 28.5 72 t71.5 28t73 -28t30 -72q0 -43 -30 -72t-73 -29t-71.5 29t-28.5 72zM727 1610q0 44 28.5 72t71.5 28t73 -28t30 -72q0 -43 -30 -72t-73 -29t-71.5 29t-28.5 72z" />
<glyph unicode="&#xcc;" horiz-adv-x="679" d="M61 0v82l146 49v1090l-146 49v82h557v-82l-145 -49v-1090l145 -49v-82h-557zM61 1755l64 109l457 -320l-35 -57z" />
<glyph unicode="&#xcd;" horiz-adv-x="679" d="M61 0v82l146 49v1090l-146 49v82h557v-82l-145 -49v-1090l145 -49v-82h-557zM76 1528l456 319l64 -108l-485 -269z" />
<glyph unicode="&#xce;" horiz-adv-x="679" d="M61 0v82l146 49v1090l-146 49v82h557v-82l-145 -49v-1090l145 -49v-82h-557zM61 1511l301 406h97l301 -408h-86l-262 244l-262 -242h-89z" />
<glyph unicode="&#xcf;" horiz-adv-x="679" d="M61 0v82l146 49v1090l-146 49v82h557v-82l-145 -49v-1090l145 -49v-82h-557zM74 1606q0 44 28.5 72t71.5 28t72.5 -28t29.5 -72q0 -43 -29.5 -72t-72.5 -29t-71.5 29t-28.5 72zM424 1606q0 44 28.5 72t71.5 28t73 -28t30 -72q0 -43 -30 -72t-73 -29t-71.5 29t-28.5 72z " />
<glyph unicode="&#xd0;" horiz-adv-x="1521" d="M61 1260v92h656q108 0 211.5 -23.5t201 -77t170.5 -130.5t117 -192.5t43 -254.5q0 -110 -22 -203t-60 -161.5t-92 -122t-115.5 -88.5t-134 -57.5t-144 -32t-149.5 -9.5h-680v88l162 49v1073zM143 645v103h506v-103h-506zM492 166q0 -34 38 -41q606 -108 613 528 q1 92 -13.5 170.5t-41.5 137t-64.5 106.5t-82.5 78.5t-95.5 53t-104 30t-107.5 10t-106 -7.5q-36 -6 -36 -41v-1024z" />
<glyph unicode="&#xd1;" horiz-adv-x="1470" d="M61 0v82l146 49v1090l-146 49v82h291l758 -887v752l-141 51v84h440v-82l-145 -49v-1221h-152l-762 893v-762l166 -49v-82h-455zM354 1505q0 127 68.5 201t155.5 74q48 0 94 -21t76 -46.5t68.5 -46.5t72.5 -21q54 0 87 32t44 123l51 -35q-1 -134 -59.5 -208t-155.5 -74 q-38 0 -85 22.5t-84 50t-81 50t-78 22.5q-51 0 -85 -42t-35 -109z" />
<glyph unicode="&#xd2;" horiz-adv-x="1585" d="M61 649q0 196 93.5 363.5t254.5 266t351 99.5q123 1 237 -27.5t210 -85.5t167 -136.5t111 -187t39 -230.5q-1 -348 -199.5 -545t-538.5 -197q-149 0 -279 43.5t-230 126.5t-158 214.5t-58 295.5zM367 655q1 -76 17.5 -153t52.5 -152t86.5 -132t125.5 -92t164 -34 q92 1 172 55.5t130.5 139.5t78 188.5t23.5 204.5q-4 106 -33.5 206.5t-81.5 183.5t-133.5 133.5t-180.5 51.5q-123 2 -222.5 -89.5t-150 -228.5t-48.5 -282zM569 1733l64 108l457 -319l-35 -58z" />
<glyph unicode="&#xd3;" horiz-adv-x="1585" d="M61 649q0 196 93.5 363.5t254.5 266t351 99.5q123 1 237 -27.5t210 -85.5t167 -136.5t111 -187t39 -230.5q-1 -348 -199.5 -545t-538.5 -197q-149 0 -279 43.5t-230 126.5t-158 214.5t-58 295.5zM367 655q1 -76 17.5 -153t52.5 -152t86.5 -132t125.5 -92t164 -34 q92 1 172 55.5t130.5 139.5t78 188.5t23.5 204.5q-4 106 -33.5 206.5t-81.5 183.5t-133.5 133.5t-180.5 51.5q-123 2 -222.5 -89.5t-150 -228.5t-48.5 -282zM434 1501l457 320l63 -109l-485 -268z" />
<glyph unicode="&#xd4;" horiz-adv-x="1585" d="M61 649q0 196 93.5 363.5t254.5 266t351 99.5q123 1 237 -27.5t210 -85.5t167 -136.5t111 -187t39 -230.5q-1 -348 -199.5 -545t-538.5 -197q-149 0 -279 43.5t-230 126.5t-158 214.5t-58 295.5zM367 655q1 -76 17.5 -153t52.5 -152t86.5 -132t125.5 -92t164 -34 q92 1 172 55.5t130.5 139.5t78 188.5t23.5 204.5q-4 106 -33.5 206.5t-81.5 183.5t-133.5 133.5t-180.5 51.5q-123 2 -222.5 -89.5t-150 -228.5t-48.5 -282zM430 1513l301 406h96l301 -408h-86l-262 244l-262 -242h-88z" />
<glyph unicode="&#xd5;" horiz-adv-x="1585" d="M61 649q0 196 93.5 363.5t254.5 266t351 99.5q123 1 237 -27.5t210 -85.5t167 -136.5t111 -187t39 -230.5q-1 -348 -199.5 -545t-538.5 -197q-149 0 -279 43.5t-230 126.5t-158 214.5t-58 295.5zM367 655q1 -76 17.5 -153t52.5 -152t86.5 -132t125.5 -92t164 -34 q92 1 172 55.5t130.5 139.5t78 188.5t23.5 204.5q-4 106 -33.5 206.5t-81.5 183.5t-133.5 133.5t-180.5 51.5q-123 2 -222.5 -89.5t-150 -228.5t-48.5 -282zM426 1511q0 127 68 201t155 74q40 0 77 -14t65.5 -34t55.5 -39.5t56.5 -33.5t57.5 -14q54 0 87 32t44 123l51 -34 q-1 -134 -59.5 -208.5t-155.5 -74.5q-38 0 -85 22.5t-84 50t-81 50t-78 22.5q-51 0 -85.5 -42t-35.5 -109z" />
<glyph unicode="&#xd6;" horiz-adv-x="1585" d="M61 649q0 196 93.5 363.5t254.5 266t351 99.5q123 1 237 -27.5t210 -85.5t167 -136.5t111 -187t39 -230.5q-1 -348 -199.5 -545t-538.5 -197q-149 0 -279 43.5t-230 126.5t-158 214.5t-58 295.5zM367 655q1 -76 17.5 -153t52.5 -152t86.5 -132t125.5 -92t164 -34 q92 1 172 55.5t130.5 139.5t78 188.5t23.5 204.5q-4 106 -33.5 206.5t-81.5 183.5t-133.5 133.5t-180.5 51.5q-123 2 -222.5 -89.5t-150 -228.5t-48.5 -282zM510 1606q0 44 28.5 72t71.5 28t73 -28t30 -72q0 -43 -30 -72t-73 -29t-71.5 29t-28.5 72zM860 1606q0 44 29 72 t72 28t72.5 -28t29.5 -72q0 -43 -29.5 -72t-72.5 -29t-72 29t-29 72z" />
<glyph unicode="&#xd7;" horiz-adv-x="690" d="M20 702l74 74l576 -577l-74 -70z" />
<glyph unicode="&#xd8;" horiz-adv-x="1585" d="M61 649q0 196 93.5 363.5t254.5 266t351 99.5q123 1 237 -27.5t210 -85.5t167 -136.5t111 -187t39 -230.5q-1 -348 -199.5 -545t-538.5 -197q-149 0 -279 43.5t-230 126.5t-158 214.5t-58 295.5zM367 655q1 -76 17.5 -153t52.5 -152t86.5 -132t125.5 -92t164 -34 q92 1 172 55.5t130.5 139.5t78 188.5t23.5 204.5q-4 106 -33.5 206.5t-81.5 183.5t-133.5 133.5t-180.5 51.5q-123 2 -222.5 -89.5t-150 -228.5t-48.5 -282zM424 -276l541 1802h98l-547 -1802h-92z" />
<glyph unicode="&#xd9;" horiz-adv-x="1386" d="M61 1270v82h537v-82l-145 -49v-734q0 -139 87.5 -242.5t219.5 -103.5t219.5 103.5t87.5 242.5v734l-145 49v82h403v-82l-125 -49v-740q0 -138 -71 -255.5t-190 -185t-257 -67.5q-137 0 -251 67.5t-179.5 183.5t-65.5 255v742zM326 1741l63 108l457 -319l-35 -57z" />
<glyph unicode="&#xda;" horiz-adv-x="1386" d="M61 1270v82h537v-82l-145 -49v-734q0 -139 87.5 -242.5t219.5 -103.5t219.5 103.5t87.5 242.5v734l-145 49v82h403v-82l-125 -49v-740q0 -138 -71 -255.5t-190 -185t-257 -67.5q-137 0 -251 67.5t-179.5 183.5t-65.5 255v742zM672 1522l456 319l64 -108l-485 -269z" />
<glyph unicode="&#xdb;" horiz-adv-x="1386" d="M61 1270v82h537v-82l-145 -49v-734q0 -139 87.5 -242.5t219.5 -103.5t219.5 103.5t87.5 242.5v734l-145 49v82h403v-82l-125 -49v-740q0 -138 -71 -255.5t-190 -185t-257 -67.5q-137 0 -251 67.5t-179.5 183.5t-65.5 255v742zM393 1513l301 406h97l301 -408h-86l-263 244 l-262 -242h-88z" />
<glyph unicode="&#xdc;" horiz-adv-x="1386" d="M61 1270v82h537v-82l-145 -49v-734q0 -139 87.5 -242.5t219.5 -103.5t219.5 103.5t87.5 242.5v734l-145 49v82h403v-82l-125 -49v-740q0 -138 -71 -255.5t-190 -185t-257 -67.5q-137 0 -251 67.5t-179.5 183.5t-65.5 255v742zM485 1612q0 44 29 72t72 28t72.5 -28 t29.5 -72q0 -43 -29.5 -72t-72.5 -29t-72 29t-29 72zM836 1612q0 44 28.5 72t71.5 28t72.5 -28t29.5 -72q0 -43 -29.5 -72t-72.5 -29t-71.5 29t-28.5 72z" />
<glyph unicode="&#xdd;" d="M0 1270v82h582v-82l-166 -49l289 -439l284 439l-149 49v82h469v-82l-154 -49l-407 -607v-483l165 -49v-82h-598v82l166 49v483l-348 607zM655 1546l457 320l64 -109l-486 -268z" />
<glyph unicode="&#xde;" horiz-adv-x="1351" />
<glyph unicode="&#xdf;" horiz-adv-x="1095" d="M20 799v92h142v55q0 227 126 357.5t337 130.5q108 0 196 -30.5t142 -80t83.5 -108.5t30.5 -121q3 -224 -293 -340q108 0 207.5 -45.5t165.5 -134t66 -199.5q0 -78 -31 -150.5t-82.5 -126.5t-121 -84t-143 -30.5t-153.5 42t-147 126.5l57 45q69 -47 127.5 -61.5t97.5 -1 t66.5 46t40 74t12.5 87.5q0 157 -121 258t-288 86v51q278 122 278 361q0 122 -57 188.5t-174 59.5q-109 -7 -145 -109q-23 -64 -30 -234v-19q-1 -10 -1 -15v-856l112 -52v-61h-493v61l135 52v686h-142z" />
<glyph unicode="&#xe0;" horiz-adv-x="995" d="M51 231q0 96 72.5 169t193 111t271.5 40q0 82 -31.5 136t-82 72t-110 13.5t-119 -34.5t-104.5 -76l-45 55q64 91 162.5 148t216.5 57q72 0 135 -21.5t114 -63t80.5 -111t29.5 -157.5v-405q0 -37 30 -42t70 32l31 -54q-89 -129 -226 -129q-64 0 -107.5 38.5t-43.5 103.5 q-126 -144 -266 -144q-111 0 -191 74.5t-80 187.5zM180 1274l64 108l456 -319l-34 -57zM250 262q2 -54 33 -90t77.5 -45.5t108 13.5t119.5 79v240q-163 0 -252 -58t-86 -139z" />
<glyph unicode="&#xe1;" horiz-adv-x="995" d="M51 231q0 96 72.5 169t193 111t271.5 40q0 82 -31.5 136t-82 72t-110 13.5t-119 -34.5t-104.5 -76l-45 55q64 91 162.5 148t216.5 57q72 0 135 -21.5t114 -63t80.5 -111t29.5 -157.5v-405q0 -37 30 -42t70 32l31 -54q-89 -129 -226 -129q-64 0 -107.5 38.5t-43.5 103.5 q-126 -144 -266 -144q-111 0 -191 74.5t-80 187.5zM180 1063l457 319l63 -108l-485 -268zM250 262q2 -54 33 -90t77.5 -45.5t108 13.5t119.5 79v240q-163 0 -252 -58t-86 -139z" />
<glyph unicode="&#xe2;" horiz-adv-x="995" d="M51 231q0 96 72.5 169t193 111t271.5 40q0 82 -31.5 136t-82 72t-110 13.5t-119 -34.5t-104.5 -76l-45 55q64 91 162.5 148t216.5 57q72 0 135 -21.5t114 -63t80.5 -111t29.5 -157.5v-405q0 -37 30 -42t70 32l31 -54q-89 -129 -226 -129q-64 0 -107.5 38.5t-43.5 103.5 q-126 -144 -266 -144q-111 0 -191 74.5t-80 187.5zM88 1028l301 406h96l301 -408h-86l-262 244l-262 -242h-88zM250 262q2 -54 33 -90t77.5 -45.5t108 13.5t119.5 79v240q-163 0 -252 -58t-86 -139z" />
<glyph unicode="&#xe3;" horiz-adv-x="995" d="M51 231q0 96 72.5 169t193 111t271.5 40q0 82 -31.5 136t-82 72t-110 13.5t-119 -34.5t-104.5 -76l-45 55q64 91 162.5 148t216.5 57q72 0 135 -21.5t114 -63t80.5 -111t29.5 -157.5v-405q0 -37 30 -42t70 32l31 -54q-89 -129 -226 -129q-64 0 -107.5 38.5t-43.5 103.5 q-126 -144 -266 -144q-111 0 -191 74.5t-80 187.5zM55 1104q0 127 68.5 200.5t155.5 73.5q48 0 94 -21t76 -46.5t68.5 -46.5t72.5 -21q53 0 86.5 32.5t44.5 123.5l51 -35q-1 -134 -59.5 -208.5t-155.5 -74.5q-38 0 -85 23t-84 50t-81 50t-78 23q-51 0 -85 -42.5t-35 -109.5z M250 262q2 -54 33 -90t77.5 -45.5t108 13.5t119.5 79v240q-163 0 -252 -58t-86 -139z" />
<glyph unicode="&#xe4;" horiz-adv-x="995" d="M51 231q0 96 72.5 169t193 111t271.5 40q0 82 -31.5 136t-82 72t-110 13.5t-119 -34.5t-104.5 -76l-45 55q64 91 162.5 148t216.5 57q72 0 135 -21.5t114 -63t80.5 -111t29.5 -157.5v-405q0 -37 30 -42t70 32l31 -54q-89 -129 -226 -129q-64 0 -107.5 38.5t-43.5 103.5 q-126 -144 -266 -144q-111 0 -191 74.5t-80 187.5zM184 1251q0 44 29 72.5t72 28.5t72.5 -28.5t29.5 -72.5q0 -43 -29.5 -71.5t-72.5 -28.5t-72 28.5t-29 71.5zM250 262q2 -54 33 -90t77.5 -45.5t108 13.5t119.5 79v240q-163 0 -252 -58t-86 -139zM535 1251q0 44 28.5 72.5 t71.5 28.5t72.5 -28.5t29.5 -72.5q0 -43 -29.5 -71.5t-72.5 -28.5t-71.5 28.5t-28.5 71.5z" />
<glyph unicode="&#xe5;" horiz-adv-x="995" d="M51 231q0 96 72.5 169t193 111t271.5 40q0 82 -31.5 136t-82 72t-110 13.5t-119 -34.5t-104.5 -76l-45 55q64 91 162.5 148t216.5 57q72 0 135 -21.5t114 -63t80.5 -111t29.5 -157.5v-405q0 -37 30 -42t70 32l31 -54q-89 -129 -226 -129q-64 0 -107.5 38.5t-43.5 103.5 q-126 -144 -266 -144q-111 0 -191 74.5t-80 187.5zM242 1231q0 85 58.5 144t143.5 59t144 -59t59 -144t-59 -144t-144 -59t-143.5 59t-58.5 144zM250 262q2 -54 33 -90t77.5 -45.5t108 13.5t119.5 79v240q-163 0 -252 -58t-86 -139zM324 1231q0 -50 34.5 -85.5t85.5 -35.5 q49 0 84 35.5t35 85.5q0 48 -35 83.5t-84 35.5q-50 0 -85 -35.5t-35 -83.5z" />
<glyph unicode="&#xe6;" horiz-adv-x="1964" d="M51 231q0 96 72.5 169t193 111t271.5 40q0 82 -31.5 136t-82 72t-110 13.5t-119 -34.5t-104.5 -76l-45 55q64 91 162.5 148t216.5 57q72 0 135 -21.5t114 -63t80.5 -111t29.5 -157.5v-405q0 -37 30 -42t70 32l31 -54q-89 -129 -226 -129q-64 0 -107.5 38.5t-43.5 103.5 q-126 -144 -266 -144q-111 0 -191 74.5t-80 187.5zM250 262q2 -54 33 -90t77.5 -45.5t108 13.5t119.5 79v240q-163 0 -252 -58t-86 -139zM1061 512q10 82 41.5 154t83.5 130.5t131.5 92t177.5 33.5q90 0 162 -23t128 -70.5t86.5 -127.5t31.5 -189h-615q0 -156 60 -242 q45 -65 112 -95.5t136.5 -26t136.5 32t118 73.5l45 -47q-91 -118 -206 -181t-226 -63q-93 0 -178 41.5t-139 114.5q-54 75 -77 180t-9 213zM1292 604h363q0 104 -50.5 169t-134.5 65q-77 0 -127.5 -66t-50.5 -168z" />
<glyph unicode="&#xe7;" horiz-adv-x="970" d="M61 430q-1 97 25 179t71 138.5t105.5 96.5t128.5 58.5t141 19.5q126 2 221.5 -53t141.5 -164q31 -74 -8 -135.5t-109 -61.5q-52 0 -89 35t-37.5 86.5t46.5 109.5q-18 38 -62 62t-101 24q-92 0 -158 -91.5t-66 -244.5q0 -144 87.5 -243t222.5 -99q153 0 266 105l43 -45 q-95 -120 -207.5 -180t-224.5 -60q-129 0 -230.5 66t-154 171t-52.5 226zM223 -643q167 -7 264 63.5t97 184.5q0 78 -43 135.5t-118 70.5t-177 -47l-8 72l135 184l110 -20l-100 -127q62 30 126.5 33.5t118 -17.5t96.5 -57t67 -87t24 -107q0 -88 -38.5 -155.5t-98.5 -106.5 t-141 -62t-157.5 -29.5t-156.5 -1.5v74z" />
<glyph unicode="&#xe8;" horiz-adv-x="968" d="M66 512q10 82 41.5 154t83.5 130.5t131.5 92t177.5 33.5q90 0 162 -23t127.5 -70.5t86 -127.5t31.5 -189h-614q0 -157 59 -242q45 -65 112.5 -95.5t137 -26t136.5 32t118 73.5l45 -47q-91 -118 -206 -181t-226 -63q-93 0 -178 41.5t-139 114.5q-54 75 -77 180t-9 213z M242 1274l63 108l457 -319l-35 -57zM297 604h362q0 104 -50 169t-134 65q-77 0 -127.5 -66t-50.5 -168z" />
<glyph unicode="&#xe9;" horiz-adv-x="968" d="M66 512q10 82 41.5 154t83.5 130.5t131.5 92t177.5 33.5q90 0 162 -23t127.5 -70.5t86 -127.5t31.5 -189h-614q0 -157 59 -242q45 -65 112.5 -95.5t137 -26t136.5 32t118 73.5l45 -47q-91 -118 -206 -181t-226 -63q-93 0 -178 41.5t-139 114.5q-54 75 -77 180t-9 213z M221 1063l457 319l63 -108l-485 -268zM297 604h362q0 104 -50 169t-134 65q-77 0 -127.5 -66t-50.5 -168z" />
<glyph unicode="&#xea;" horiz-adv-x="968" d="M66 512q10 82 41.5 154t83.5 130.5t131.5 92t177.5 33.5q90 0 162 -23t127.5 -70.5t86 -127.5t31.5 -189h-614q0 -157 59 -242q45 -65 112.5 -95.5t137 -26t136.5 32t118 73.5l45 -47q-91 -118 -206 -181t-226 -63q-93 0 -178 41.5t-139 114.5q-54 75 -77 180t-9 213z M129 1028l301 406h96l301 -408h-86l-262 244l-262 -242h-88zM297 604h362q0 104 -50 169t-134 65q-77 0 -127.5 -66t-50.5 -168z" />
<glyph unicode="&#xeb;" horiz-adv-x="968" d="M66 512q10 82 41.5 154t83.5 130.5t131.5 92t177.5 33.5q90 0 162 -23t127.5 -70.5t86 -127.5t31.5 -189h-614q0 -157 59 -242q45 -65 112.5 -95.5t137 -26t136.5 32t118 73.5l45 -47q-91 -118 -206 -181t-226 -63q-93 0 -178 41.5t-139 114.5q-54 75 -77 180t-9 213z M184 1251q0 44 29 72.5t72 28.5t72.5 -28.5t29.5 -72.5q0 -43 -29.5 -71.5t-72.5 -28.5t-72 28.5t-29 71.5zM297 604h362q0 104 -50 169t-134 65q-77 0 -127.5 -66t-50.5 -168zM535 1251q0 44 28.5 72.5t71.5 28.5t72.5 -28.5t29.5 -72.5q0 -43 -29.5 -71.5t-72.5 -28.5 t-71.5 28.5t-28.5 71.5z" />
<glyph unicode="&#xec;" horiz-adv-x="552" d="M16 1274l64 108l457 -319l-35 -57zM41 807v61l358 54v-809l113 -52v-61h-467v61l109 52v651z" />
<glyph unicode="&#xed;" horiz-adv-x="552" d="M41 807v61l358 54v-809l113 -52v-61h-467v61l109 52v651zM57 1063l457 319l64 -108l-486 -268z" />
<glyph unicode="&#xee;" horiz-adv-x="552" d="M-96 1028l301 406h96l301 -408h-86l-262 244l-262 -242h-88zM41 807v61l358 54v-809l113 -52v-61h-467v61l109 52v651z" />
<glyph unicode="&#xef;" horiz-adv-x="552" d="M0 1251q0 44 28.5 72.5t71.5 28.5t73 -28.5t30 -72.5q0 -42 -30 -71t-73 -29t-71.5 28.5t-28.5 71.5zM41 807v61l358 54v-809l113 -52v-61h-467v61l109 52v651zM350 1251q0 44 29 72.5t72 28.5t72.5 -28.5t29.5 -72.5q0 -43 -29.5 -71.5t-72.5 -28.5t-72 28.5t-29 71.5z " />
<glyph unicode="&#xf0;" horiz-adv-x="1228" />
<glyph unicode="&#xf1;" horiz-adv-x="1167" d="M61 0v66l109 45v671l-107 45v64l353 31v-142q56 64 132.5 103t153.5 39q297 0 297 -330v-481l107 -45v-66h-465v66l113 45v493q0 87 -55.5 131t-136 25t-146.5 -101v-548l112 -45v-66h-467zM219 1063q0 127 68 200.5t155 73.5q40 0 77 -14t65.5 -33.5t55.5 -39.5 t56.5 -34t57.5 -14q53 0 86.5 32.5t44.5 123.5l51 -35q-1 -134 -59.5 -208.5t-155.5 -74.5q-38 0 -85 23t-84 50t-81 50t-78 23q-51 0 -85.5 -42.5t-35.5 -109.5z" />
<glyph unicode="&#xf2;" horiz-adv-x="1083" d="M51 440q0 207 142 344.5t348 137.5q134 0 245.5 -58.5t178.5 -168.5t67 -251q0 -97 -31.5 -178t-82.5 -135t-117 -91.5t-133.5 -53.5t-132.5 -15q-68 1 -135 18.5t-130.5 55t-112 91t-77.5 132t-29 172.5zM201 1274l63 108l457 -319l-35 -57zM317 418 q11 -181 69.5 -263.5t174.5 -78.5q112 4 160 98t39 279q-11 189 -72 283.5t-176 90.5q-222 -9 -195 -409z" />
<glyph unicode="&#xf3;" horiz-adv-x="1083" d="M51 440q0 207 142 344.5t348 137.5q134 0 245.5 -58.5t178.5 -168.5t67 -251q0 -97 -31.5 -178t-82.5 -135t-117 -91.5t-133.5 -53.5t-132.5 -15q-68 1 -135 18.5t-130.5 55t-112 91t-77.5 132t-29 172.5zM317 418q11 -181 69.5 -263.5t174.5 -78.5q112 4 160 98t39 279 q-11 189 -72 283.5t-176 90.5q-222 -9 -195 -409zM324 1063l456 319l64 -108l-486 -268z" />
<glyph unicode="&#xf4;" horiz-adv-x="1083" d="M51 440q0 207 142 344.5t348 137.5q134 0 245.5 -58.5t178.5 -168.5t67 -251q0 -97 -31.5 -178t-82.5 -135t-117 -91.5t-133.5 -53.5t-132.5 -15q-68 1 -135 18.5t-130.5 55t-112 91t-77.5 132t-29 172.5zM170 1028l301 406h96l301 -408h-86l-262 244l-262 -242h-88z M317 418q11 -181 69.5 -263.5t174.5 -78.5q112 4 160 98t39 279q-11 189 -72 283.5t-176 90.5q-222 -9 -195 -409z" />
<glyph unicode="&#xf5;" horiz-adv-x="1083" d="M51 440q0 207 142 344.5t348 137.5q134 0 245.5 -58.5t178.5 -168.5t67 -251q0 -97 -31.5 -178t-82.5 -135t-117 -91.5t-133.5 -53.5t-132.5 -15q-68 1 -135 18.5t-130.5 55t-112 91t-77.5 132t-29 172.5zM158 1063q0 127 68 200.5t155 73.5q48 0 94 -21t76 -46.5 t68.5 -46.5t72.5 -21q53 0 86.5 32.5t44.5 123.5l51 -35q-1 -134 -59.5 -208.5t-155.5 -74.5q-38 0 -85 23t-83.5 50t-80.5 50t-78 23q-51 0 -85.5 -42.5t-35.5 -109.5zM317 418q11 -181 69.5 -263.5t174.5 -78.5q112 4 160 98t39 279q-11 189 -72 283.5t-176 90.5 q-222 -9 -195 -409z" />
<glyph unicode="&#xf6;" horiz-adv-x="1083" d="M51 440q0 207 142 344.5t348 137.5q134 0 245.5 -58.5t178.5 -168.5t67 -251q0 -97 -31.5 -178t-82.5 -135t-117 -91.5t-133.5 -53.5t-132.5 -15q-68 1 -135 18.5t-130.5 55t-112 91t-77.5 132t-29 172.5zM266 1251q0 44 29 72.5t72 28.5t72.5 -28.5t29.5 -72.5 q0 -43 -29.5 -71.5t-72.5 -28.5t-72 28.5t-29 71.5zM317 418q11 -181 69.5 -263.5t174.5 -78.5q112 4 160 98t39 279q-11 189 -72 283.5t-176 90.5q-222 -9 -195 -409zM616 1251q0 44 29 72.5t72 28.5t72.5 -28.5t29.5 -72.5q0 -43 -29.5 -71.5t-72.5 -28.5t-72 28.5 t-29 71.5z" />
<glyph unicode="&#xf7;" horiz-adv-x="1058" d="M20 385v102h1018v-102h-1018zM387 113q0 61 40.5 102t102.5 41t103 -41t41 -102t-41 -102.5t-103 -41.5q-61 0 -102 41t-41 103zM387 778q0 62 41 103t102 41q62 0 103 -41t41 -103q0 -61 -41 -102t-103 -41t-102.5 40.5t-40.5 102.5z" />
<glyph unicode="&#xf8;" horiz-adv-x="1083" d="M51 440q0 207 142 344.5t348 137.5q134 0 245.5 -58.5t178.5 -168.5t67 -251q0 -97 -31.5 -178t-82.5 -135t-117 -91.5t-133.5 -53.5t-132.5 -15q-68 1 -135 18.5t-130.5 55t-112 91t-77.5 132t-29 172.5zM195 -467l540 1802h99l-547 -1802h-92zM317 418 q11 -181 69.5 -263.5t174.5 -78.5q112 4 160 98t39 279q-11 189 -72 283.5t-176 90.5q-222 -9 -195 -409z" />
<glyph unicode="&#xf9;" horiz-adv-x="1110" d="M20 807v63l355 31v-614q0 -96 50.5 -140t125 -21.5t141.5 105.5v529l-114 45v67l360 29v-739q0 -37 30 -42t70 32l31 -54q-89 -129 -225 -129q-64 0 -108 38.5t-44 103.5q-74 -72 -109 -95q-71 -47 -157 -47q-297 0 -297 330v463zM119 1274l63 108l457 -319l-35 -57z" />
<glyph unicode="&#xfa;" horiz-adv-x="1110" d="M20 807v63l355 31v-614q0 -96 50.5 -140t125 -21.5t141.5 105.5v529l-114 45v67l360 29v-739q0 -37 30 -42t70 32l31 -54q-89 -129 -225 -129q-64 0 -108 38.5t-44 103.5q-74 -72 -109 -95q-71 -47 -157 -47q-297 0 -297 330v463zM242 1063l456 319l64 -108l-486 -268z " />
<glyph unicode="&#xfb;" horiz-adv-x="1110" d="M20 807v63l355 31v-614q0 -96 50.5 -140t125 -21.5t141.5 105.5v529l-114 45v67l360 29v-739q0 -37 30 -42t70 32l31 -54q-89 -129 -225 -129q-64 0 -108 38.5t-44 103.5q-74 -72 -109 -95q-71 -47 -157 -47q-297 0 -297 330v463zM211 1028l301 406h96l301 -408h-86 l-262 244l-262 -242h-88z" />
<glyph unicode="&#xfc;" horiz-adv-x="1110" d="M20 807v63l355 31v-614q0 -96 50.5 -140t125 -21.5t141.5 105.5v529l-114 45v67l360 29v-739q0 -37 30 -42t70 32l31 -54q-89 -129 -225 -129q-64 0 -108 38.5t-44 103.5q-74 -72 -109 -95q-71 -47 -157 -47q-297 0 -297 330v463zM287 1251q0 44 28.5 72.5t71.5 28.5 t72.5 -28.5t29.5 -72.5q0 -43 -29.5 -71.5t-72.5 -28.5t-71.5 28.5t-28.5 71.5zM637 1251q0 44 28.5 72.5t71.5 28.5t73 -28.5t30 -72.5q0 -42 -30 -71t-73 -29t-71.5 28.5t-28.5 71.5z" />
<glyph unicode="&#xfd;" horiz-adv-x="1015" d="M-20 -379q-3 57 31 96t93 39q37 0 67 -20.5t44 -48.5t11.5 -60t-25.5 -53q44 10 83 47.5t62 91.5l119 287l-365 782l-100 45v64h465v-64l-94 -45l217 -485l207 485l-117 45v64h358v-64l-108 -45l-463 -1093q-39 -91 -123 -146t-192 -55q-68 0 -117.5 35t-52.5 98z M309 1063l457 319l63 -108l-485 -268z" />
<glyph unicode="&#xfe;" horiz-adv-x="1228" />
<glyph unicode="&#xff;" horiz-adv-x="1015" d="M-20 -379q-3 57 31 96t93 39q37 0 67 -20.5t44 -48.5t11.5 -60t-25.5 -53q44 10 83 47.5t62 91.5l119 287l-365 782l-100 45v64h465v-64l-94 -45l217 -485l207 485l-117 45v64h358v-64l-108 -45l-463 -1093q-39 -91 -123 -146t-192 -55q-68 0 -117.5 35t-52.5 98z M229 1251q0 44 29 72.5t72 28.5t72.5 -28.5t29.5 -72.5q0 -43 -29.5 -71.5t-72.5 -28.5t-72 28.5t-29 71.5zM580 1251q0 44 28.5 72.5t71.5 28.5t72.5 -28.5t29.5 -72.5q0 -43 -29.5 -71.5t-72.5 -28.5t-71.5 28.5t-28.5 71.5z" />
<glyph unicode="&#x152;" horiz-adv-x="2885" d="M61 649q0 196 93.5 363.5t254.5 266t351 99.5q123 1 237 -27.5t210 -85.5t167 -136.5t111 -187t39 -230.5q-1 -348 -199.5 -545t-538.5 -197q-149 0 -279 43.5t-230 126.5t-158 214.5t-58 295.5zM367 655q1 -76 17.5 -153t52.5 -152t86.5 -132t125.5 -92t164 -34 q92 1 172 55.5t130.5 139.5t78 188.5t23.5 204.5q-4 106 -33.5 206.5t-81.5 183.5t-133.5 133.5t-180.5 51.5q-123 2 -222.5 -89.5t-150 -228.5t-48.5 -282zM1647 0v84l145 49v1084l-145 49v86h1157l20 -338h-112l-80 194h-533q-17 0 -29 -12t-12 -29v-366q0 -17 12 -29 t29 -12h375l49 131h92v-397h-94l-47 122h-375q-17 0 -29 -12t-12 -29v-391q0 -17 12 -29t29 -12h533l80 195h112l-20 -338h-1157z" />
<glyph unicode="&#x153;" horiz-adv-x="2052" d="M51 440q0 207 142 344.5t348 137.5q134 0 245.5 -58.5t178.5 -168.5t67 -251q0 -97 -31.5 -178t-82.5 -135t-117 -91.5t-133.5 -53.5t-132.5 -15q-68 1 -135 18.5t-130.5 55t-112 91t-77.5 132t-29 172.5zM317 418q11 -181 69.5 -263.5t174.5 -78.5q112 4 160 98t39 279 q-11 189 -72 283.5t-176 90.5q-222 -9 -195 -409zM1149 512q10 82 41.5 154t83.5 130.5t131.5 92t177.5 33.5q90 0 162 -23t128 -70.5t86.5 -127.5t31.5 -189h-615q0 -156 60 -242q45 -65 112 -95.5t136.5 -26t136.5 32t118 73.5l46 -47q-91 -118 -206.5 -181t-226.5 -63 q-93 0 -178 41.5t-139 114.5q-54 75 -77 180t-9 213zM1380 604h363q0 104 -50 169t-134 65q-77 0 -128 -66t-51 -168z" />
<glyph unicode="&#x178;" d="M0 1270v82h582v-82l-166 -49l289 -439l284 439l-149 49v82h469v-82l-154 -49l-407 -607v-483l165 -49v-82h-598v82l166 49v483l-348 607zM455 1602q0 44 28.5 72t71.5 28t72.5 -28t29.5 -72q0 -43 -29.5 -72t-72.5 -29t-71.5 29t-28.5 72zM805 1602q0 44 28.5 72t71.5 28 t73 -28t30 -72q0 -43 -30 -72t-73 -29t-71.5 29t-28.5 72z" />
<glyph unicode="&#x2c6;" horiz-adv-x="1228" d="M293 1028l301 406h96l301 -408h-86l-262 244l-262 -242h-88z" />
<glyph unicode="&#x2dc;" horiz-adv-x="1228" d="M260 1063q0 127 68 200.5t155 73.5q40 0 77 -14t65.5 -33.5t55.5 -39.5t56.5 -34t57.5 -14q53 0 86.5 32.5t44.5 123.5l51 -35q-1 -134 -59.5 -208.5t-155.5 -74.5q-38 0 -85 23t-84 50t-81 50t-78 23q-51 0 -85.5 -42.5t-35.5 -109.5z" />
<glyph unicode="&#x2000;" horiz-adv-x="965" />
<glyph unicode="&#x2001;" horiz-adv-x="1931" />
<glyph unicode="&#x2002;" horiz-adv-x="965" />
<glyph unicode="&#x2003;" horiz-adv-x="1931" />
<glyph unicode="&#x2004;" horiz-adv-x="643" />
<glyph unicode="&#x2005;" horiz-adv-x="482" />
<glyph unicode="&#x2006;" horiz-adv-x="321" />
<glyph unicode="&#x2007;" horiz-adv-x="321" />
<glyph unicode="&#x2008;" horiz-adv-x="241" />
<glyph unicode="&#x2009;" horiz-adv-x="386" />
<glyph unicode="&#x200a;" horiz-adv-x="107" />
<glyph unicode="&#x2010;" horiz-adv-x="567" d="M31 522v103h506v-103h-506z" />
<glyph unicode="&#x2011;" horiz-adv-x="567" d="M31 522v103h506v-103h-506z" />
<glyph unicode="&#x2012;" horiz-adv-x="567" d="M31 522v103h506v-103h-506z" />
<glyph unicode="&#x2013;" horiz-adv-x="792" d="M31 522v103h731v-103h-731z" />
<glyph unicode="&#x2014;" horiz-adv-x="1228" d="M31 522v82h1202v-82h-1202z" />
<glyph unicode="&#x2018;" horiz-adv-x="370" d="M41 1094q1 121 88 213t201 108v-80q-39 -4 -70.5 -37t-34.5 -69q46 -12 74.5 -49.5t28.5 -87.5q0 -62 -41 -103t-103 -41t-102.5 41.5t-40.5 104.5z" />
<glyph unicode="&#x2019;" horiz-adv-x="370" d="M41 948v80q39 4 70 37.5t34 69.5q-46 12 -74 49t-28 88q0 62 40.5 102.5t102.5 40.5t103 -41t41 -104q-1 -121 -88 -214t-201 -108z" />
<glyph unicode="&#x201a;" horiz-adv-x="1228" d="M41 -131q39 4 70 37t34 69q-46 12 -74 49.5t-28 88.5q0 61 40.5 102t102.5 41t103 -41t41 -104q-1 -121 -88 -214t-201 -108v80z" />
<glyph unicode="&#x201c;" horiz-adv-x="698" d="M41 1094q1 121 88 213t201 108v-80q-39 -4 -70.5 -37t-34.5 -69q46 -12 74.5 -49.5t28.5 -87.5q0 -62 -41 -103t-103 -41t-102.5 41.5t-40.5 104.5zM410 1094q1 121 87.5 213.5t200.5 107.5v-80q-39 -4 -70 -37t-34 -69q46 -12 74 -49t28 -88q0 -62 -41 -103t-102 -41 q-62 0 -102.5 41.5t-40.5 104.5z" />
<glyph unicode="&#x201d;" horiz-adv-x="739" d="M41 948v80q39 4 70 37.5t34 69.5q-46 12 -74 49t-28 88q0 62 40.5 102.5t102.5 40.5t103 -41t41 -104q-1 -121 -88 -214t-201 -108zM410 948v80q39 4 70 37.5t34 69.5q-46 12 -74 49t-28 88q0 62 41 102.5t102 40.5q62 0 102.5 -41t40.5 -104q-1 -121 -87.5 -214 t-200.5 -108z" />
<glyph unicode="&#x201e;" horiz-adv-x="1228" d="M41 -131q39 4 70 37t34 69q-46 12 -74 49.5t-28 88.5q0 61 40.5 102t102.5 41t103 -41t41 -104q-1 -121 -88 -214t-201 -108v80zM41 -131q39 4 70 37t34 69q-46 12 -74 49.5t-28 88.5q0 61 40.5 102t102.5 41t103 -41t41 -104q-1 -121 -88 -214t-201 -108v80z" />
<glyph unicode="&#x2022;" horiz-adv-x="573" d="M43 678q0 104 71 174t175 70t173.5 -70t69.5 -174t-69.5 -174t-173.5 -70t-175 70t-71 174z" />
<glyph unicode="&#x2026;" horiz-adv-x="0" d="M57 113q0 61 41 102t103 41q61 0 102 -41t41 -102q0 -62 -41 -103t-102 -41t-102.5 41.5t-41.5 102.5zM57 113q0 61 41 102t103 41q61 0 102 -41t41 -102q0 -62 -41 -103t-102 -41t-102.5 41.5t-41.5 102.5zM57 113q0 61 41 102t103 41q61 0 102 -41t41 -102 q0 -62 -41 -103t-102 -41t-102.5 41.5t-41.5 102.5z" />
<glyph unicode="&#x202f;" horiz-adv-x="386" />
<glyph unicode="&#x2039;" horiz-adv-x="509" d="M41 387v150l428 313v-188l-305 -201l303 -201v-190z" />
<glyph unicode="&#x203a;" horiz-adv-x="509" d="M41 662v188l428 -313v-150l-426 -317v190l303 201z" />
<glyph unicode="&#x205f;" horiz-adv-x="482" />
<glyph unicode="&#x20ac;" horiz-adv-x="1273" d="M20 471v92h148q-4 54 -4 80q0 24 4 74h-148v92h164q21 81 59.5 153t99.5 136.5t138 111.5t180 74t220 27q136 0 240.5 -61.5t119.5 -151.5q9 -52 -25 -90.5t-86 -38.5q-50 0 -84 37t-47 92q-15 63 -53.5 97t-95.5 34q-84 0 -154.5 -35t-120 -95t-82 -133.5t-47.5 -156.5 h469v-92h-479v-15q-3 -67 10 -139h469v-92h-444q51 -137 159.5 -223t254.5 -92q86 -2 173.5 26t151.5 90l43 -45q-181 -255 -493 -252q-111 1 -209.5 42.5t-170 111t-121.5 156.5t-75 186h-164z" />
<glyph unicode="&#x2122;" horiz-adv-x="2891" d="M0 1012l20 340h1113l20 -340h-113l-79 207h-259v-1088l166 -49v-82h-598v82l166 49v1088h-243l-80 -207h-113zM1214 0v82l129 49v1090l-129 49v82h275l520 -928l418 928h403v-82l-145 -49v-1090l145 -49v-82h-536v82l125 49v805l-418 -936h-74l-440 823v-692l145 -49v-82 h-418z" />
<glyph unicode="&#x25fc;" horiz-adv-x="890" d="M0 0v891h891v-891h-891z" />
</font>
</defs>
</svg>
